<?xml version="1.0" encoding="iso-8859-1"?>
<!-- Uploaded to: SVG Repo, www.svgrepo.com, Generator: SVG Repo Mixer Tools -->
<!DOCTYPE svg PUBLIC "-//W3C//DTD SVG 1.1//EN" "http://www.w3.org/Graphics/SVG/1.1/DTD/svg11.dtd">
<svg fill="#000000" height="800px" width="800px" version="1.1" id="Capa_1" xmlns="http://www.w3.org/2000/svg" xmlns:xlink="http://www.w3.org/1999/xlink" 
	 viewBox="0 0 456.231 456.231" xml:space="preserve">
<g>
	<path d="M326.86,353.255c0,7.281-34.683,28.345-100.874,28.345c-66.17,0-100.845-21.064-100.845-28.345v-73.347l-37.788-20.547
		v93.894c0,43.415,69.74,66.132,138.633,66.132c68.909,0,138.662-22.717,138.662-66.132v-93.894l-37.788,20.547V353.255z"/>
	<path d="M455.31,374.32l-22.298-71.064c5.38-4.52,8.867-11.201,8.867-18.773c0-10.73-6.907-19.763-16.485-23.145V194.06
		l16.724-9.092c6.085-3.3,9.871-9.675,9.871-16.597c0-6.921-3.786-13.289-9.871-16.596L235.032,39.145
		c-5.641-3.068-12.428-3.068-18.056,0L9.87,151.775C3.786,155.083,0,161.45,0,168.371c0,6.922,3.786,13.297,9.87,16.605
		l207.106,112.607c2.813,1.527,5.919,2.291,9.024,2.291c3.105,0,6.21-0.764,9.024-2.298l174.071-94.649v58.41
		c-9.578,3.374-16.477,12.414-16.477,23.145c0,7.572,3.488,14.268,8.867,18.788l-22.29,71.05c-1.923,6.112-0.816,12.78,2.977,17.951
		c3.801,5.17,9.832,8.223,16.246,8.223h37.667c6.412,0,12.444-3.053,16.237-8.223C456.117,387.106,457.226,380.44,455.31,374.32z
		 M226.001,259.474L58.448,168.371l167.552-91.117l167.538,91.117L226.001,259.474z"/>
</g>
</svg>