<?xml version="1.0" encoding="utf-8"?>
<!-- Uploaded to: SVG Repo, www.svgrepo.com, Generator: SVG Repo Mixer Tools -->
<svg fill="#000000" height="800px" width="800px" version="1.2" baseProfile="tiny" id="Layer_1" xmlns="http://www.w3.org/2000/svg" xmlns:xlink="http://www.w3.org/1999/xlink"
	  viewBox="-1077 923 256 256" xml:space="preserve">
<path d="M-876.9,938.4l-7.7,7.6l-58.9,58.6l-72.1-72.1c-1.8-1.7-4.6-1.7-6.4,0l-37.9,37.9c-1.7,1.7-1.7,4.6,0,6.4l8.9,8.9l6.7-6.7
	l2.8,2.8l-6.7,6.7l9,9l14-14l2.8,2.8l-14,14l9,9l6.7-6.7l2.8,2.8l-6.7,6.7l9,9l13.9-14l2.8,2.8l-14,13.9l9,9l6.7-6.7l2.8,2.8
	l-6.7,6.7l9,9l14-13.9l4.5,4.5l-81.3,81.3l0,0c-2,2-3.1,4.7-3.1,7.4c0,0-1.6,35.4-0.3,36.7c1.3,1.3,36.9-0.1,36.9-0.1
	c2.7,0,5.4-1,7.4-3l81.3-81.3l4.4,4.4l-13.9,13.9l10.6,10.6l6.7-6.7l2.8,2.8l-6.7,6.7l9,9l13.9-14l2.8,2.8l-13.9,13.9l9,9l6.7-6.7
	l2.8,2.8l-6.7,6.7l9,9l13.9-13.9l2.8,2.8l-13.9,13.9l9,9l6.7-6.7l2.8,2.8l-6.7,6.7l8.9,8.9c1.8,1.8,4.6,1.8,6.4,0l37.9-37.9
	c1.8-1.8,1.8-4.6,0-6.4l-73.7-73.7l58.8-58.6l7.8-7.8c6.6-6.6,6.6-17.2,0-23.8l-17-17C-859.6,931.8-870.3,931.8-876.9,938.4z
	 M-878,980.2l-154,153.8c-3.6-3.2-10.9-10.4-14.1-14.1l154-153.8L-878,980.2z"/>
</svg>