<?xml version="1.0" encoding="utf-8"?>
<!-- Uploaded to: SVG Repo, www.svgrepo.com, Generator: SVG Repo Mixer Tools -->
<svg fill="#000000" version="1.1" id="Layer_1" xmlns="http://www.w3.org/2000/svg" xmlns:xlink="http://www.w3.org/1999/xlink" 
	 width="800px" height="800px" viewBox="0 0 236 256" enable-background="new 0 0 236 256" xml:space="preserve">
<path d="M117.5,2c-12.47,0-22.63,10.16-22.63,22.63c0,12.46,10.06,22.62,22.63,22.62c12.37,0,22.62-10.16,22.62-22.62
	C140.12,12.16,129.97,2,117.5,2z M146,52H89c-15.59,0-28,13.41-28,29v32h20V86c0-1.71,1.29-3,3-3s3,1.29,3,3v27h61V86
	c0-1.71,1.29-3,3-3s3,1.29,3,3v27h20V81C174,65.51,161.49,52,146,52z M2,118v27h23v109h185V145h24v-27H2z M117.93,235.35
	c-25.59,0-46.36-20.77-46.36-46.36c0-25.73,20.63-46.64,46.36-46.64s46.5,20.77,46.5,46.5S143.52,235.35,117.93,235.35z
	 M122.43,184.31c-6.42-2.61-9.41-3.85-9.41-7.06c0-2.34,2.57-4.68,7.3-4.68c4.72,0,8.16,1.47,10.27,2.34l2.61-9.17
	c-2.84-1.52-6.69-2.62-12.01-2.62v-7.29h-6.42v7.66c-8.58,1.74-13.26,7.29-13.26,14.35c0,7.66,5.32,11.97,13.85,14.95
	c6.15,2.39,8.67,3.72,8.67,6.93c0,3.21-2.61,5.55-7.93,5.55c-4.96,0-9.63-1.75-12.61-3.21l-2.34,9.4c2.7,1.51,8.3,2.98,13.85,2.98
	v7.06h6.42v-7.29c9.4-2.11,13.85-7.66,13.85-14.95C135.27,191.97,131.18,187.52,122.43,184.31z"/>
</svg>