<?xml version="1.0" encoding="iso-8859-1"?>
<!-- Uploaded to: SVG Repo, www.svgrepo.com, Generator: SVG Repo Mixer Tools -->
<svg fill="#000000" height="800px" width="800px" version="1.1" id="Layer_1" xmlns="http://www.w3.org/2000/svg" xmlns:xlink="http://www.w3.org/1999/xlink" 
	 viewBox="0 0 511.654 511.654" xml:space="preserve">
<g>
	<g>
		<path d="M475.147,76.52c-35.136-36.736-73.963-55.36-115.413-55.36c-41.003,0-78.421,20.693-103.979,55.915
			C230.347,41.854,193.185,21.16,152.523,21.16c-41.216,0-78.933,18.048-115.243,55.189C13.494,100.691-0.458,138.28,0.011,176.915
			c0.363,30.549,9.707,75.648,52.181,117.099c33.024,32.213,187.2,188.544,188.757,190.123c3.989,4.075,9.472,6.357,15.189,6.357
			c5.696,0,11.179-2.283,15.189-6.357c1.557-1.579,155.733-157.909,188.736-190.123C535.414,220.52,517.238,120.467,475.147,76.52z
			 M362.657,255.827c0,11.776-9.536,21.333-21.333,21.333s-21.333-9.557-21.333-21.333v-21.333h-128v21.333
			c0,11.776-9.536,21.333-21.333,21.333c-11.797,0-21.333-9.557-21.333-21.333v-85.333c0-11.776,9.536-21.333,21.333-21.333
			c11.797,0,21.333,9.557,21.333,21.333v21.333h128v-21.333c0-11.776,9.536-21.333,21.333-21.333s21.333,9.557,21.333,21.333
			V255.827z"/>
	</g>
</g>
</svg>