<?xml version="1.0" encoding="utf-8"?>
<!-- Uploaded to: SVG Repo, www.svgrepo.com, Generator: SVG Repo Mixer Tools -->
<svg fill="#000000" version="1.1" id="earth" xmlns="http://www.w3.org/2000/svg" xmlns:xlink="http://www.w3.org/1999/xlink" 
	 width="800px" height="800px" viewBox="0 0 256 226" enable-background="new 0 0 256 226" xml:space="preserve">
<path d="M242.248,56.254c-7.835-7.835-17.224-11.69-28.291-11.69s-20.395,3.544-28.105,11.627h-0.249
	c-7.71-8.083-16.913-11.627-27.98-11.627c-11.006,0-20.457,3.855-28.291,11.69c-7.772,7.835-11.69,17.286-11.69,28.291
	c0,14.363,4.104,23.814,10.011,35.38c10.508,17.721,17.348,28.105,20.395,31.152l0.746,0.746c5.161,4.85,10.757,7.461,16.913,7.461
	c8.456,0,15.047-3.606,19.959-9.824h0.249c4.85,6.218,11.565,9.824,20.022,9.824c6.156,0,11.814-2.549,16.913-7.399l0.746-0.808
	c3.109-3.047,9.886-13.493,20.395-31.152C249.896,108.36,254,98.909,254,84.546C254,73.478,250.083,64.089,242.248,56.254z
	 M238.269,108.36c-0.684,1.368-1.99,2.114-3.42,2.114c-0.56,0-1.119-0.124-1.679-0.373c-1.865-0.933-2.674-3.171-1.741-5.036
	c3.358-6.777,5.161-12.871,5.41-18.032c0.311-5.845-1.803-11.441-6.031-15.856c-4.539-4.788-10.943-7.524-17.534-7.524
	c-2.114,0-3.793-1.679-3.793-3.793c0-2.114,1.679-3.793,3.793-3.793c8.705,0,17.099,3.606,23.068,9.886
	c5.596,5.907,8.456,13.555,8.083,21.452C244.114,93.562,242.062,100.65,238.269,108.36z M208.796,36.481
	c-4.663,3.295-23.006,14.799-23.006,14.799l-9.762-39.484l8.145-5.783l5.347,23.441c1.244-13.679,9.7-20.27,30.095-27.172
	C222.04,19.444,219.926,28.336,208.796,36.481z M222.954,173.354l-57.955,13.281c-0.402,2.817-1.61,5.836-3.421,8.251
	c-3.421,5.232-8.653,9.055-14.69,10.665c-6.037,1.409-12.476,0.402-17.708-3.22l-49.906-31.795
	c-2.415-1.409-2.817-4.226-1.409-6.439c1.409-2.214,4.226-2.817,6.238-1.409l50.107,31.795c6.641,4.025,15.294,2.214,19.52-4.226
	s2.214-15.294-4.226-19.52l-62.382-39.442c-10.263-6.439-22.136-11.47-33.405-5.836L2,154.841l0.201,57.15l36.826-25.557
	c5.836-1.409,12.275-0.201,17.708,3.22l43.466,27.368c10.665,6.641,23.745,8.251,35.015,5.232l94.177-21.532
	c7.446-1.61,12.476-9.055,10.665-17.105C238.046,176.373,230.601,171.745,222.954,173.354z"/>
</svg>