<?xml version="1.0" ?>
<!DOCTYPE svg  PUBLIC '-//W3C//DTD SVG 1.1//EN'  'http://www.w3.org/Graphics/SVG/1.1/DTD/svg11.dtd'>
<!-- Uploaded to: SVG Repo, www.svgrepo.com, Generator: SVG Repo Mixer Tools -->
<svg fill="#000000" width="800px" height="800px" viewBox="0 0 512 512" enable-background="new 0 0 512 512" id="Meditation" version="1.1" xml:space="preserve" xmlns="http://www.w3.org/2000/svg" xmlns:xlink="http://www.w3.org/1999/xlink">
<g>
<g>
<path d="M465.502,405.424c-1.061-9.484-5.17-18.139-11.703-24.881l26.646,17.551c1.822,1.201,3.885,1.803,5.951,1.803    c1.939,0,3.885-0.531,5.633-1.596c3.613-2.199,5.582-6.18,5.139-10.387c-1.922-18.164-11.715-34.432-26.867-44.631l-3.262-2.195    l2.355-5.283l-75.551-36.244l-26.832-45.54c-9.227-20.246-27.654-35.253-49.35-40.169l-36.984-8.377v-10.609    c16.984-7.756,29.752-23.173,33.857-41.814c9.994-1.711,17.633-10.414,17.633-20.89c0-5.466-2.092-10.653-5.803-14.572V72.33    c0-29-23.482-52.61-52.43-52.834c-3.633-4.056-8.902-6.633-14.799-6.645c-0.066,0-0.131,0-0.197,0    c-19.377,0-37.751,7.685-51.754,21.649c-14.345,14.306-22.244,33.221-22.244,53.261v30.084c-3.562,3.887-5.568,8.984-5.568,14.316    c0,10.476,7.638,19.179,17.633,20.89c4.143,18.811,17.105,34.339,34.319,42.023v10.4l-36.984,8.378    c-21.695,4.915-40.123,19.923-49.349,40.169l-26.832,45.539l-75.552,36.244l2.356,5.285l-3.262,2.193    c-15.153,10.199-24.945,26.467-26.866,44.631c-0.444,4.207,1.523,8.186,5.136,10.385c1.75,1.066,3.693,1.598,5.634,1.598    c2.066,0,4.13-0.604,5.951-1.803l11.573-7.623c-0.872,2.697-1.496,5.512-1.823,8.43c-0.705,6.307,0.021,12.447,1.898,18.109    H11.735v82.139h488.531V417.01h-35.059C465.816,413.262,465.945,409.377,465.502,405.424z M426.83,442.623l-158.691,10.98    l-3.574-34.074L419.83,377.66c8.545-0.865,16.934,1.611,23.658,6.98c6.816,5.445,11.105,13.223,12.076,21.895    C457.563,424.402,444.68,440.57,426.83,442.623z M241.756,453.375l-34.029,0.441l-34.529,3.84    c-0.117-12.723,11.747-24.09,27.507-25.854l38.161-4.268L241.756,453.375z M199.593,421.865    c-14.416,1.613-26.337,9.621-32.293,20.273L79.978,436.1c-17.848-2.051-30.73-18.217-28.733-36.086    c1.859-16.555,15.799-29.039,32.425-29.039c1.11,0,2.223,0.055,3.312,0.162l159.306,42.965l-8.593,2.316l0.131,1.172    L199.593,421.865z M173.695,384.166l-74.584-20.113l51.434-20.516l23.15-30.68V384.166z M252.042,454.719l-3.455-30.881l6.2-1.672    l3.37,32.129L252.042,454.719z M487.223,388.967c0.014,0.127,0.055,0.52-0.393,0.791c-0.447,0.273-0.777,0.055-0.885-0.016    L454.82,369.24l8.391-18.672l1.506,1.012C477.41,360.123,485.613,373.75,487.223,388.967z M315.9,142.211    c0.023-0.702,0.053-1.403,0.053-2.111v-0.699c2.191-0.945,4.139-2.342,5.748-4.061C320.809,138.357,318.678,140.838,315.9,142.211    z M316.365,72.33v51.269c0,0.835-0.148,1.634-0.412,2.38v-0.187c0-6.536-1.943-12.846-5.621-18.247    c-2.543-3.737-3.889-8.102-3.889-12.621v-7.768c0-12.436-10.117-22.553-22.516-22.553l-6.904-0.049    c1.279-4.167,1.967-8.591,1.967-13.172V32.645c0-0.963-0.092-1.901-0.227-2.828C299.924,32.413,316.365,50.481,316.365,72.33z     M194.941,87.761c0-17.363,6.856-33.764,19.306-46.18c12.115-12.083,27.981-18.73,44.693-18.73c0.057,0,0.113,0,0.17,0h0.102    c5.393,0.011,9.779,4.404,9.779,9.794v18.737c0,19.279-15.685,34.965-34.964,34.965c-21.195,0-38.439,17.244-38.439,38.439v0.535    c-0.418-1.032-0.646-2.159-0.646-3.334V87.761z M189.599,134.405c1.648,1.879,3.672,3.437,5.987,4.543v1.152    c0,0.708,0.029,1.409,0.054,2.111C192.58,140.699,190.299,137.84,189.599,134.405z M205.586,140.1v-15.313    c0-15.682,12.758-28.439,28.439-28.439c16.338,0,30.667-8.757,38.542-21.825l11.322,0.081c6.922,0,12.553,5.631,12.553,12.553    v7.768c0,6.534,1.943,12.844,5.623,18.249c2.543,3.735,3.887,8.099,3.887,12.619V140.1c0,27.671-22.512,50.184-50.183,50.184    C228.099,190.284,205.586,167.771,205.586,140.1z M255.77,200.284c5.144,0,10.138-0.651,14.908-1.871v7.875    c-9.373,3.982-19.979,3.982-29.353,0v-7.769C245.955,199.665,250.791,200.284,255.77,200.284z M125.23,307.26l28.513-48.393    l0.25-0.482c7.905-17.531,23.814-30.533,42.557-34.78l39.181-8.874c6.414,3.025,13.339,4.557,20.27,4.557    c6.932,0,13.858-1.531,20.272-4.558l39.182,8.875c18.742,4.247,34.652,17.249,42.559,34.78l28.762,48.875l69.527,33.354    l-12.879,28.881l0.268,0.119l-1.15,2.559c-7.393-3.801-15.738-5.355-24.186-4.41l-0.379,0.041l-79.666,21.484v-76.432    l23.15,30.682l51.65,20.602l3.705-9.289l-49.057-19.566l-29.449-39.029v-14.328h-10v110.057l-62.818,16.941l-81.795-22.061    V281.926h-10v14.328l-29.449,39.029l-65.001,25.926c-4.517,0.467-8.836,1.635-12.838,3.408l-10.705-24.004L125.23,307.26z     M26.057,389.742c-0.108,0.07-0.439,0.289-0.885,0.016c-0.446-0.271-0.404-0.662-0.391-0.791    c1.608-15.217,9.811-28.844,22.504-37.387l1.506-1.014l8.391,18.674L26.057,389.742z M490.266,427.01v62.139H21.735V427.01h26.298    c6.734,10.264,17.813,17.572,30.936,19.039l84.754,5.867c-0.544,2.9-0.676,5.895-0.337,8.928c0.45,4.021,4.068,6.988,8.293,6.988    c0.334,0,0.671-0.02,1.011-0.057l35.414-3.963l34.842-0.451l0.224,1.996l184.46-12.766l0.211-0.02    c15.76-1.764,28.563-11.953,34.439-25.563H490.266z"/>
<path d="M231.462,133.359c-1.986,0-3.603-1.616-3.603-3.604h-10c0,7.501,6.103,13.604,13.603,13.604    c7.501,0,13.604-6.103,13.604-13.604h-10C235.066,131.743,233.45,133.359,231.462,133.359z"/>
<path d="M280.539,143.359c7.502,0,13.604-6.103,13.604-13.604h-10c0,1.987-1.615,3.604-3.604,3.604    c-1.986,0-3.604-1.616-3.604-3.604h-10C266.936,137.256,273.039,143.359,280.539,143.359z"/>
<rect height="134.949" width="10" x="251.001" y="253.799"/>
<g>
<rect height="15.049" width="10" x="381.996" y="59.759"/>
<rect height="15.048" width="10" x="381.996" y="85.484"/>
<rect height="10" width="15.047" x="366.611" y="75.146"/>
<rect height="10" width="15.049" x="392.334" y="75.146"/>
<rect height="15.048" width="10" x="117.11" y="186.515"/>
<rect height="15.048" width="10" x="117.11" y="212.239"/>
<rect height="10" width="15.048" x="101.724" y="201.901"/>
<rect height="10" width="15.048" x="127.448" y="201.901"/>
</g>
</g>
</g>
</svg>