<?xml version="1.0" encoding="iso-8859-1"?>
<!-- Uploaded to: SVG Repo, www.svgrepo.com, Generator: SVG Repo Mixer Tools -->
<svg fill="#000000" height="800px" width="800px" version="1.1" id="Layer_1" xmlns="http://www.w3.org/2000/svg" xmlns:xlink="http://www.w3.org/1999/xlink" 
	 viewBox="0 0 512 512" xml:space="preserve">
<g>
	<g>
		<path d="M512,76.228L435.915,0.143L330.168,105.891c-33.73-20.164-72.115-30.766-111.8-30.766C97.959,75.123,0,173.083,0,293.49
			c0,58.33,22.714,113.166,63.956,154.41c41.243,41.244,96.08,63.956,154.41,63.956c58.33,0,113.168-22.714,154.41-63.956
			s63.956-96.081,63.956-154.41c0-39.533-10.528-77.796-30.548-111.448L512,76.228z M435.915,44.392l31.836,31.836l-19.744,19.744
			l-31.836-31.836L435.915,44.392z M394.046,86.26l31.836,31.836l-122.201,122.2l-31.432-32.24L394.046,86.26z M269.485,291.808
			c0.017,0.559,0.033,1.119,0.033,1.682c0,28.206-22.946,51.152-51.152,51.152s-51.152-22.946-51.152-51.152
			c0-28.206,22.946-51.152,51.152-51.152c0.686,0,1.372,0.016,2.055,0.043l-21.839,71.181L269.485,291.808z M245.797,266.346
			l9.475-30.884l20.996,21.535L245.797,266.346z M232.257,203.801l-2.47,8.051c-3.766-0.524-7.578-0.802-11.42-0.802
			c-45.458,0-82.441,36.983-82.441,82.441c0,45.457,36.982,82.441,82.441,82.441s82.441-36.983,82.441-82.441
			c0-3.723-0.259-7.415-0.749-11.063l8.284-2.542l25.352-25.352c4.208,12.487,6.403,25.669,6.403,38.957
			c0,67.123-54.608,121.731-121.731,121.731S96.635,360.613,96.635,293.49s54.608-121.731,121.731-121.731
			c13.449,0,26.778,2.243,39.386,6.546L232.257,203.801z M218.367,480.568c-103.155,0-187.078-83.923-187.078-187.078
			s83.923-187.078,187.078-187.078c31.323,0,61.69,7.707,88.86,22.418l-25.413,25.413c-19.805-9.026-41.508-13.772-63.449-13.772
			c-84.376,0-153.02,68.645-153.02,153.02s68.645,153.02,153.02,153.02s153.02-68.645,153.02-153.02
			c0-21.779-4.686-43.345-13.596-63.052l25.441-25.441c14.577,27.082,22.214,57.321,22.214,88.492
			C405.445,396.645,321.522,480.568,218.367,480.568z"/>
	</g>
</g>
</svg>