<svg height="800" viewBox="0 0 32 32" width="800" xmlns="http://www.w3.org/2000/svg"><path d="m21 17c0 2.757-2.243 5-5 5s-5-2.243-5-5 2.243-5 5-5 5 2.243 5 5zm-17-5h3v-2h-3zm19 5c0 3.86-3.14 7-7 7s-7-3.14-7-7 3.14-7 7-7 7 3.14 7 7zm-1 0c0-3.314-2.686-6-6-6s-6 2.686-6 6 2.686 6 6 6 6-2.686 6-6zm9-7v15c0 1.657-1.343 3-3 3h-24c-1.657 0-3-1.343-3-3v-15c0-1.657 1.343-3 3-3h5l1.171-2.342c.508-1.016 1.547-1.658 2.683-1.658h6.292c1.136 0 2.175.642 2.683 1.658l1.171 2.342h5c1.657 0 3 1.343 3 3zm-23 2v-2c0-.552-.448-1-1-1h-3c-.552 0-1 .448-1 1v2c0 .552.448 1 1 1h3c.552 0 1-.448 1-1zm16 5c0-4.418-3.582-8-8-8s-8 3.582-8 8 3.582 8 8 8 8-3.582 8-8z" fill="#0b1719"/></svg>