<?xml version="1.0" ?>
<!DOCTYPE svg  PUBLIC '-//W3C//DTD SVG 1.1//EN'  'http://www.w3.org/Graphics/SVG/1.1/DTD/svg11.dtd'>
<!-- Uploaded to: SVG Repo, www.svgrepo.com, Generator: SVG Repo Mixer Tools -->
<svg fill="#000000" width="800px" height="800px" viewBox="0 0 512 512" version="1.1" xml:space="preserve" xmlns="http://www.w3.org/2000/svg" xmlns:xlink="http://www.w3.org/1999/xlink">
<g id="_x37_20_x2C__development_x2C__human_x2C__network_x2C__personality_x2C__self">
<g>
<path d="M293.234,452.478v-93.249H186.927v93.249h50.293V397.97    c0-1.572,1.288-2.839,2.86-2.839s2.862,1.267,2.862,2.839v54.508H293.234z M167.295,472.371c-1.572,0-2.862-1.288-2.862-2.86    s1.29-2.86,2.862-2.86H329.29c1.572,0,2.86,1.288,2.86,2.86s-1.288,2.86-2.86,2.86H167.295z M129.318,485.584    c-1.572,0-2.862-1.267-2.862-2.839s1.29-2.862,2.862-2.862h63.09c1.572,0,2.86,1.29,2.86,2.862s-1.288,2.839-2.86,2.839H129.318z     M237.985,124.797V65.069c0-0.37,0.065-0.698,0.197-1.004l-17.711-17.689l20.375-20.374l10.176,10.176l10.199,10.198    l-17.711,17.689c0.132,0.306,0.175,0.634,0.175,1.004v59.728c3.362,0.24,6.574,0.916,9.63,1.943    c-0.044,6.355-3.778,12.164-9.739,16.422l-0.132,0.109c-6.289,4.455-15.024,7.207-24.7,7.207c-2.969,0-5.852-0.262-8.56-0.742    c-1.834-0.328-3.582-0.742-5.286-1.268c1.135-2.664,2.578-5.197,4.238-7.512l-49.201-28.652l-24.175,6.486l-7.447-27.843    l13.912-3.713l13.91-3.734l6.355,23.716l50.358,29.308l0.393-0.394C219.685,129.711,228.353,125.496,237.985,124.797z     M268.884,136.59l50.163-28.805l6.509-24.284l27.821,7.447l-3.735,13.933l-3.712,13.91l-23.606-6.333l-49.747,28.563    c2.183,3.036,3.931,6.377,5.175,9.981l-0.918,0.087c-1.353,0.109-2.772,0.174-4.213,0.174c-5.045,0-9.828-0.742-14.13-2.096    c-3.146-0.961-6.027-2.248-8.561-3.8c5.001-4.499,8.254-10.09,8.954-16.247c3.537,1.834,6.77,4.215,9.565,7.01L268.884,136.59z     M278.407,174.392l43.479,25.112l24.043-6.441l7.447,27.844l-13.911,3.734l-13.91,3.711l-6.399-23.847l-42.737-24.698    c-1.944,4.324-4.673,8.211-7.97,11.531c-7.077,7.054-16.839,11.422-27.604,11.422c-10.788,0-20.55-4.368-27.604-11.422    c-3.297-3.298-6.028-7.207-7.97-11.51l-42.825,24.984l-6.312,23.539l-27.822-7.445l3.713-13.911l3.734-13.933l24.328,6.529    l43.195-25.2c-0.959-3.385-1.484-6.966-1.484-10.658c0-3.405,0.458-6.726,1.267-9.87c1.986,0.612,4.04,1.113,6.136,1.484    c3.08,0.547,6.268,0.83,9.542,0.83c10.069,0,19.283-2.708,26.337-7.163c3.408,2.337,7.359,4.237,11.706,5.591    c4.869,1.528,10.22,2.358,15.833,2.358c1.549,0,3.101-0.065,4.673-0.196l1.921-0.197c0.438,2.316,0.655,4.717,0.655,7.163    C279.869,167.426,279.367,171.007,278.407,174.392z M249.559,485.999c-1.574,0-2.862-1.268-2.862-2.84s1.288-2.86,2.862-2.86    h133.146c1.572,0,2.838,1.288,2.838,2.86s-1.266,2.84-2.838,2.84H249.559z M224.117,333h25.856    c-2.839-27.537-6.529-52.716-6.552-80.188h-11.093v16.619L224.117,333z M234.949,246.676l-20.943-20.157l-1.005,20.571h22.515    L234.949,246.676z M262.246,227.742l-21.14,18.91c-0.196,0.176-0.393,0.328-0.61,0.438h22.318L262.246,227.742z M321.734,353.529    V244.906l-53.919-21.184l0.764,26.141c0.044,1.572-1.2,2.883-2.772,2.928l-16.685,0.021v16.553l6.856,66.498    c0,1.572-1.265,2.839-2.86,2.839l-32.582-0.022c-1.572-0.196-2.664-1.616-2.467-3.188l8.56-66.17v-16.509h-16.619    c-1.572,0-2.86-1.288-2.86-2.86l1.223-24.677l-49.965,19.632v108.623h22.581v-76.651h5.939v76.651h105.369v-76.651h5.939v76.651    H321.734z" style="fill-rule:evenodd;clip-rule:evenodd;"/>
</g>
</g>
<g id="Layer_1"/>
</svg>