<svg width="21" height="27" viewBox="0 0 21 27" fill="none" xmlns="http://www.w3.org/2000/svg">
<path d="M19.9758 0H14.8545C14.5829 0 14.3224 0.101594 14.1303 0.282433C13.9382 0.463271 13.8303 0.708541 13.8303 0.964286C13.8303 1.22003 13.9382 1.4653 14.1303 1.64614C14.3224 1.82698 14.5829 1.92857 14.8545 1.92857H17.5048L14.3808 4.86964C13.3489 4.03463 12.1235 3.43896 10.8028 3.13043C9.48217 2.82191 8.1031 2.80911 6.77624 3.09307C5.44939 3.37703 4.21171 3.94985 3.16251 4.76555C2.11331 5.58125 1.2818 6.61713 0.734709 7.79007C0.187614 8.96301 -0.0598357 10.2404 0.0122147 11.5196C0.084265 12.7989 0.47381 14.0444 1.14959 15.1563C1.82537 16.2682 2.76858 17.2155 3.90352 17.9221C5.03847 18.6288 6.33355 19.0752 7.68486 19.2254V21.6964H4.61213C4.34049 21.6964 4.07997 21.798 3.88788 21.9789C3.6958 22.1597 3.58789 22.405 3.58789 22.6607C3.58789 22.9165 3.6958 23.1617 3.88788 23.3426C4.07997 23.5234 4.34049 23.625 4.61213 23.625H7.68486V26.0357C7.68486 26.2915 7.79277 26.5367 7.98485 26.7176C8.17693 26.8984 8.43745 27 8.7091 27C8.98074 27 9.24126 26.8984 9.43335 26.7176C9.62543 26.5367 9.73334 26.2915 9.73334 26.0357V23.625H12.8061C13.0777 23.625 13.3382 23.5234 13.5303 23.3426C13.7224 23.1617 13.8303 22.9165 13.8303 22.6607C13.8303 22.405 13.7224 22.1597 13.5303 21.9789C13.3382 21.798 13.0777 21.6964 12.8061 21.6964H9.73334V19.2254C11.2399 19.0599 12.6743 18.5261 13.894 17.6771C15.1136 16.8281 16.0761 15.6935 16.6858 14.3858C17.2955 13.0782 17.5311 11.6432 17.3693 10.2233C17.2075 8.80341 16.654 7.44808 15.7636 6.29196L18.9515 3.29062V5.78571C18.9515 6.04146 19.0594 6.28673 19.2515 6.46757C19.4436 6.64841 19.7041 6.75 19.9758 6.75C20.2474 6.75 20.5079 6.64841 20.7 6.46757C20.8921 6.28673 21 6.04146 21 5.78571V0.964286C21 0.708541 20.8921 0.463271 20.7 0.282433C20.5079 0.101594 20.2474 0 19.9758 0ZM8.7091 17.3571C7.39235 17.3571 6.10518 16.9895 5.01035 16.3008C3.91552 15.6121 3.0622 14.6332 2.5583 13.4879C2.05441 12.3426 1.92257 11.0823 2.17945 9.86649C2.43633 8.65064 3.07041 7.53382 4.00148 6.65724C4.93256 5.78067 6.11883 5.18371 7.41027 4.94186C8.70171 4.70002 10.0403 4.82414 11.2568 5.29854C12.4734 5.77294 13.5131 6.57631 14.2447 7.60705C14.9762 8.6378 15.3667 9.84962 15.3667 11.0893C15.3667 12.7516 14.6652 14.3459 13.4167 15.5213C12.1682 16.6968 10.4748 17.3571 8.7091 17.3571Z" fill="#7E7979"/>
</svg>
