<svg viewBox="0 0 128 128" xmlns="http://www.w3.org/2000/svg"><path d="m116.22 16.68c-8.22-7.88-21.06-11.8-32.78-9.97-8.44 1.29-15.27 5.55-19.37 11.97-4-6.53-10.62-10.84-18.93-12.22-11.61-1.91-25 2.19-33.37 10.21a38.19 38.19 0 0 0 -11.77 27.38 39.61 39.61 0 0 0 11.74 28.6l47.26 47.29a7 7 0 0 0 9.94 0l47.29-47.3a39.61 39.61 0 0 0 11.77-28.59 38.19 38.19 0 0 0 -11.78-27.37zm-4.22 51.72-47.27 47.3a1 1 0 0 1 -1.46 0l-47.27-47.3a33.66 33.66 0 0 1 -10-24.29 32.23 32.23 0 0 1 9.94-23.11c5.89-5.67 14.78-9 23.29-9a30.38 30.38 0 0 1 4.94.4c5 .82 11.67 3.32 15.42 10.56a5.06 5.06 0 0 0 4.41 2.72 4.92 4.92 0 0 0 4.34-2.58c3.89-7.2 10.82-9.66 15.94-10.46 9.77-1.52 20.9 1.84 27.7 8.37a32.23 32.23 0 0 1 10.02 23.1 33.66 33.66 0 0 1 -10 24.29z"/></svg>