<svg width="25" height="24" viewBox="0 0 25 24" fill="none" xmlns="http://www.w3.org/2000/svg">
<path d="M20.5322 9.1084H4.46777C2.55257 9.1084 1 10.5155 1 12.2513V19.857C1 21.5927 2.55257 22.9998 4.46777 22.9998H20.5322C22.4474 22.9998 24 21.5927 24 19.857V12.2513C24 10.5155 22.4474 9.1084 20.5322 9.1084Z" stroke="#7E7979" stroke-width="2" stroke-linecap="round" stroke-linejoin="round"/>
<path d="M12.496 1C14.2757 1 15.9824 1.64072 17.2408 2.78121C18.4992 3.9217 19.2062 5.46853 19.2062 7.08143V9.10857H5.78589V7.08143C5.78589 5.46853 6.49285 3.9217 7.75124 2.78121C9.00964 1.64072 10.7164 1 12.496 1V1Z" stroke="#7E7979" stroke-width="2" stroke-linecap="round" stroke-linejoin="round"/>
<path d="M14.0534 14.3179C14.0534 14.9554 13.451 15.6357 12.496 15.6357C11.5409 15.6357 10.9385 14.9554 10.9385 14.3179C10.9385 13.6803 11.5409 13 12.496 13C13.451 13 14.0534 13.6803 14.0534 14.3179Z" fill="#7E7979" stroke="#7E7979" stroke-width="2"/>
<path d="M12.4961 17.791V13.1553" stroke="#7E7979" stroke-width="2" stroke-linecap="round" stroke-linejoin="round"/>
</svg>
