<svg width="43" height="38" viewBox="0 0 43 38" fill="none" xmlns="http://www.w3.org/2000/svg">
<path d="M35.0255 14.4053H7.86338C4.62513 14.4053 2 16.6215 2 19.3554V31.3348C2 34.0687 4.62513 36.285 7.86338 36.285H35.0255C38.2638 36.285 40.8889 34.0687 40.8889 31.3348V19.3554C40.8889 16.6215 38.2638 14.4053 35.0255 14.4053Z" stroke="#7E7979" stroke-width="3" stroke-linecap="round" stroke-linejoin="round"/>
<path d="M21.4376 1.63379C24.4466 1.63379 27.3324 2.64296 29.4601 4.43929C31.5879 6.23562 32.7832 8.67197 32.7832 11.2124V14.4052H10.0919V11.2124C10.0919 8.67197 11.2873 6.23562 13.415 4.43929C15.5427 2.64296 18.4285 1.63379 21.4376 1.63379V1.63379Z" stroke="#7E7979" stroke-width="3" stroke-linecap="round" stroke-linejoin="round"/>
<path d="M24.2617 22.6097C24.2617 23.5696 23.2452 24.7605 21.4374 24.7605C19.6296 24.7605 18.6132 23.5696 18.6132 22.6097C18.6132 21.6499 19.6296 20.459 21.4374 20.459C23.2452 20.459 24.2617 21.6499 24.2617 22.6097Z" fill="#7E7979" stroke="#7E7979" stroke-width="3"/>
<path d="M21.4377 28.0798V20.7783" stroke="#7E7979" stroke-width="3" stroke-linecap="round" stroke-linejoin="round"/>
</svg>
