<svg width="47" height="71" viewBox="0 0 47 71" fill="none" xmlns="http://www.w3.org/2000/svg">
<path d="M31.704 48.2491C31.6367 48.0911 31.6046 47.9844 31.592 47.8132C31.5169 46.7998 32.2925 45.8716 33.3 45.7388C39.5402 44.9162 43.8032 43.3252 43.9246 41.491C43.9277 41.4446 43.9106 41.3857 43.9092 41.3392C43.9083 41.3123 43.8986 41.2838 43.8789 41.2654C38.9013 36.6305 47.1497 6.57699 33.5242 2.5695C31.1315 1.86574 28.624 1.06699 26.1895 0.525064C25.3706 0.342764 24.4435 0.235352 23.4078 0.235352C-2.27936 2.17898 9.07581 35.1748 3.22544 41.4075C3.22462 41.4084 3.22376 41.4091 3.22261 41.4094C3.21726 41.4111 3.21416 41.4149 3.21416 41.4205C3.21416 41.4207 3.21414 41.4209 3.21411 41.4211C3.21387 41.4223 3.21415 41.4242 3.21512 41.425C3.2154 41.4252 3.21585 41.4258 3.21585 41.4261C3.23812 43.2466 7.35002 44.8353 13.4443 45.6824C14.4718 45.8252 15.2434 46.6155 15.1526 47.6488C15.1373 47.8223 15.0911 48.0923 15.0226 48.2525C13.6857 51.3807 9.6211 52.8856 5.23001 54.616C-0.297184 56.7942 -0.449656 63.2591 4.85532 65.9334C10.0176 68.5358 16.6225 70.8558 23.4783 70.8558C31.2589 70.8558 38.2317 68.5942 43.4341 65.6761C48.117 63.0494 47.5788 57.0831 42.6008 55.071C37.8068 53.1333 33.1533 51.6493 31.704 48.2491Z" fill="#7E7979"/>
</svg>
