<svg width="28" height="30" viewBox="0 0 28 30" fill="none" xmlns="http://www.w3.org/2000/svg">
<path d="M10.83 7.75H10.08H5.1296C5.01516 7.75 4.81948 7.78537 4.59521 7.86804L4.59273 7.86896L4.59272 7.86895C4.3698 7.95024 4.18578 8.05347 4.08193 8.13853L4.08121 8.13913L0.783903 10.8332L4.08089 13.5273L10.83 7.75ZM10.83 7.75V7M10.83 7.75V7M10.83 7V0.75H11.71V3.09203V3.83033V11.8333V12.6202V29.25H10.83V14.6667V13.9167M10.83 7V13.9167M10.83 13.9167H10.08M10.83 13.9167H10.08M10.08 13.9167H5.1296C5.01541 13.9167 4.81954 13.8813 4.59422 13.7986C4.3708 13.7166 4.18624 13.6131 4.08125 13.5276L10.08 13.9167ZM10.8308 0.65905C10.8308 0.659054 10.8307 0.65935 10.8305 0.659927L10.8308 0.65905ZM11.7092 0.65905C11.7092 0.659048 11.7093 0.659334 11.7095 0.659921L11.7092 0.65905ZM13.21 11.0464V4.56863L22.8748 4.41669C22.9895 4.41763 23.183 4.4531 23.4055 4.53441C23.63 4.61717 23.814 4.72034 23.9182 4.80555L23.9184 4.80574L27.2154 7.50017L23.9184 10.1946L23.9184 10.1946C23.8142 10.2798 23.6297 10.3832 23.4062 10.465L23.4053 10.4653C23.1805 10.5479 22.9844 10.5833 22.8701 10.5833H22.8521L22.8341 10.5842L13.21 11.0464ZM11.7092 29.3409C11.7092 29.341 11.7092 29.3407 11.7095 29.3401L11.7092 29.3409ZM10.8308 29.341C10.8308 29.341 10.8307 29.3407 10.8305 29.3401L10.8308 29.341Z" stroke="#7E7979" stroke-width="1.5"/>
</svg>
