<svg width="23" height="20" viewBox="0 0 23 20" fill="none" xmlns="http://www.w3.org/2000/svg">
<path d="M21.3571 0H1.64286C1.20714 0 0.789277 0.210714 0.481182 0.585786C0.173086 0.960859 0 1.46957 0 2V18C0 18.5304 0.173086 19.0391 0.481182 19.4142C0.789277 19.7893 1.20714 20 1.64286 20H21.3571C21.7929 20 22.2107 19.7893 22.5188 19.4142C22.8269 19.0391 23 18.5304 23 18V2C23 1.46957 22.8269 0.960859 22.5188 0.585786C22.2107 0.210714 21.7929 0 21.3571 0ZM19.55 2L11.5 8.78L3.45 2H19.55ZM1.64286 18V2.91L11.0318 10.82C11.1693 10.9361 11.3326 10.9984 11.5 10.9984C11.6674 10.9984 11.8307 10.9361 11.9682 10.82L21.3571 2.91V18H1.64286Z" fill="#7E7979"/>
</svg>
