<svg width="23" height="23" viewBox="0 0 23 23" fill="none" xmlns="http://www.w3.org/2000/svg">
<mask id="path-1-inside-1_367_1229" fill="white">
<path d="M4.34995 7.79035C4.61635 7.91659 4.9054 7.98801 5.19994 8.00035V8.48034C5.18437 8.51883 5.18437 8.56186 5.19994 8.60034C5.23842 8.61591 5.28145 8.61591 5.31994 8.60034H5.74993C5.78842 8.61591 5.83144 8.61591 5.86993 8.60034C5.8855 8.56186 5.8855 8.51883 5.86993 8.48034V8.00035C6.29387 7.97415 6.69921 7.81691 7.02991 7.55036C7.17411 7.42834 7.288 7.27451 7.36262 7.10098C7.43724 6.92745 7.47054 6.73896 7.45991 6.55037C7.47018 6.3152 7.41106 6.0822 7.28991 5.88038C7.15579 5.69137 6.97251 5.54267 6.75992 5.45039C6.43892 5.31083 6.10358 5.20687 5.75993 5.14039C5.56752 5.10417 5.37724 5.05743 5.18994 5.00039C5.06121 4.95416 4.94486 4.87888 4.84994 4.78039C4.77632 4.69415 4.73715 4.58376 4.73994 4.4704C4.73008 4.37488 4.74971 4.27863 4.79619 4.1946C4.84267 4.11058 4.91378 4.0428 4.99994 4.00041C5.18167 3.89536 5.39049 3.84664 5.59993 3.86041C5.7828 3.85865 5.96266 3.90707 6.11993 4.00041C6.18846 4.03956 6.24795 4.09277 6.29448 4.15654C6.34101 4.2203 6.37354 4.29318 6.38992 4.3704C6.40652 4.40881 6.43474 4.44104 6.47062 4.46257C6.50649 4.4841 6.54822 4.49383 6.58992 4.4904H7.23991C7.27704 4.4904 7.31265 4.47565 7.3389 4.44939C7.36516 4.42314 7.37991 4.38753 7.37991 4.3504C7.36493 4.16462 7.30299 3.98569 7.19991 3.83041C7.07384 3.63902 6.90639 3.4784 6.70992 3.36041C6.49005 3.24105 6.24877 3.16629 5.99993 3.14042V2.65042C6.00328 2.62732 6.0012 2.60375 5.99384 2.5816C5.98649 2.55944 5.97406 2.53931 5.95755 2.5228C5.94104 2.50629 5.92091 2.49387 5.89876 2.48651C5.8766 2.47915 5.85303 2.47707 5.82993 2.48043H5.35994C5.32145 2.46486 5.27842 2.46486 5.23994 2.48043C5.22437 2.51891 5.22437 2.56194 5.23994 2.60042V3.08042C4.84687 3.1103 4.47447 3.26839 4.17995 3.53041C4.05446 3.64602 3.95484 3.78686 3.88762 3.94369C3.82041 4.10052 3.78713 4.2698 3.78996 4.4404C3.77966 4.61102 3.80854 4.78173 3.87441 4.93947C3.94028 5.0972 4.04137 5.23776 4.16995 5.35039C4.52345 5.60729 4.93011 5.78157 5.35994 5.86038C5.6866 5.94705 5.93326 6.02038 6.09993 6.08038C6.24132 6.12465 6.37112 6.1998 6.47992 6.30037C6.51996 6.34116 6.55126 6.38969 6.57189 6.44299C6.59253 6.4963 6.60206 6.55325 6.59992 6.61037C6.60118 6.69816 6.57974 6.7848 6.5377 6.86188C6.49565 6.93896 6.43442 7.00389 6.35992 7.05036C6.1402 7.17155 5.8903 7.22709 5.63993 7.21036C5.40587 7.22249 5.17327 7.16695 4.96994 7.05036C4.82089 6.96186 4.70764 6.82383 4.64995 6.66037C4.62763 6.62085 4.5969 6.58671 4.55995 6.56037C4.5176 6.54727 4.47229 6.54727 4.42995 6.56037H3.76996C3.73461 6.54644 3.6953 6.54644 3.65996 6.56037C3.64765 6.59257 3.64765 6.62817 3.65996 6.66037C3.66976 6.87503 3.739 7.08275 3.85996 7.26036C3.97564 7.47576 4.14427 7.65815 4.34995 7.79035Z"/>
</mask>
<path d="M5.19994 8.00035H8.19994V5.12343L5.32554 5.00298L5.19994 8.00035ZM5.19994 8.48034L7.98101 9.60534L8.19994 9.06414V8.48034H5.19994ZM5.19994 8.60034L2.41886 9.72534L2.89583 10.9044L4.07494 11.3814L5.19994 8.60034ZM5.31994 8.60034V5.60034H4.73614L4.19494 5.81927L5.31994 8.60034ZM5.74993 8.60034L6.87493 5.81927L6.33373 5.60034H5.74993V8.60034ZM5.86993 8.60034L6.99493 11.3814L8.17403 10.9044L8.651 9.72534L5.86993 8.60034ZM5.86993 8.48034H2.86993V9.06414L3.08885 9.60534L5.86993 8.48034ZM5.86993 8.00035L5.68487 5.00606L2.86993 5.18004V8.00035H5.86993ZM7.02991 7.55036L8.91254 9.88611L8.94043 9.86362L8.96778 9.84048L7.02991 7.55036ZM7.45991 6.55037L4.46277 6.41942L4.45621 6.56939L4.46466 6.71926L7.45991 6.55037ZM7.28991 5.88038L9.86205 4.33633L9.80295 4.23788L9.73651 4.14424L7.28991 5.88038ZM6.75992 5.45039L5.56379 8.20162L5.56529 8.20227L6.75992 5.45039ZM5.75993 5.14039L6.32975 2.195L6.32234 2.19357L6.31492 2.19217L5.75993 5.14039ZM5.18994 5.00039L4.17596 7.82384L4.24537 7.84876L4.31592 7.87025L5.18994 5.00039ZM4.84994 4.78039L2.56825 6.72818L2.62705 6.79706L2.68989 6.86227L4.84994 4.78039ZM4.73994 4.4704L7.73903 4.54435L7.74376 4.35278L7.72407 4.16216L4.73994 4.4704ZM4.99994 4.00041L6.32449 6.69216L6.41445 6.6479L6.50126 6.59772L4.99994 4.00041ZM5.59993 3.86041L5.40314 6.85395L5.51586 6.86136L5.62882 6.86027L5.59993 3.86041ZM6.11993 4.00041L4.58881 6.58027L4.61015 6.59293L4.63169 6.60524L6.11993 4.00041ZM6.38992 4.3704L3.45526 4.99309L3.51734 5.2857L3.63599 5.56029L6.38992 4.3704ZM6.47062 4.46257L4.92713 7.03505L6.47062 4.46257ZM6.58992 4.4904V1.4904H6.46668L6.34385 1.50051L6.58992 4.4904ZM7.37991 4.3504H10.3799V4.22968L10.3702 4.10935L7.37991 4.3504ZM7.19991 3.83041L4.69459 5.48071L4.70052 5.48964L7.19991 3.83041ZM6.70992 3.36041L8.25444 0.788553L8.19853 0.75498L8.14122 0.723868L6.70992 3.36041ZM5.99993 3.14042H2.99993V5.84467L5.68968 6.12433L5.99993 3.14042ZM5.99993 2.65042L3.03107 2.21928L2.99993 2.43373V2.65042H5.99993ZM5.82993 2.48043V5.48043H6.04663L6.26107 5.44928L5.82993 2.48043ZM5.35994 2.48043L4.23494 5.2615L4.77613 5.48043H5.35994V2.48043ZM5.23994 2.48043L4.11494 -0.300648L2.93583 0.176322L2.45886 1.35543L5.23994 2.48043ZM5.23994 2.60042H8.23994V2.01662L8.02101 1.47542L5.23994 2.60042ZM5.23994 3.08042L5.46733 6.07179L8.23994 5.86103V3.08042H5.23994ZM4.17995 3.53041L2.1859 1.28904L2.16645 1.30634L2.14731 1.32398L4.17995 3.53041ZM3.78996 4.4404L6.7845 4.6212L6.79146 4.50601L6.78954 4.39064L3.78996 4.4404ZM4.16995 5.35039L2.19326 7.60709L2.29591 7.697L2.4063 7.77722L4.16995 5.35039ZM5.35994 5.86038L6.12924 2.9607L6.01611 2.93068L5.90099 2.90957L5.35994 5.86038ZM6.09993 6.08038L5.08377 8.90304L5.1432 8.92444L5.20349 8.94331L6.09993 6.08038ZM6.47992 6.30037L8.62067 4.19866L8.56974 4.14678L8.51636 4.09744L6.47992 6.30037ZM6.57189 6.44299L3.77419 7.52598L6.57189 6.44299ZM6.59992 6.61037L3.60203 6.4978L3.59911 6.57554L3.60023 6.65332L6.59992 6.61037ZM6.35992 7.05036L7.80882 9.67728L7.87943 9.63833L7.94785 9.59565L6.35992 7.05036ZM5.63993 7.21036L5.83989 4.21703L5.66234 4.20517L5.48464 4.21438L5.63993 7.21036ZM4.96994 7.05036L3.43826 9.62989L3.45789 9.64154L3.47769 9.6529L4.96994 7.05036ZM4.64995 6.66037L7.47892 5.66192L7.39144 5.41405L7.26218 5.18516L4.64995 6.66037ZM4.55995 6.56037L6.30121 4.11742L5.90783 3.83703L5.44631 3.6943L4.55995 6.56037ZM4.42995 6.56037V9.56037H4.88325L5.31631 9.42644L4.42995 6.56037ZM3.76996 6.56037L2.66996 9.35143L3.20011 9.56037H3.76996V6.56037ZM3.65996 6.56037L2.55996 3.76931L1.32998 4.25407L0.85781 5.48894L3.65996 6.56037ZM3.65996 6.66037L6.65683 6.52348L6.63477 6.04052L6.46211 5.58894L3.65996 6.66037ZM3.85996 7.26036L6.50288 5.84088L6.42831 5.70202L6.33959 5.57175L3.85996 7.26036ZM3.06525 10.5014C3.69492 10.7997 4.37815 10.9685 5.07433 10.9977L5.32554 5.00298C5.43266 5.00747 5.53777 5.03344 5.63465 5.07935L3.06525 10.5014ZM2.19994 8.00035V8.48034H8.19994V8.00035H2.19994ZM2.41886 7.35534C2.11139 8.11543 2.11139 8.96526 2.41886 9.72534L7.98101 7.47534C8.25735 8.15846 8.25735 8.92223 7.98101 9.60534L2.41886 7.35534ZM4.07494 11.3814C4.83502 11.6889 5.68485 11.6889 6.44494 11.3814L4.19494 5.81927C4.87805 5.54293 5.64182 5.54293 6.32494 5.81927L4.07494 11.3814ZM5.31994 11.6003H5.74993V5.60034H5.31994V11.6003ZM4.62493 11.3814C5.38501 11.6889 6.23485 11.6889 6.99493 11.3814L4.74493 5.81927C5.42804 5.54293 6.19182 5.54293 6.87493 5.81927L4.62493 11.3814ZM8.651 9.72534C8.95847 8.96526 8.95847 8.11543 8.651 7.35534L3.08885 9.60534C2.81252 8.92223 2.81252 8.15846 3.08885 7.47534L8.651 9.72534ZM8.86993 8.48034V8.00035H2.86993V8.48034H8.86993ZM6.05499 10.9946C7.09935 10.9301 8.09787 10.5427 8.91254 9.88611L5.14729 5.21461C5.30055 5.09108 5.4884 5.01821 5.68487 5.00606L6.05499 10.9946ZM8.96778 9.84048C9.46656 9.41842 9.86052 8.88631 10.1186 8.28606L4.60661 5.91589C4.71548 5.66271 4.88166 5.43826 5.09205 5.26023L8.96778 9.84048ZM10.1186 8.28606C10.3767 7.68581 10.4919 7.03383 10.4551 6.38148L4.46466 6.71926C4.44915 6.4441 4.49774 6.16909 4.60661 5.91589L10.1186 8.28606ZM10.457 6.68132C10.493 5.85822 10.2861 5.04271 9.86205 4.33633L4.71777 7.42443C4.53603 7.12169 4.44735 6.77218 4.46277 6.41942L10.457 6.68132ZM9.73651 4.14424C9.28556 3.50877 8.66932 3.0088 7.95454 2.6985L5.56529 8.20227C5.27569 8.07655 5.02602 7.87398 4.84331 7.61652L9.73651 4.14424ZM7.95605 2.69915C7.434 2.47219 6.88864 2.30313 6.32975 2.195L5.19011 8.08578C5.31853 8.11062 5.44384 8.14947 5.56379 8.20162L7.95605 2.69915ZM6.31492 2.19217C6.2302 2.17622 6.14642 2.15565 6.06395 2.13053L4.31592 7.87025C4.60805 7.95922 4.90484 8.03211 5.20494 8.08861L6.31492 2.19217ZM6.20392 2.17695C6.50912 2.28655 6.78495 2.46503 7.00999 2.69852L2.68989 6.86227C3.10478 7.29273 3.6133 7.62177 4.17596 7.82384L6.20392 2.17695ZM7.13164 2.83261C7.53816 3.30883 7.75447 3.91841 7.73903 4.54435L1.74086 4.39644C1.71983 5.2491 2.01448 6.07948 2.56825 6.72818L7.13164 2.83261ZM7.72407 4.16216C7.77718 4.67635 7.67151 5.19447 7.42129 5.64679L2.17109 2.74242C1.8279 3.36279 1.68298 4.07341 1.75582 4.77864L7.72407 4.16216ZM7.42129 5.64679C7.17107 6.09911 6.7883 6.46394 6.32449 6.69216L3.67539 1.30865C3.03926 1.62167 2.51428 2.12204 2.17109 2.74242L7.42129 5.64679ZM6.50126 6.59772C6.16867 6.78997 5.78648 6.87915 5.40314 6.85395L5.79672 0.866868C4.99449 0.814131 4.19466 1.00076 3.49862 1.40309L6.50126 6.59772ZM5.62882 6.86027C5.26306 6.86379 4.90335 6.76694 4.58881 6.58027L7.65104 1.42054C7.02196 1.04719 6.30254 0.853503 5.57105 0.860546L5.62882 6.86027ZM4.63169 6.60524C4.33305 6.43462 4.07386 6.20278 3.87111 5.92494L8.71785 2.38813C8.42204 1.98276 8.04388 1.64451 7.60816 1.39557L4.63169 6.60524ZM3.87111 5.92494C3.66836 5.6471 3.52665 5.32954 3.45526 4.99309L9.32459 3.74771C9.22043 3.25682 9.01367 2.7935 8.71785 2.38813L3.87111 5.92494ZM3.63599 5.56029C3.90151 6.17483 4.35308 6.69062 4.92713 7.03505L8.0141 1.89009C8.5164 2.19147 8.91152 2.64279 9.14386 3.18051L3.63599 5.56029ZM4.92713 7.03505C5.50119 7.37949 6.16881 7.5352 6.83598 7.48029L6.34385 1.50051C6.92763 1.45246 7.5118 1.58871 8.0141 1.89009L4.92713 7.03505ZM6.58992 7.4904H7.23991V1.4904H6.58992V7.4904ZM7.23991 7.4904C8.07266 7.4904 8.87134 7.1596 9.46022 6.57071L5.21758 2.32807C5.75396 1.7917 6.48142 1.4904 7.23991 1.4904V7.4904ZM9.46022 6.57071C10.0491 5.98185 10.3799 5.18318 10.3799 4.3504H4.37991C4.37991 3.59188 4.68123 2.86443 5.21758 2.32807L9.46022 6.57071ZM10.3702 4.10935C10.3144 3.41688 10.0835 2.74996 9.6993 2.17118L4.70052 5.48964C4.52246 5.22142 4.41548 4.91235 4.38961 4.59145L10.3702 4.10935ZM9.70521 2.18012C9.33195 1.61346 8.83615 1.1379 8.25444 0.788553L5.1654 5.93227C4.97663 5.81891 4.81574 5.66458 4.69461 5.4807L9.70521 2.18012ZM8.14122 0.723868C7.57418 0.416037 6.95192 0.223228 6.31018 0.156502L5.68968 6.12433C5.54561 6.10935 5.40592 6.06607 5.27862 5.99696L8.14122 0.723868ZM8.99993 3.14042V2.65042H2.99993V3.14042H8.99993ZM8.96878 3.08157C9.03924 2.59641 8.99549 2.1015 8.84099 1.63621L3.14669 3.52698C3.00691 3.10601 2.96732 2.65823 3.03107 2.21928L8.96878 3.08157ZM8.84099 1.63621C8.68649 1.17092 8.42552 0.748135 8.07887 0.401482L3.83623 4.64412C3.52259 4.33048 3.28648 3.94796 3.14669 3.52698L8.84099 1.63621ZM8.07887 0.401482C7.73221 0.0548184 7.30942 -0.206142 6.84414 -0.360635L4.95337 5.33366C4.53241 5.19388 4.14988 4.95777 3.83623 4.64412L8.07887 0.401482ZM6.84414 -0.360635C6.37887 -0.515127 5.88396 -0.558889 5.39879 -0.488432L6.26107 5.44928C5.82211 5.51303 5.37433 5.47344 4.95337 5.33366L6.84414 -0.360635ZM5.82993 -0.519574H5.35994V5.48043H5.82993V-0.519574ZM6.48494 -0.300648C5.72485 -0.608117 4.87502 -0.608117 4.11494 -0.300648L6.36494 5.2615C5.68182 5.53783 4.91805 5.53783 4.23494 5.2615L6.48494 -0.300648ZM2.45886 1.35543C2.15139 2.11551 2.15139 2.96534 2.45886 3.72542L8.02101 1.47542C8.29734 2.15854 8.29734 2.92231 8.02101 3.60543L2.45886 1.35543ZM2.23994 2.60042V3.08042H8.23994V2.60042H2.23994ZM5.01255 0.0890477C3.96435 0.168727 2.97129 0.590309 2.1859 1.28904L6.17401 5.77178C5.97766 5.94647 5.72938 6.05187 5.46733 6.07179L5.01255 0.0890477ZM2.14731 1.32398C1.71067 1.72622 1.36405 2.21626 1.13019 2.76193L6.64506 5.12545C6.54563 5.35746 6.39825 5.56582 6.2126 5.73685L2.14731 1.32398ZM1.13019 2.76193C0.89633 3.30761 0.780522 3.89657 0.79037 4.49016L6.78954 4.39064C6.79373 4.64302 6.74449 4.89344 6.64506 5.12545L1.13019 2.76193ZM0.79541 4.2596C0.757515 4.88725 0.863785 5.51524 1.10608 6.09547L6.64274 3.78346C6.7533 4.04823 6.8018 4.33479 6.7845 4.6212L0.79541 4.2596ZM1.10608 6.09547C1.34838 6.67571 1.72027 7.19278 2.19326 7.60709L6.14664 3.09369C6.36248 3.28274 6.53218 3.51869 6.64274 3.78346L1.10608 6.09547ZM2.4063 7.77722C3.12299 8.29806 3.94745 8.6514 4.81889 8.81119L5.90099 2.90957C5.91277 2.91173 5.92392 2.91651 5.93361 2.92355L2.4063 7.77722ZM4.59063 8.76006C4.8942 8.8406 5.04106 8.88766 5.08377 8.90304L7.11608 3.25771C6.82547 3.15309 6.479 3.05349 6.12924 2.9607L4.59063 8.76006ZM5.20349 8.94331C4.92068 8.85476 4.66109 8.70447 4.44348 8.50331L8.51636 4.09744C8.08115 3.69512 7.56197 3.39454 6.99636 3.21744L5.20349 8.94331ZM4.33918 8.40209C4.0932 8.15154 3.90094 7.85342 3.77419 7.52598L9.3696 5.36001C9.20158 4.92596 8.94673 4.53078 8.62067 4.19866L4.33918 8.40209ZM3.77419 7.52598C3.64744 7.19854 3.58886 6.84867 3.60203 6.4978L9.59781 6.72294C9.61527 6.25783 9.53762 5.79406 9.3696 5.36001L3.77419 7.52598ZM3.60023 6.65332C3.59409 6.22466 3.69873 5.80168 3.90401 5.42533L9.17139 8.29844C9.46076 7.76792 9.60826 7.17167 9.59961 6.56742L3.60023 6.65332ZM3.90401 5.42533C4.10929 5.04897 4.40827 4.73199 4.77199 4.50508L7.94785 9.59565C8.46057 9.27578 8.88201 8.82895 9.17139 8.29844L3.90401 5.42533ZM4.91102 4.42345C5.19449 4.2671 5.51689 4.19546 5.83989 4.21703L5.43998 10.2037C6.26371 10.2587 7.08592 10.076 7.80882 9.67728L4.91102 4.42345ZM5.48464 4.21438C5.82615 4.19668 6.16553 4.27773 6.46219 4.44783L3.47769 9.6529C4.181 10.0562 4.98559 10.2483 5.79522 10.2063L5.48464 4.21438ZM6.50162 4.47084C6.95685 4.74114 7.30272 5.16268 7.47892 5.66192L1.82097 7.65881C2.11255 8.48498 2.68493 9.18257 3.43826 9.62989L6.50162 4.47084ZM7.26218 5.18516C7.02388 4.76319 6.69583 4.39869 6.30121 4.11742L2.81868 9.00332C2.49798 8.77473 2.23138 8.47851 2.03771 8.13557L7.26218 5.18516ZM5.44631 3.6943C4.82655 3.50263 4.16335 3.50263 3.54358 3.6943L5.31631 9.42644C4.78124 9.59192 4.20866 9.59192 3.67358 9.42644L5.44631 3.6943ZM4.42995 3.56037H3.76996V9.56037H4.42995V3.56037ZM4.86996 3.76931C4.12774 3.47679 3.30218 3.47679 2.55996 3.76931L4.75996 9.35143C4.08843 9.61609 3.34149 9.61609 2.66996 9.35143L4.86996 3.76931ZM0.85781 5.48894C0.581698 6.21107 0.581698 7.00967 0.85781 7.7318L6.46211 5.58894C6.7136 6.24667 6.7136 6.97407 6.46211 7.6318L0.85781 5.48894ZM0.663084 6.79726C0.698247 7.56708 0.946555 8.31201 1.38032 8.94897L6.33959 5.57175C6.53145 5.85349 6.64128 6.18298 6.65683 6.52348L0.663084 6.79726ZM1.21703 8.67984C1.57374 9.344 2.09368 9.90638 2.72786 10.314L5.97204 5.2667C6.19487 5.40992 6.37755 5.60752 6.50288 5.84088L1.21703 8.67984Z" fill="#7E7979" mask="url(#path-1-inside-1_367_1229)"/>
<mask id="path-3-inside-2_367_1229" fill="white">
<path d="M5.57992 11.1598C6.68353 11.1598 7.76235 10.8326 8.67996 10.2195C9.59758 9.60633 10.3128 8.73487 10.7351 7.71527C11.1574 6.69567 11.2679 5.57374 11.0526 4.49134C10.8373 3.40894 10.3059 2.41469 9.52552 1.63432C8.74516 0.853958 7.75091 0.322522 6.66851 0.107219C5.58611 -0.108083 4.46418 0.00241768 3.44458 0.424749C2.42498 0.84708 1.55352 1.56227 0.940387 2.47989C0.327257 3.3975 0 4.47632 0 5.57993C0.00264357 7.059 0.591376 8.47674 1.63724 9.52261C2.68311 10.5685 4.10085 11.1572 5.57992 11.1598ZM5.57992 0.999989C6.48292 1.00197 7.36508 1.27142 8.11507 1.77433C8.86506 2.27724 9.44925 2.99106 9.7939 3.8257C10.1385 4.66034 10.2282 5.57837 10.0516 6.46392C9.8749 7.34947 9.43986 8.16283 8.80135 8.80135C8.16283 9.43986 7.34947 9.8749 6.46392 10.0516C5.57837 10.2282 4.66034 10.1385 3.8257 9.7939C2.99106 9.44925 2.27724 8.86506 1.77432 8.11508C1.27141 7.36509 1.00196 6.48292 0.999986 5.57993C0.998668 4.97811 1.11623 4.38196 1.34593 3.8257C1.57562 3.26944 1.91293 2.76403 2.33848 2.33848C2.76403 1.91293 3.26944 1.57563 3.8257 1.34593C4.38196 1.11623 4.97811 0.99867 5.57992 0.999989Z"/>
</mask>
<path d="M5.57992 11.1598L5.57456 14.1598H5.57992V11.1598ZM0 5.57993H-3L-3 5.58529L0 5.57993ZM0.999986 5.57993L-2.00001 5.5865L0.999986 5.57993ZM5.57992 14.1598C7.27687 14.1598 8.93571 13.6566 10.3467 12.7139L7.01325 7.72505C6.58899 8.00854 6.09018 8.15985 5.57992 8.15985V14.1598ZM10.3467 12.7139C11.7576 11.7711 12.8573 10.4311 13.5067 8.86332L7.96346 6.56722C7.76819 7.03864 7.43752 7.44157 7.01325 7.72505L10.3467 12.7139ZM13.5067 8.86332C14.1561 7.29554 14.326 5.57041 13.995 3.90607L8.11027 5.07661C8.20982 5.57706 8.15873 6.0958 7.96346 6.56722L13.5067 8.86332ZM13.995 3.90607C13.6639 2.24172 12.8468 0.712927 11.6468 -0.486996L7.4042 3.75564C7.76501 4.11645 8.01073 4.57615 8.11027 5.07661L13.995 3.90607ZM11.6468 -0.486996C10.4469 -1.68692 8.91813 -2.50408 7.25378 -2.83514L6.08324 3.04958C6.5837 3.14912 7.0434 3.39484 7.4042 3.75564L11.6468 -0.486996ZM7.25378 -2.83514C5.58944 -3.16619 3.8643 -2.99628 2.29653 -2.34689L4.59263 3.19639C5.06405 3.00112 5.58279 2.95003 6.08324 3.04958L7.25378 -2.83514ZM2.29653 -2.34689C0.728752 -1.6975 -0.611248 -0.597785 -1.55402 0.813176L3.4348 4.1466C3.71828 3.72233 4.12121 3.39166 4.59263 3.19639L2.29653 -2.34689ZM-1.55402 0.813176C-2.4968 2.22414 -3 3.88298 -3 5.57993H3C3 5.06966 3.15131 4.57086 3.4348 4.1466L-1.55402 0.813176ZM-3 5.58529C-2.99593 7.85815 -2.09124 10.0368 -0.484079 11.6439L3.75856 7.40129C3.27399 6.91672 3.00122 6.25985 3 5.57456L-3 5.58529ZM-0.484079 11.6439C1.12308 13.2511 3.3017 14.1558 5.57456 14.1598L5.58529 8.15985C4.9 8.15863 4.24313 7.88586 3.75856 7.40129L-0.484079 11.6439ZM5.57335 3.99998C5.88356 4.00066 6.18662 4.09323 6.44427 4.26599L9.78588 -0.71734C8.54355 -1.55039 7.08227 -1.99673 5.58649 -2L5.57335 3.99998ZM6.44427 4.26599C6.70191 4.43876 6.9026 4.68399 7.021 4.97072L12.5668 2.68069C11.9959 1.29814 11.0282 0.115714 9.78588 -0.71734L6.44427 4.26599ZM7.021 4.97072C7.1394 5.25744 7.1702 5.57282 7.10952 5.87704L12.9936 7.0508C13.2862 5.58392 13.1377 4.06323 12.5668 2.68069L7.021 4.97072ZM7.10952 5.87704C7.04883 6.18125 6.89938 6.46068 6.68003 6.68003L10.9227 10.9227C11.9803 9.86499 12.701 8.51768 12.9936 7.0508L7.10952 5.87704ZM6.68003 6.68003C6.46067 6.89938 6.18125 7.04883 5.87704 7.10952L7.0508 12.9936C8.51768 12.701 9.86499 11.9803 10.9227 10.9227L6.68003 6.68003ZM5.87704 7.10952C5.57282 7.1702 5.25744 7.1394 4.97071 7.021L2.68068 12.5668C4.06323 13.1377 5.58392 13.2862 7.0508 12.9936L5.87704 7.10952ZM4.97071 7.021C4.68398 6.90261 4.43876 6.70192 4.26599 6.44427L-0.717342 9.78588C0.115712 11.0282 1.29814 11.9959 2.68068 12.5668L4.97071 7.021ZM4.26599 6.44427C4.09322 6.18662 4.00066 5.88356 3.99998 5.57335L-2.00001 5.5865C-1.99673 7.08227 -1.5504 8.54355 -0.717342 9.78588L4.26599 6.44427ZM3.99998 5.57335C3.99953 5.36661 4.03991 5.16181 4.11882 4.97072L-1.42697 2.68069C-1.80745 3.60211 -2.00219 4.58961 -2.00001 5.5865L3.99998 5.57335ZM4.11882 4.97072C4.19773 4.77962 4.31361 4.60599 4.4598 4.4598L0.217158 0.217161C-0.487749 0.922068 -1.04648 1.75926 -1.42697 2.68069L4.11882 4.97072ZM4.4598 4.4598C4.60599 4.31361 4.77962 4.19773 4.97071 4.11882L2.68068 -1.42696C1.75926 -1.04648 0.922065 -0.487746 0.217158 0.217161L4.4598 4.4598ZM4.97071 4.11882C5.16181 4.03992 5.36661 3.99953 5.57335 3.99998L5.58649 -2C4.58961 -2.00219 3.60211 -1.80745 2.68068 -1.42696L4.97071 4.11882Z" fill="#7E7979" mask="url(#path-3-inside-2_367_1229)"/>
<mask id="path-5-inside-3_367_1229" fill="white">
<path d="M17.8397 16.5175C17.5188 16.3776 17.1835 16.2736 16.8397 16.2075C16.6086 16.1528 16.3814 16.0827 16.1598 15.9975C16.031 15.9512 15.9147 15.876 15.8198 15.7775C15.7461 15.6912 15.707 15.5808 15.7098 15.4675C15.7059 15.3843 15.7243 15.3015 15.7629 15.2277C15.8016 15.1539 15.8592 15.0917 15.9298 15.0475C16.1115 14.9424 16.3203 14.8937 16.5298 14.9075C16.7305 14.8991 16.9291 14.9514 17.0997 15.0575C17.1683 15.0966 17.2278 15.1498 17.2743 15.2136C17.3208 15.2774 17.3534 15.3503 17.3697 15.4275C17.3863 15.4659 17.4146 15.4981 17.4504 15.5196C17.4863 15.5412 17.528 15.5509 17.5697 15.5475H18.2197C18.2569 15.5475 18.2925 15.5327 18.3187 15.5065C18.345 15.4802 18.3597 15.4446 18.3597 15.4075C18.3448 15.2217 18.2828 15.0428 18.1797 14.8875C18.0537 14.6961 17.8862 14.5355 17.6897 14.4175C17.4555 14.2731 17.1929 14.181 16.9197 14.1475V13.6575C16.9231 13.6344 16.921 13.6108 16.9137 13.5887C16.9063 13.5665 16.8939 13.5464 16.8774 13.5299C16.8609 13.5134 16.8407 13.5009 16.8186 13.4936C16.7964 13.4862 16.7729 13.4841 16.7497 13.4875H16.3198C16.2811 13.4729 16.2384 13.4729 16.1998 13.4875C16.1842 13.526 16.1842 13.569 16.1998 13.6075V14.0775C15.8069 14.1081 15.4347 14.2661 15.1398 14.5275C15.0143 14.6431 14.9147 14.7839 14.8474 14.9408C14.7802 15.0976 14.7469 15.2669 14.7498 15.4375C14.7395 15.6081 14.7684 15.7788 14.8342 15.9365C14.9001 16.0943 15.0012 16.2348 15.1298 16.3475C15.4834 16.6041 15.89 16.7783 16.3198 16.8575C16.6464 16.9441 16.8931 17.0175 17.0597 17.0775C17.2011 17.1217 17.3309 17.1969 17.4397 17.2974C17.4798 17.3382 17.5111 17.3868 17.5317 17.4401C17.5523 17.4934 17.5619 17.5503 17.5597 17.6074C17.561 17.6952 17.5396 17.7819 17.4975 17.859C17.4555 17.936 17.3942 18.001 17.3197 18.0474C17.1 18.1686 16.8501 18.2242 16.5998 18.2074C16.3657 18.2196 16.1331 18.164 15.9298 18.0474C15.7807 17.9589 15.6675 17.8209 15.6098 17.6574C15.5872 17.6181 15.5565 17.584 15.5198 17.5574C15.4774 17.5444 15.4321 17.5444 15.3898 17.5574H14.7698C14.7524 17.55 14.7337 17.5462 14.7148 17.5462C14.6959 17.5462 14.6772 17.55 14.6598 17.5574C14.6475 17.5896 14.6475 17.6252 14.6598 17.6574C14.6696 17.8721 14.7388 18.0798 14.8598 18.2574C14.9977 18.4568 15.1833 18.6184 15.3998 18.7274C15.6642 18.8636 15.9532 18.9452 16.2498 18.9674V19.4474C16.2342 19.4859 16.2342 19.5289 16.2498 19.5674C16.2884 19.582 16.3311 19.582 16.3698 19.5674H16.7997C16.8228 19.5708 16.8464 19.5687 16.8686 19.5613C16.8907 19.554 16.9109 19.5415 16.9274 19.525C16.9439 19.5085 16.9563 19.4884 16.9637 19.4662C16.971 19.4441 16.9731 19.4205 16.9697 19.3974V18.9974C17.3937 18.9712 17.799 18.814 18.1297 18.5474C18.2739 18.4254 18.3878 18.2716 18.4624 18.0981C18.5371 17.9245 18.5704 17.736 18.5597 17.5474C18.5706 17.3122 18.5114 17.079 18.3897 16.8775C18.2412 16.7113 18.0515 16.5871 17.8397 16.5175Z"/>
</mask>
<path d="M16.8397 16.2075L16.1493 19.1269L16.2107 19.1415L16.2727 19.1534L16.8397 16.2075ZM16.1598 15.9975L17.2358 13.1971L17.2049 13.1852L17.1737 13.174L16.1598 15.9975ZM15.8198 15.7775L13.5381 17.7253L13.5969 17.7941L13.6597 17.8593L15.8198 15.7775ZM15.7098 15.4675L18.7089 15.5414L18.7115 15.4352L18.7066 15.329L15.7098 15.4675ZM15.9298 15.0475L14.4284 12.4502L14.3823 12.4768L14.3372 12.5051L15.9298 15.0475ZM16.5298 14.9075L16.333 17.901L16.494 17.9116L16.6552 17.9049L16.5298 14.9075ZM17.0997 15.0575L15.5152 17.6049L15.5628 17.6345L15.6115 17.6623L17.0997 15.0575ZM17.3697 15.4275L14.4351 16.0502L14.4972 16.3428L14.6158 16.6174L17.3697 15.4275ZM17.5697 15.5475V12.5475H17.4465L17.3237 12.5576L17.5697 15.5475ZM18.3597 15.4075H21.3597V15.2868L21.35 15.1664L18.3597 15.4075ZM18.1797 14.8875L15.6744 16.5378L15.6803 16.5467L18.1797 14.8875ZM17.6897 14.4175L16.1152 16.9711L16.1302 16.9803L16.1452 16.9894L17.6897 14.4175ZM16.9197 14.1475H13.9197V16.8022L16.5547 17.1252L16.9197 14.1475ZM16.9197 13.6575L13.9509 13.2264L13.9197 13.4408V13.6575H16.9197ZM16.7497 13.4875V16.4875H16.9664L17.1809 16.4564L16.7497 13.4875ZM16.3198 13.4875L15.2609 16.2944L15.7727 16.4875H16.3198V13.4875ZM16.1998 13.4875L15.1409 10.6806L13.9114 11.1443L13.4187 12.3625L16.1998 13.4875ZM16.1998 13.6075H19.1998V13.0237L18.9808 12.4825L16.1998 13.6075ZM16.1998 14.0775L16.4327 17.0684L19.1998 16.8529V14.0775H16.1998ZM15.1398 14.5275L13.1499 12.2824L13.1283 12.3015L13.1071 12.3211L15.1398 14.5275ZM14.7498 15.4375L17.7443 15.6183L17.7513 15.5031L17.7494 15.3877L14.7498 15.4375ZM15.1298 16.3475L13.1531 18.6042L13.2566 18.6948L13.368 18.7757L15.1298 16.3475ZM16.3198 16.8575L17.0891 13.9578L16.9771 13.9281L16.8631 13.9071L16.3198 16.8575ZM17.0597 17.0775L16.0436 19.9001L16.103 19.9215L16.1633 19.9404L17.0597 17.0775ZM17.4397 17.2974L19.5805 15.1957L19.5296 15.1439L19.4762 15.0945L17.4397 17.2974ZM17.5597 17.6074L14.5618 17.4949L14.5589 17.5726L14.56 17.6504L17.5597 17.6074ZM17.3197 18.0474L18.7686 20.6744L18.8393 20.6354L18.9077 20.5927L17.3197 18.0474ZM16.5998 18.2074L16.7997 15.2141L16.6222 15.2022L16.4445 15.2115L16.5998 18.2074ZM15.9298 18.0474L14.3981 20.627L14.4177 20.6386L14.4375 20.65L15.9298 18.0474ZM15.6098 17.6574L18.4387 16.659L18.3478 16.4012L18.2117 16.1641L15.6098 17.6574ZM15.5198 17.5574L17.2779 15.1266L16.8779 14.8373L16.4061 14.6914L15.5198 17.5574ZM15.3898 17.5574V20.5574H15.8431L16.2761 20.4235L15.3898 17.5574ZM14.7698 17.5574L13.5912 20.3162L14.1558 20.5574H14.7698V17.5574ZM14.6598 17.5574L13.4812 14.7986L12.3118 15.2982L11.8576 16.486L14.6598 17.5574ZM14.6598 17.6574L17.6567 17.5206L17.6346 17.0376L17.4619 16.586L14.6598 17.6574ZM14.8598 18.2574L12.3801 19.9461L12.3863 19.9551L12.3925 19.9641L14.8598 18.2574ZM15.3998 18.7274L16.773 16.0602L16.7614 16.0542L16.7498 16.0483L15.3998 18.7274ZM16.2498 18.9674H19.2498V16.1842L16.4743 15.9758L16.2498 18.9674ZM16.2498 19.4474L19.0308 20.5724L19.2498 20.0312V19.4474H16.2498ZM16.2498 19.5674L13.4687 20.6924L13.9614 21.9106L15.1909 22.3744L16.2498 19.5674ZM16.3698 19.5674V16.5674H15.8227L15.3109 16.7605L16.3698 19.5674ZM16.7997 19.5674L17.2309 16.5986L17.0164 16.5674H16.7997V19.5674ZM16.9697 19.3974H13.9697V19.6141L14.0009 19.8286L16.9697 19.3974ZM16.9697 18.9974L16.7847 16.0031L13.9697 16.1771V18.9974H16.9697ZM18.1297 18.5474L20.0124 20.8832L20.0402 20.8607L20.0676 20.8376L18.1297 18.5474ZM18.5597 17.5474L15.5629 17.4089L15.5558 17.5627L15.5645 17.7163L18.5597 17.5474ZM18.3897 16.8775L20.958 15.3269L20.8131 15.087L20.6263 14.8781L18.3897 16.8775ZM19.0384 13.7673C18.5149 13.5391 17.9677 13.3695 17.4068 13.2616L16.2727 19.1534C16.3993 19.1778 16.5228 19.2161 16.6411 19.2676L19.0384 13.7673ZM17.5301 13.288C17.4301 13.2643 17.3317 13.234 17.2358 13.1971L15.0837 18.7979C15.4312 18.9313 15.7872 19.0413 16.1493 19.1269L17.5301 13.288ZM17.1737 13.174C17.4789 13.2836 17.7548 13.4621 17.9798 13.6956L13.6597 17.8593C14.0746 18.2898 14.5831 18.6188 15.1458 18.8209L17.1737 13.174ZM18.1015 13.8297C18.508 14.3059 18.7243 14.9155 18.7089 15.5414L12.7107 15.3935C12.6896 16.2462 12.9843 17.0766 13.5381 17.7253L18.1015 13.8297ZM18.7066 15.329C18.7273 15.777 18.6285 16.2225 18.4204 16.6197L13.1054 13.8357C12.82 14.3805 12.6846 14.9915 12.713 15.6059L18.7066 15.329ZM18.4204 16.6197C18.2123 17.017 17.9024 17.3518 17.5223 17.5899L14.3372 12.5051C13.8159 12.8316 13.3908 13.2908 13.1054 13.8357L18.4204 16.6197ZM17.4311 17.6448C17.0985 17.837 16.7163 17.9262 16.333 17.901L16.7265 11.9139C15.9243 11.8612 15.1245 12.0478 14.4284 12.4502L17.4311 17.6448ZM16.6552 17.9049C16.2537 17.9217 15.8564 17.8171 15.5152 17.6049L18.6843 12.5101C18.0019 12.0856 17.2073 11.8765 16.4043 11.9101L16.6552 17.9049ZM15.6115 17.6623C15.3129 17.4917 15.0537 17.2599 14.8509 16.982L19.6977 13.4452C19.4019 13.0398 19.0237 12.7016 18.588 12.4526L15.6115 17.6623ZM14.8509 16.982C14.6482 16.7042 14.5065 16.3866 14.4351 16.0502L20.3044 14.8048C20.2002 14.3139 19.9935 13.8506 19.6977 13.4452L14.8509 16.982ZM14.6158 16.6174C14.8813 17.2319 15.3329 17.7477 15.9069 18.0921L18.9939 12.9472C19.4962 13.2486 19.8913 13.6999 20.1237 14.2376L14.6158 16.6174ZM15.9069 18.0921C16.481 18.4366 17.1486 18.5923 17.8158 18.5374L17.3237 12.5576C17.9075 12.5095 18.4916 12.6458 18.9939 12.9472L15.9069 18.0921ZM17.5697 18.5475H18.2197V12.5475H17.5697V18.5475ZM18.2197 18.5475C19.0525 18.5475 19.8512 18.2167 20.44 17.6278L16.1974 13.3851C16.7338 12.8488 17.4612 12.5475 18.2197 12.5475V18.5475ZM20.44 17.6278C21.0289 17.039 21.3597 16.2403 21.3597 15.4075H15.3597C15.3597 14.6489 15.6611 13.9215 16.1974 13.3851L20.44 17.6278ZM21.35 15.1664C21.2942 14.474 21.0633 13.807 20.6791 13.2283L15.6803 16.5467C15.5023 16.2785 15.3953 15.9694 15.3694 15.6485L21.35 15.1664ZM20.685 13.2372C20.3118 12.6705 19.816 12.195 19.2343 11.8456L16.1452 16.9894C15.9564 16.876 15.7956 16.7217 15.6744 16.5378L20.685 13.2372ZM19.2642 11.8639C18.6621 11.4926 17.9869 11.2559 17.2848 11.1698L16.5547 17.1252C16.3988 17.1061 16.2489 17.0535 16.1152 16.9711L19.2642 11.8639ZM19.9197 14.1475V13.6575H13.9197V14.1475H19.9197ZM19.8886 14.0886C19.9591 13.6034 19.9153 13.1085 19.7608 12.6433L14.0665 14.5341C13.9268 14.1132 13.8871 13.6654 13.9509 13.2264L19.8886 14.0886ZM19.7608 12.6433C19.6063 12.178 19.3453 11.7552 18.9987 11.4086L14.756 15.6512C14.4424 15.3376 14.2063 14.955 14.0665 14.5341L19.7608 12.6433ZM18.9987 11.4086C18.6521 11.062 18.2293 10.801 17.764 10.6464L15.8732 16.3407C15.4521 16.2009 15.0696 15.9648 14.756 15.6512L18.9987 11.4086ZM17.764 10.6464C17.2987 10.4919 16.8038 10.4482 16.3186 10.5186L17.1809 16.4564C16.7419 16.5201 16.2942 16.4805 15.8732 16.3407L17.764 10.6464ZM16.7497 10.4875H16.3198V16.4875H16.7497V10.4875ZM17.3786 10.6806C16.6575 10.4086 15.862 10.4086 15.1409 10.6806L17.2586 16.2944C16.6148 16.5373 15.9047 16.5373 15.2609 16.2944L17.3786 10.6806ZM13.4187 12.3625C13.1112 13.1226 13.1112 13.9724 13.4187 14.7325L18.9808 12.4825C19.2572 13.1656 19.2572 13.9294 18.9808 14.6125L13.4187 12.3625ZM13.1998 13.6075V14.0775H19.1998V13.6075H13.1998ZM15.9668 11.0866C14.9227 11.1679 13.9336 11.5878 13.1499 12.2824L17.1296 16.7726C16.9357 16.9444 16.691 17.0483 16.4327 17.0684L15.9668 11.0866ZM13.1071 12.3211C12.6705 12.7233 12.3239 13.2133 12.09 13.759L17.6049 16.1225C17.5054 16.3545 17.3581 16.5629 17.1724 16.7339L13.1071 12.3211ZM12.09 13.759C11.8561 14.3047 11.7403 14.8937 11.7502 15.4872L17.7494 15.3877C17.7535 15.6401 17.7043 15.8905 17.6049 16.1225L12.09 13.759ZM11.7552 15.2567C11.7173 15.8843 11.8236 16.5123 12.0659 17.0925L17.6026 14.7805C17.7131 15.0453 17.7616 15.3319 17.7443 15.6183L11.7552 15.2567ZM12.0659 17.0925C12.3082 17.6728 12.6801 18.1899 13.1531 18.6042L17.1065 14.0908C17.3223 14.2798 17.492 14.5158 17.6026 14.7805L12.0659 17.0925ZM13.368 18.7757C14.0838 19.295 14.9067 19.6477 15.7764 19.8078L16.8631 13.9071C16.8734 13.909 16.8831 13.9131 16.8915 13.9193L13.368 18.7757ZM15.5504 19.7571C15.854 19.8377 16.0009 19.8847 16.0436 19.9001L18.0759 14.2548C17.7853 14.1502 17.4388 14.0506 17.0891 13.9578L15.5504 19.7571ZM16.1633 19.9404C15.8805 19.8518 15.6209 19.7016 15.4033 19.5004L19.4762 15.0945C19.041 14.6922 18.5218 14.3916 17.9562 14.2145L16.1633 19.9404ZM15.299 19.3992C15.053 19.1486 14.8607 18.8505 14.734 18.5231L20.3294 16.3571C20.1614 15.9231 19.9066 15.5279 19.5805 15.1957L15.299 19.3992ZM14.734 18.5231C14.6072 18.1956 14.5487 17.8457 14.5618 17.4949L20.5576 17.72C20.5751 17.2549 20.4974 16.7912 20.3294 16.3571L14.734 18.5231ZM14.56 17.6504C14.5539 17.2218 14.6585 16.7988 14.8638 16.4224L20.1312 19.2955C20.4206 18.765 20.5681 18.1687 20.5594 17.5645L14.56 17.6504ZM14.8638 16.4224C15.0691 16.046 15.3681 15.7291 15.7318 15.5022L18.9077 20.5927C19.4204 20.2729 19.8418 19.8261 20.1312 19.2955L14.8638 16.4224ZM15.8708 15.4205C16.1543 15.2642 16.4767 15.1925 16.7997 15.2141L16.3998 21.2008C17.2235 21.2558 18.0457 21.0731 18.7686 20.6744L15.8708 15.4205ZM16.4445 15.2115C16.786 15.1938 17.1253 15.2748 17.422 15.4449L14.4375 20.65C15.1408 21.0532 15.9454 21.2454 16.755 21.2034L16.4445 15.2115ZM17.4614 15.4679C17.9167 15.7382 18.2625 16.1597 18.4387 16.659L12.7808 18.6559C13.0724 19.4821 13.6448 20.1797 14.3981 20.627L17.4614 15.4679ZM18.2117 16.1641C17.9775 15.7561 17.6592 15.4024 17.2779 15.1266L13.7616 19.9882C13.4538 19.7656 13.1969 19.4801 13.0078 19.1507L18.2117 16.1641ZM16.4061 14.6914C15.7864 14.4997 15.1232 14.4997 14.5034 14.6914L16.2761 20.4235C15.7411 20.589 15.1685 20.589 14.6334 20.4235L16.4061 14.6914ZM15.3898 14.5574H14.7698V20.5574H15.3898V14.5574ZM15.9483 14.7986C15.5583 14.632 15.1387 14.5462 14.7148 14.5462V20.5462C14.3287 20.5462 13.9464 20.468 13.5912 20.3162L15.9483 14.7986ZM14.7148 14.5462C14.2908 14.5462 13.8712 14.632 13.4812 14.7986L15.8383 20.3162C15.4831 20.468 15.1009 20.5462 14.7148 20.5462V14.5462ZM11.8576 16.486C11.5815 17.2081 11.5815 18.0067 11.8576 18.7289L17.4619 16.586C17.7134 17.2437 17.7134 17.9711 17.4619 18.6289L11.8576 16.486ZM11.6629 17.7943C11.6981 18.5642 11.9464 19.3091 12.3801 19.9461L17.3394 16.5688C17.5313 16.8506 17.6411 17.1801 17.6567 17.5206L11.6629 17.7943ZM12.3925 19.9641C12.8157 20.5759 13.3855 21.0718 14.0498 21.4065L16.7498 16.0483C16.9811 16.1649 17.1796 16.3377 17.327 16.5508L12.3925 19.9641ZM14.0265 21.3947C14.6482 21.7148 15.3279 21.9067 16.0252 21.959L16.4743 15.9758C16.5785 15.9837 16.6801 16.0123 16.773 16.0602L14.0265 21.3947ZM13.2498 18.9674V19.4474H19.2498V18.9674H13.2498ZM13.4687 18.3224C13.1612 19.0825 13.1612 19.9323 13.4687 20.6924L19.0308 18.4424C19.3072 19.1255 19.3072 19.8893 19.0308 20.5724L13.4687 18.3224ZM15.1909 22.3744C15.912 22.6464 16.7075 22.6464 17.4286 22.3744L15.3109 16.7605C15.9547 16.5177 16.6648 16.5177 17.3086 16.7605L15.1909 22.3744ZM16.3698 22.5674H16.7997V16.5674H16.3698V22.5674ZM16.3686 22.5363C16.8537 22.6067 17.3486 22.563 17.814 22.4085L15.9232 16.7142C16.3442 16.5744 16.792 16.5348 17.2309 16.5986L16.3686 22.5363ZM17.814 22.4085C18.2793 22.254 18.7021 21.993 19.0487 21.6464L14.806 17.4037C15.1196 17.0901 15.5021 16.854 15.9232 16.7142L17.814 22.4085ZM19.0487 21.6464C19.3953 21.2997 19.6563 20.8769 19.8108 20.4116L14.1165 18.5209C14.2563 18.0999 14.4924 17.7174 14.806 17.4037L19.0487 21.6464ZM19.8108 20.4116C19.9653 19.9463 20.009 19.4513 19.9386 18.9663L14.0009 19.8286C13.9372 19.3897 13.9767 18.9419 14.1165 18.5209L19.8108 20.4116ZM19.9697 19.3974V18.9974H13.9697V19.3974H19.9697ZM17.1548 21.9917C18.1992 21.9272 19.1977 21.5398 20.0124 20.8832L16.2471 16.2117C16.4004 16.0882 16.5882 16.0153 16.7847 16.0031L17.1548 21.9917ZM20.0676 20.8376C20.5664 20.4155 20.9603 19.8834 21.2184 19.2831L15.7064 16.913C15.8153 16.6598 15.9815 16.4353 16.1919 16.2573L20.0676 20.8376ZM21.2184 19.2831C21.4766 18.6829 21.5917 18.0309 21.555 17.3786L15.5645 17.7163C15.549 17.4412 15.5976 17.1662 15.7064 16.913L21.2184 19.2831ZM21.5565 17.686C21.5948 16.8577 21.3865 16.0367 20.958 15.3269L15.8215 18.428C15.6364 18.1214 15.5464 17.7667 15.5629 17.4089L21.5565 17.686ZM20.6263 14.8781C20.1268 14.3193 19.4891 13.9019 18.7771 13.6677L16.9023 19.3672C16.6139 19.2724 16.3555 19.1032 16.1531 18.8768L20.6263 14.8781Z" fill="#7E7979" mask="url(#path-5-inside-3_367_1229)"/>
<mask id="path-7-inside-4_367_1229" fill="white">
<path d="M16.5899 11C15.4863 11 14.4074 11.3273 13.4898 11.9404C12.5722 12.5535 11.857 13.425 11.4347 14.4446C11.0124 15.4642 10.9019 16.5861 11.1172 17.6685C11.3325 18.7509 11.8639 19.7452 12.6443 20.5255C13.4246 21.3059 14.4189 21.8373 15.5013 22.0526C16.5837 22.2679 17.7056 22.1574 18.7252 21.7351C19.7448 21.3128 20.6163 20.5976 21.2294 19.68C21.8425 18.7623 22.1698 17.6835 22.1698 16.5799C22.1698 15.8472 22.0255 15.1216 21.7451 14.4446C21.4646 13.7676 21.0536 13.1525 20.5355 12.6343C20.0173 12.1162 19.4022 11.7052 18.7252 11.4247C18.0482 11.1443 17.3226 11 16.5899 11ZM16.5899 21.1499C15.686 21.1499 14.8025 20.8818 14.051 20.3797C13.2994 19.8775 12.7137 19.1638 12.3678 18.3288C12.0219 17.4937 11.9314 16.5749 12.1077 15.6884C12.2841 14.8019 12.7193 13.9876 13.3584 13.3485C13.9976 12.7094 14.8118 12.2741 15.6983 12.0978C16.5848 11.9215 17.5037 12.012 18.3387 12.3579C19.1738 12.7037 19.8875 13.2895 20.3896 14.041C20.8918 14.7925 21.1598 15.6761 21.1598 16.5799C21.1598 17.1801 21.0416 17.7743 20.8119 18.3288C20.5823 18.8832 20.2457 19.387 19.8213 19.8114C19.3969 20.2357 18.8932 20.5723 18.3387 20.802C17.7843 21.0317 17.19 21.1499 16.5899 21.1499Z"/>
</mask>
<path d="M16.5899 8C14.8929 8 13.2341 8.5032 11.8231 9.44598L15.1565 14.4348C15.5808 14.1513 16.0796 14 16.5899 14V8ZM11.8231 9.44598C10.4122 10.3888 9.31245 11.7288 8.66306 13.2965L14.2063 15.5926C14.4016 15.1212 14.7323 14.7183 15.1565 14.4348L11.8231 9.44598ZM8.66306 13.2965C8.01367 14.8643 7.84375 16.5894 8.17481 18.2538L14.0595 17.0832C13.96 16.5828 14.0111 16.064 14.2063 15.5926L8.66306 13.2965ZM8.17481 18.2538C8.50587 19.9181 9.32303 21.4469 10.523 22.6468L14.7656 18.4042C14.4048 18.0434 14.1591 17.5837 14.0595 17.0832L8.17481 18.2538ZM10.523 22.6468C11.7229 23.8468 13.2517 24.6639 14.916 24.995L16.0866 19.1103C15.5861 19.0107 15.1264 18.765 14.7656 18.4042L10.523 22.6468ZM14.916 24.995C16.5804 25.326 18.3055 25.1561 19.8733 24.5067L17.5772 18.9635C17.1058 19.1587 16.587 19.2098 16.0866 19.1103L14.916 24.995ZM19.8733 24.5067C21.441 23.8573 22.781 22.7576 23.7238 21.3467L18.735 18.0133C18.4515 18.4375 18.0486 18.7682 17.5772 18.9635L19.8733 24.5067ZM23.7238 21.3467C24.6666 19.9357 25.1698 18.2769 25.1698 16.5799H19.1698C19.1698 17.0902 19.0185 17.589 18.735 18.0133L23.7238 21.3467ZM25.1698 16.5799C25.1698 15.4532 24.9479 14.3375 24.5167 13.2965L18.9734 15.5926C19.1031 15.9056 19.1698 16.2411 19.1698 16.5799H25.1698ZM24.5167 13.2965C24.0855 12.2556 23.4535 11.3097 22.6568 10.513L18.4142 14.7556C18.6537 14.9952 18.8438 15.2796 18.9734 15.5926L24.5167 13.2965ZM22.6568 10.513C21.8601 9.71628 20.9142 9.08429 19.8733 8.65311L17.5772 14.1964C17.8902 14.326 18.1746 14.5161 18.4142 14.7556L22.6568 10.513ZM19.8733 8.65311C18.8323 8.22193 17.7166 8 16.5899 8V14C16.9287 14 17.2642 14.0667 17.5772 14.1964L19.8733 8.65311ZM16.5899 18.1499C16.2794 18.1499 15.9758 18.0578 15.7177 17.8853L12.3842 22.8741C13.6291 23.7059 15.0927 24.1499 16.5899 24.1499V18.1499ZM15.7177 17.8853C15.4595 17.7128 15.2583 17.4676 15.1394 17.1807L9.59616 19.4768C10.1691 20.86 11.1394 22.0423 12.3842 22.8741L15.7177 17.8853ZM15.1394 17.1807C15.0206 16.8938 14.9895 16.5782 15.0501 16.2736L9.16539 15.1031C8.8733 16.5715 9.02321 18.0936 9.59616 19.4768L15.1394 17.1807ZM15.0501 16.2736C15.1107 15.9691 15.2602 15.6894 15.4798 15.4698L11.2371 11.2272C10.1784 12.2858 9.45748 13.6347 9.16539 15.1031L15.0501 16.2736ZM15.4798 15.4698C15.6993 15.2503 15.9791 15.1007 16.2836 15.0402L15.1131 9.15544C13.6446 9.44753 12.2958 10.1685 11.2371 11.2272L15.4798 15.4698ZM16.2836 15.0402C16.5881 14.9796 16.9038 15.0107 17.1907 15.1295L19.4868 9.58621C18.1035 9.01326 16.5815 8.86335 15.1131 9.15544L16.2836 15.0402ZM17.1907 15.1295C17.4775 15.2483 17.7227 15.4495 17.8952 15.7077L22.884 12.3743C22.0523 11.1294 20.87 10.1592 19.4868 9.58621L17.1907 15.1295ZM17.8952 15.7077C18.0677 15.9659 18.1598 16.2694 18.1598 16.5799H24.1598C24.1598 15.0827 23.7158 13.6192 22.884 12.3743L17.8952 15.7077ZM18.1598 16.5799C18.1598 16.7861 18.1192 16.9902 18.0403 17.1807L23.5836 19.4768C23.964 18.5584 24.1598 17.574 24.1598 16.5799H18.1598ZM18.0403 17.1807C17.9614 17.3712 17.8458 17.5443 17.7 17.69L21.9426 21.9327C22.6456 21.2297 23.2032 20.3952 23.5836 19.4768L18.0403 17.1807ZM17.7 17.69C17.5542 17.8358 17.3811 17.9515 17.1907 18.0304L19.4868 23.5736C20.4052 23.1932 21.2397 22.6356 21.9426 21.9327L17.7 17.69ZM17.1907 18.0304C17.0002 18.1093 16.796 18.1499 16.5899 18.1499V24.1499C17.584 24.1499 18.5683 23.9541 19.4868 23.5736L17.1907 18.0304Z" fill="#7E7979" mask="url(#path-7-inside-4_367_1229)"/>
<mask id="path-9-inside-5_367_1229" fill="white">
<path d="M12.9998 6.08984H20.4097L19.1197 7.39982C19.0333 7.49704 18.9873 7.6236 18.9912 7.75361C18.995 7.88362 19.0483 8.00725 19.1403 8.09922C19.2323 8.19119 19.3559 8.24455 19.4859 8.24837C19.6159 8.2522 19.7425 8.20621 19.8397 8.11981L21.9997 5.93984C22.045 5.89363 22.0807 5.83891 22.1047 5.77884C22.1287 5.71877 22.1406 5.65454 22.1397 5.58984C22.1516 5.52707 22.1516 5.46262 22.1397 5.39985C22.1069 5.33023 22.0591 5.26875 21.9997 5.21985L19.8297 2.99988C19.7325 2.91348 19.6059 2.86749 19.4759 2.87131C19.3459 2.87514 19.2223 2.9285 19.1303 3.02047C19.0383 3.11244 18.985 3.23607 18.9812 3.36608C18.9773 3.49609 19.0233 3.62265 19.1097 3.71987L20.4297 5.03985H12.9998C12.9258 5.02497 12.8494 5.02672 12.7761 5.04495C12.7029 5.06318 12.6346 5.09745 12.5762 5.14529C12.5178 5.19313 12.4707 5.25333 12.4384 5.32156C12.4061 5.38979 12.3893 5.46435 12.3893 5.53984C12.3893 5.61534 12.4061 5.68989 12.4384 5.75813C12.4707 5.82636 12.5178 5.88656 12.5762 5.9344C12.6346 5.98223 12.7029 6.01651 12.7761 6.03474C12.8494 6.05297 12.9258 6.05471 12.9998 6.03984V6.08984Z"/>
</mask>
<path d="M12.9998 6.08984H9.9998V9.08984H12.9998V6.08984ZM20.4097 6.08984L22.5473 8.19478L27.5743 3.08984H20.4097V6.08984ZM19.1197 7.39982L16.9821 5.29488L16.9283 5.34958L16.8773 5.40696L19.1197 7.39982ZM19.8397 8.11981L21.8326 10.3622L21.9038 10.299L21.9708 10.2313L19.8397 8.11981ZM21.9997 5.93984L24.1308 8.05136L24.1365 8.04555L24.1422 8.03972L21.9997 5.93984ZM22.1397 5.58984L19.1922 5.03102L19.1356 5.32928L19.14 5.63282L22.1397 5.58984ZM22.1397 5.39985L25.0872 4.84102L25.0162 4.46674L24.854 4.12207L22.1397 5.39985ZM21.9997 5.21985L19.8543 7.31687L19.9678 7.43293L20.0931 7.53608L21.9997 5.21985ZM19.8297 2.99988L21.9751 0.902855L21.9014 0.827473L21.8226 0.757448L19.8297 2.99988ZM19.1097 3.71987L16.8673 5.71273L16.926 5.77874L16.9884 5.84119L19.1097 3.71987ZM20.4297 5.03985V8.03985H27.6723L22.551 2.91853L20.4297 5.03985ZM12.9998 5.03985L12.4086 7.98103L12.7013 8.03985H12.9998V5.03985ZM12.9998 6.03984H15.9998V2.37684L12.4086 3.09866L12.9998 6.03984ZM12.9998 9.08984H20.4097V3.08984H12.9998V9.08984ZM18.2721 3.9849L16.9821 5.29488L21.2573 9.50476L22.5473 8.19478L18.2721 3.9849ZM16.8773 5.40696C16.2826 6.07606 15.9661 6.94709 15.9925 7.84188L21.9899 7.66533C22.0085 8.30011 21.784 8.91802 21.3622 9.39268L16.8773 5.40696ZM15.9925 7.84188C16.0188 8.73666 16.386 9.58756 17.019 10.2205L21.2616 5.9779C21.7107 6.42694 21.9712 7.03057 21.9899 7.66533L15.9925 7.84188ZM17.019 10.2205C17.652 10.8535 18.5029 11.2207 19.3976 11.2471L19.5742 5.24967C20.209 5.26836 20.8126 5.52886 21.2616 5.9779L17.019 10.2205ZM19.3976 11.2471C20.2924 11.2734 21.1635 10.9569 21.8326 10.3622L17.8468 5.87738C18.3215 5.45553 18.9394 5.23099 19.5742 5.24967L19.3976 11.2471ZM21.9708 10.2313L24.1308 8.05136L19.8686 3.82832L17.7086 6.00829L21.9708 10.2313ZM24.1422 8.03972C24.4648 7.7106 24.719 7.32086 24.8901 6.89301L19.3193 4.66467C19.4423 4.35696 19.6251 4.07667 19.8571 3.83996L24.1422 8.03972ZM24.8901 6.89301C25.0613 6.46515 25.146 6.00763 25.1394 5.54686L19.14 5.63282C19.1352 5.30144 19.1962 4.97239 19.3193 4.66467L24.8901 6.89301ZM25.0872 6.14867C25.1691 5.71663 25.1691 5.27306 25.0872 4.84102L19.1922 5.95867C19.1341 5.65218 19.1341 5.33751 19.1922 5.03102L25.0872 6.14867ZM24.854 4.12207C24.6321 3.65082 24.3084 3.23466 23.9063 2.90362L20.0931 7.53608C19.8097 7.30284 19.5817 7.00963 19.4254 6.67762L24.854 4.12207ZM24.145 3.12282L21.9751 0.902855L17.6844 5.0969L19.8543 7.31687L24.145 3.12282ZM21.8226 0.757448C21.1535 0.162798 20.2824 -0.153726 19.3876 -0.127386L19.5642 5.87002C18.9294 5.8887 18.3115 5.66416 17.8368 5.24231L21.8226 0.757448ZM19.3876 -0.127386C18.4929 -0.101046 17.642 0.266172 17.009 0.899147L21.2516 5.14179C20.8026 5.59082 20.199 5.85133 19.5642 5.87002L19.3876 -0.127386ZM17.009 0.899147C16.376 1.53213 16.0088 2.38303 15.9825 3.27781L21.9799 3.45435C21.9612 4.08911 21.7007 4.69275 21.2516 5.14179L17.009 0.899147ZM15.9825 3.27781C15.9561 4.1726 16.2726 5.04363 16.8673 5.71273L21.3521 1.72701C21.774 2.20167 21.9985 2.81958 21.9799 3.45435L15.9825 3.27781ZM16.9884 5.84119L18.3084 7.16117L22.551 2.91853L21.231 1.59855L16.9884 5.84119ZM20.4297 2.03985H12.9998V8.03985H20.4297V2.03985ZM13.591 2.09867C13.0816 1.99628 12.5558 2.00827 12.0516 2.13376L13.5007 7.95614C13.143 8.04516 12.77 8.05366 12.4086 7.98103L13.591 2.09867ZM12.0516 2.13376C11.5474 2.25926 11.0773 2.49513 10.6753 2.82435L14.477 7.46623C14.1919 7.69978 13.8584 7.86711 13.5007 7.95614L12.0516 2.13376ZM10.6753 2.82435C10.2733 3.15357 9.94945 3.56794 9.72706 4.03754L15.1497 6.60559C14.9919 6.93873 14.7622 7.23268 14.477 7.46623L10.6753 2.82435ZM9.72706 4.03754C9.50466 4.50715 9.38931 5.02027 9.38931 5.53984H15.3893C15.3893 5.90843 15.3075 6.27244 15.1497 6.60559L9.72706 4.03754ZM9.38931 5.53984C9.38931 6.05942 9.50466 6.57254 9.72706 7.04215L15.1497 4.4741C15.3075 4.80725 15.3893 5.17126 15.3893 5.53984H9.38931ZM9.72706 7.04215C9.94945 7.51175 10.2733 7.92612 10.6753 8.25534L14.477 3.61346C14.7622 3.84701 14.9919 4.14096 15.1497 4.4741L9.72706 7.04215ZM10.6753 8.25534C11.0773 8.58456 11.5474 8.82043 12.0516 8.94593L13.5007 3.12355C13.8584 3.21258 14.1919 3.37991 14.477 3.61346L10.6753 8.25534ZM12.0516 8.94593C12.5558 9.07142 13.0816 9.0834 13.591 8.98101L12.4086 3.09866C12.77 3.02602 13.143 3.03453 13.5007 3.12355L12.0516 8.94593ZM9.9998 6.03984V6.08984H15.9998V6.03984H9.9998Z" fill="#7E7979" mask="url(#path-9-inside-5_367_1229)"/>
<mask id="path-11-inside-6_367_1229" fill="white">
<path d="M9.14002 16.0792H1.73012L3.0001 14.7592C3.08372 14.6662 3.13026 14.5458 3.13087 14.4207C3.13149 14.2957 3.08614 14.1747 3.00345 14.0809C2.92075 13.9871 2.80647 13.927 2.68233 13.9119C2.55819 13.8969 2.43284 13.9279 2.33011 13.9992L0.15014 16.2292C0.103371 16.2748 0.0660005 16.3292 0.0401413 16.3892C0.0140132 16.4509 0.000549316 16.5172 0.000549316 16.5842C0.000549316 16.6512 0.0140132 16.7175 0.0401413 16.7792C0.0630182 16.8384 0.0969552 16.8927 0.14014 16.9392L2.32011 19.1192C2.36032 19.1867 2.41558 19.244 2.48158 19.2866C2.54758 19.3292 2.62254 19.356 2.7006 19.3649C2.77867 19.3738 2.85773 19.3645 2.93163 19.3378C3.00552 19.3111 3.07224 19.2677 3.12658 19.2109C3.18093 19.1542 3.22143 19.0856 3.24493 19.0107C3.26842 18.9357 3.27427 18.8563 3.26203 18.7787C3.24979 18.7011 3.21978 18.6274 3.17434 18.5633C3.12891 18.4992 3.06928 18.4464 3.0001 18.4092L1.73012 17.0892H9.14002C9.25552 17.066 9.35942 17.0035 9.43407 16.9123C9.50872 16.8212 9.54951 16.707 9.54951 16.5892C9.54951 16.4714 9.50872 16.3572 9.43407 16.266C9.35942 16.1749 9.25552 16.1124 9.14002 16.0892V16.0792Z"/>
</mask>
<path d="M9.14002 16.0792H12.14V13.0792H9.14002V16.0792ZM1.73012 16.0792L-0.431751 13.9992L-5.31931 19.0792H1.73012V16.0792ZM3.0001 14.7592L5.16197 16.8392L5.19701 16.8028L5.2308 16.7652L3.0001 14.7592ZM2.33011 13.9992L0.619635 11.5346L0.384744 11.6976L0.184876 11.9021L2.33011 13.9992ZM0.15014 16.2292L2.24522 18.3764L2.27059 18.3517L2.29537 18.3263L0.15014 16.2292ZM0.0401413 16.3892L-2.71494 15.2019L-2.71865 15.2106L-2.7223 15.2192L0.0401413 16.3892ZM0.000549316 16.5842H-2.99945H0.000549316ZM0.0401413 16.7792L2.83844 15.6977L2.82122 15.6532L2.80259 15.6092L0.0401413 16.7792ZM2.32011 19.1192L4.89754 17.5839L4.70604 17.2624L4.44143 16.9978L2.32011 19.1192ZM3.0001 18.4092L0.838231 20.4891L1.16394 20.8277L1.57753 21.0504L3.0001 18.4092ZM1.73012 17.0892V14.0892H-5.31931L-0.431751 19.1692L1.73012 17.0892ZM9.14002 17.0892V20.0892H9.43853L9.73119 20.0304L9.14002 17.0892ZM9.14002 16.0892H6.14002V18.5462L8.54885 19.0304L9.14002 16.0892ZM9.14002 13.0792H1.73012V19.0792H9.14002V13.0792ZM3.89199 18.1592L5.16197 16.8392L0.838231 12.6792L-0.431751 13.9992L3.89199 18.1592ZM5.2308 16.7652C5.80629 16.1252 6.12659 15.2961 6.13084 14.4355L0.13091 14.4059C0.133921 13.7954 0.361143 13.2072 0.769399 12.7532L5.2308 16.7652ZM6.13084 14.4355C6.13508 13.5749 5.82297 12.7427 5.25382 12.0971L0.753068 16.0648C0.349313 15.6068 0.127899 15.0165 0.13091 14.4059L6.13084 14.4355ZM5.25382 12.0971C4.68468 11.4515 3.89817 11.0375 3.04378 10.9338L2.32088 16.8901C1.71477 16.8165 1.15682 16.5228 0.753068 16.0648L5.25382 12.0971ZM3.04378 10.9338C2.1894 10.8301 1.32669 11.0439 0.619635 11.5346L4.04058 16.4638C3.539 16.8119 2.92699 16.9636 2.32088 16.8901L3.04378 10.9338ZM0.184876 11.9021L-1.99509 14.1321L2.29537 18.3263L4.47534 16.0964L0.184876 11.9021ZM-1.94494 14.0819C-2.27232 14.4014 -2.53392 14.7819 -2.71494 15.2019L2.79522 17.5764C2.66592 17.8765 2.47906 18.1483 2.24522 18.3764L-1.94494 14.0819ZM-2.7223 15.2192C-2.9052 15.651 -2.99945 16.1152 -2.99945 16.5842H3.00055C3.00055 16.9192 2.93323 17.2507 2.80259 17.5592L-2.7223 15.2192ZM-2.99945 16.5842C-2.99945 17.0531 -2.90521 17.5173 -2.7223 17.9492L2.80259 15.6092C2.93323 15.9176 3.00055 16.2492 3.00055 16.5842H-2.99945ZM-2.75816 17.8606C-2.59802 18.275 -2.36046 18.6551 -2.05816 18.9806L2.33844 14.8977C2.55437 15.1303 2.72406 15.4018 2.83844 15.6977L-2.75816 17.8606ZM-1.98118 19.0605L0.198789 21.2405L4.44143 16.9978L2.26146 14.8179L-1.98118 19.0605ZM-0.257322 20.6544C0.0194007 21.1189 0.399725 21.5133 0.853975 21.8067L4.10918 16.7665C4.43143 16.9746 4.70123 17.2544 4.89754 17.5839L-0.257322 20.6544ZM0.853975 21.8067C1.30824 22.1001 1.82414 22.2845 2.36141 22.3457L3.0398 16.3841C3.42094 16.4275 3.78692 16.5583 4.10918 16.7665L0.853975 21.8067ZM2.36141 22.3457C2.89868 22.4068 3.44282 22.343 3.95139 22.1592L1.91186 16.5164C2.27264 16.386 2.65867 16.3408 3.0398 16.3841L2.36141 22.3457ZM3.95139 22.1592C4.45996 21.9753 4.91916 21.6765 5.29318 21.286L0.959984 17.1359C1.22531 16.8588 1.55107 16.6468 1.91186 16.5164L3.95139 22.1592ZM5.29318 21.286C5.66722 20.8954 5.94596 20.4238 6.10766 19.9078L0.382194 18.1136C0.496903 17.7475 0.69464 17.4129 0.959984 17.1359L5.29318 21.286ZM6.10766 19.9078C6.26936 19.3918 6.30965 18.8454 6.22538 18.3112L0.298678 19.2462C0.238899 18.8673 0.267483 18.4796 0.382194 18.1136L6.10766 19.9078ZM6.22538 18.3112C6.14112 17.7771 5.93457 17.2696 5.62187 16.8284L0.726811 20.2981C0.504979 19.9851 0.358457 19.6251 0.298678 19.2462L6.22538 18.3112ZM5.62187 16.8284C5.30917 16.3873 4.89876 16.0243 4.42267 15.7679L1.57753 21.0504C1.23979 20.8685 0.948642 20.611 0.726811 20.2981L5.62187 16.8284ZM5.16197 16.3292L3.89199 15.0092L-0.431751 19.1692L0.838231 20.4891L5.16197 16.3292ZM1.73012 20.0892H9.14002V14.0892H1.73012V20.0892ZM9.73119 20.0304C10.5261 19.8706 11.2412 19.4405 11.755 18.8132L7.11313 15.0115C7.4776 14.5665 7.9849 14.2614 8.54885 14.148L9.73119 20.0304ZM11.755 18.8132C12.2688 18.1859 12.5495 17.4 12.5495 16.5892H6.54951C6.54951 16.014 6.74867 15.4565 7.11313 15.0115L11.755 18.8132ZM12.5495 16.5892C12.5495 15.7783 12.2688 14.9925 11.755 14.3652L7.11313 18.1669C6.74867 17.7219 6.54951 17.1644 6.54951 16.5892H12.5495ZM11.755 14.3652C11.2412 13.7379 10.5261 13.3078 9.73119 13.148L8.54885 19.0304C7.9849 18.917 7.4776 18.6119 7.11313 18.1669L11.755 14.3652ZM12.14 16.0892V16.0792H6.14002V16.0892H12.14Z" fill="#7E7979" mask="url(#path-11-inside-6_367_1229)"/>
</svg>
