<svg width="29" height="29" viewBox="0 0 29 29" fill="none" xmlns="http://www.w3.org/2000/svg">
<path fill-rule="evenodd" clip-rule="evenodd" d="M6.66058 14.3884C6.66058 13.4729 6.81172 12.5951 7.0818 11.7719L2.35703 8.14453C1.43618 10.0242 0.91748 12.1423 0.91748 14.3884C0.91748 16.6327 1.43574 18.7493 2.35506 20.6278L7.0772 16.9934C6.80975 16.174 6.66058 15.2995 6.66058 14.3884Z" fill="#FBBC05"/>
<path fill-rule="evenodd" clip-rule="evenodd" d="M14.9561 6.05892C16.9343 6.05892 18.721 6.76365 20.1249 7.91675L24.2087 3.81658C21.7202 1.63833 18.5296 0.292969 14.9561 0.292969C9.40816 0.292969 4.64002 3.48272 2.35693 8.14358L7.08148 11.7709C8.17013 8.4486 11.2733 6.05892 14.9561 6.05892Z" fill="#EA4335"/>
<path fill-rule="evenodd" clip-rule="evenodd" d="M14.9561 22.7169C11.2735 22.7169 8.17035 20.3272 7.0817 17.0049L2.35693 20.6316C4.64002 25.2931 9.40816 28.4828 14.9561 28.4828C18.3802 28.4828 21.6494 27.2604 24.1029 24.97L19.6182 21.4843C18.3528 22.2857 16.7593 22.7169 14.9561 22.7169Z" fill="#34A853"/>
<path fill-rule="evenodd" clip-rule="evenodd" d="M28.3565 14.3877C28.3565 13.5549 28.2288 12.6579 28.0373 11.8252H14.9561V17.2707H22.4859C22.1094 19.1274 21.0847 20.5547 19.6182 21.4836L24.1029 24.9694C26.6801 22.5645 28.3565 18.9819 28.3565 14.3877Z" fill="#4285F4"/>
</svg>
