<svg width="25" height="26" viewBox="0 0 25 26" fill="none" xmlns="http://www.w3.org/2000/svg">
<path d="M24 4.90833C24 4.90182 24 4.89481 24 4.88831C24 4.8818 24 4.8803 24 4.8758C24 4.87129 24 4.86428 23.997 4.85878L23.9887 4.84577C23.9875 4.84036 23.9859 4.83501 23.984 4.82975L23.9787 4.81674C23.9787 4.81173 23.9745 4.80623 23.9722 4.80122C23.9702 4.79713 23.9681 4.79312 23.9657 4.78921C23.9657 4.78421 23.9603 4.7792 23.9574 4.7742L23.9497 4.76268C23.9465 4.75783 23.9429 4.75315 23.939 4.74867C23.9362 4.74464 23.933 4.74079 23.9295 4.73716L23.9183 4.72415C23.9147 4.72014 23.91 4.71664 23.9058 4.71264L23.897 4.70363L19.7515 1.09009C19.7475 1.08633 19.7431 1.08282 19.7385 1.07958L19.7255 1.06907L19.7124 1.06106L19.697 1.05155L19.6704 1.03754L19.6657 1.03704C19.6124 1.01269 19.5527 0.999957 19.4921 1H5.46877C5.37275 1 5.28065 1.0322 5.2127 1.08954C5.14475 1.14687 5.1065 1.22465 5.10634 1.3058V4.55248H1.36184C1.26592 4.55261 1.17398 4.58487 1.10615 4.64219C1.03833 4.69951 1.00016 4.77722 1 4.85828V24.6942C1.00016 24.7753 1.03833 24.853 1.10615 24.9103C1.17398 24.9676 1.26592 24.9999 1.36184 25H19.5318C19.6278 25 19.7199 24.9678 19.7879 24.9105C19.8558 24.8531 19.8941 24.7753 19.8943 24.6942V21.445H23.6382C23.7341 21.4449 23.826 21.4126 23.8938 21.3553C23.9617 21.298 23.9998 21.2203 24 21.1392V4.90833V4.90833ZM19.8546 2.05904L22.7818 4.61154H19.8546V2.05904ZM19.1694 24.3879H1.7219V5.16458H15.0234V8.47182C15.0234 8.55305 15.0616 8.63096 15.1295 8.6884C15.1975 8.74585 15.2897 8.77812 15.3858 8.77812H19.1694V24.3879ZM15.7482 5.61402L18.6761 8.16652H15.7482V5.61402ZM23.2781 20.8329H19.8966V8.47082C19.8966 8.46781 19.8966 8.46531 19.8966 8.46231C19.8966 8.4593 19.8966 8.44879 19.8966 8.44229V8.43028C19.8966 8.42427 19.8966 8.41826 19.8937 8.41276L19.8901 8.39975C19.8887 8.39433 19.8869 8.38898 19.8848 8.38373C19.8835 8.37932 19.8819 8.37498 19.88 8.37072C19.88 8.36571 19.8759 8.36021 19.8735 8.3552C19.8711 8.3513 19.8689 8.34729 19.867 8.34319C19.8641 8.33819 19.8617 8.33318 19.8581 8.32818L19.8504 8.31666C19.8474 8.31182 19.8441 8.30714 19.8404 8.30265L19.8309 8.29114L19.8196 8.27813L19.8072 8.26662L19.7977 8.25761L15.6523 4.64407C15.6487 4.64057 15.6446 4.63806 15.641 4.63506C15.6375 4.63206 15.631 4.62655 15.6257 4.62305H15.6221C15.5959 4.60492 15.5668 4.59008 15.5356 4.579C15.4911 4.56304 15.4431 4.55487 15.3947 4.55498H5.8306V1.6096H19.1327V4.91684C19.1327 4.99798 19.1708 5.07582 19.2386 5.13325C19.3065 5.19067 19.3985 5.223 19.4945 5.22314H23.2781V20.8329Z" stroke="#7E7979"/>
</svg>
