<svg width="29" height="23" viewBox="0 0 29 23" fill="none" xmlns="http://www.w3.org/2000/svg">
<path d="M10.1684 16.0232C10.6201 15.5123 10.6201 14.684 10.1684 14.1731C9.71661 13.6622 8.98419 13.6622 8.53245 14.1731L6.70352 16.2416C6.25178 16.7524 6.25178 17.5808 6.70352 18.0917C7.15526 18.6026 7.88768 18.6026 8.33942 18.0917L10.1684 16.0232Z" stroke="#7E7979" stroke-linecap="round" stroke-linejoin="round"/>
<path d="M12.2686 17.3514C12.7203 16.8405 12.7203 16.0121 12.2686 15.5012C11.8168 14.9903 11.0844 14.9903 10.6327 15.5012L8.34241 18.0914C7.89067 18.6023 7.89067 19.4306 8.34241 19.9415C8.79416 20.4524 9.52657 20.4524 9.97831 19.9415L12.2686 17.3514Z" stroke="#7E7979" stroke-linecap="round" stroke-linejoin="round"/>
<path d="M14.1762 18.8904C14.6279 18.3795 14.6279 17.5512 14.1762 17.0403C13.7244 16.5294 12.992 16.5294 12.5403 17.0403L10.25 19.6305C9.79826 20.1414 9.79826 20.9697 10.25 21.4806C10.7017 21.9915 11.4342 21.9915 11.8859 21.4806L14.1762 18.8904Z" stroke="#7E7979" stroke-linecap="round" stroke-linejoin="round"/>
<path d="M15.5653 21.0271C16.017 20.5162 16.017 19.6879 15.5653 19.177C15.1135 18.6661 14.3811 18.6661 13.9294 19.177L13.0035 20.2242C12.5517 20.7351 12.5517 21.5634 13.0035 22.0743C13.4552 22.5852 14.1876 22.5852 14.6394 22.0743L15.5653 21.0271Z" stroke="#7E7979" stroke-linecap="round" stroke-linejoin="round"/>
<path d="M19.0206 12.582L21.311 15.1723C21.4187 15.2939 21.5042 15.4382 21.5625 15.5972C21.6208 15.7561 21.6508 15.9265 21.6508 16.0986C21.6508 16.2706 21.6208 16.441 21.5625 16.6C21.5042 16.7589 21.4187 16.9033 21.311 17.0248C21.2035 17.1466 21.0759 17.2433 20.9354 17.3092C20.7948 17.3752 20.6442 17.4091 20.492 17.4091C20.3399 17.4091 20.1892 17.3752 20.0487 17.3092C19.9081 17.2433 19.7805 17.1466 19.673 17.0248L15.9946 12.8646" stroke="#7E7979" stroke-linecap="round" stroke-linejoin="round"/>
<path d="M16.2672 13.1621L19.9457 17.3223C20.0535 17.4438 20.1389 17.5882 20.1972 17.7471C20.2556 17.9061 20.2856 18.0765 20.2856 18.2485C20.2856 18.4206 20.2556 18.591 20.1972 18.7499C20.1389 18.9089 20.0535 19.0532 19.9457 19.1748C19.8383 19.2966 19.7106 19.3933 19.5701 19.4592C19.4296 19.5252 19.2789 19.5591 19.1267 19.5591C18.9746 19.5591 18.8239 19.5252 18.6834 19.4592C18.5429 19.3933 18.4152 19.2966 18.3078 19.1748L14.4997 14.8262" stroke="#7E7979" stroke-linecap="round" stroke-linejoin="round"/>
<path d="M17.6 18.3711L18.5254 19.4177C18.6331 19.5392 18.7186 19.6836 18.7769 19.8425C18.8352 20.0014 18.8652 20.1718 18.8652 20.3439C18.8652 20.516 18.8352 20.6864 18.7769 20.8453C18.7186 21.0043 18.6331 21.1486 18.5254 21.2701L-nan -nanL-nan -nanL18.5254 21.2701C18.4179 21.392 18.2903 21.4886 18.1498 21.5546C18.0092 21.6205 17.8586 21.6545 17.7064 21.6545C17.5543 21.6545 17.4036 21.6205 17.2631 21.5546C17.1225 21.4886 16.9949 21.392 16.8874 21.2701L15.962 20.2236" stroke="#7E7979" stroke-linecap="round" stroke-linejoin="round"/>
<path d="M18.6917 5.6408C18.4412 5.47564 18.1833 5.32542 17.919 5.19077L-nan -nanL-nan -nanL17.919 5.19077L14.3469 3.95579C14.2559 3.92482 14.1587 3.92629 14.0685 3.95999C13.9782 3.9937 13.8993 4.05801 13.8426 4.14418L12.7413 5.80303C12.6813 5.89361 12.6488 6.00378 12.6488 6.117V8.29914C12.6512 8.64429 12.7742 8.97436 12.9908 9.21745C13.2075 9.46053 13.5003 9.59692 13.8055 9.59691L-nan -nanL-nan -nanL13.8055 9.59691C14.1123 9.59691 14.4066 9.45908 14.6235 9.21374C14.8404 8.9684 14.9623 8.63564 14.9623 8.28868V7.73719C14.9623 7.02625 15.5313 6.44608 16.2421 6.43225V6.43225C16.6249 6.4248 16.9917 6.58581 17.2453 6.87263L17.7709 7.4671L21.5558 11.7477C21.6635 11.8692 21.749 12.0135 21.8073 12.1725C21.8656 12.3314 21.8956 12.5018 21.8956 12.6739C21.8956 12.846 21.8656 13.0164 21.8073 13.1753C21.749 13.3342 21.6635 13.4786 21.5558 13.6001L-nan -nanL-nan -nanL21.5558 13.6001C21.4484 13.7219 21.3207 13.8186 21.1802 13.8846C21.0396 13.9505 20.889 13.9845 20.7368 13.9845C20.5847 13.9845 20.434 13.9505 20.2935 13.8846C20.1529 13.8186 20.0253 13.7219 19.9178 13.6001L16.8131 10.1202" stroke="#7E7979" stroke-linecap="round" stroke-linejoin="round"/>
<path d="M10.3071 5.64185C11.3315 4.96562 12.4723 4.54624 13.6525 4.41211" stroke="#7E7979" stroke-linecap="round" stroke-linejoin="round"/>
<path d="M10.308 5.63983L6.47681 1.30695C6.39086 1.20964 6.2888 1.13245 6.17646 1.07978C6.06412 1.02711 5.9437 1 5.82208 1C5.70047 1 5.58005 1.02711 5.46771 1.07978C5.35537 1.13245 5.2533 1.20964 5.16736 1.30695L1.27141 5.71832C1.18537 5.81552 1.11711 5.93095 1.07054 6.058C1.02397 6.18506 1 6.32125 1 6.45879C1 6.59632 1.02397 6.73251 1.07054 6.85957C1.11711 6.98662 1.18537 7.10205 1.27141 7.19925L6.21769 12.788" stroke="#7E7979" stroke-linecap="round" stroke-linejoin="round"/>
<path d="M18.692 5.63983L22.5232 1.30695C22.6091 1.20964 22.7112 1.13245 22.8236 1.07978C22.9359 1.02711 23.0563 1 23.1779 1C23.2995 1 23.42 1.02711 23.5323 1.07978C23.6446 1.13245 23.7467 1.20964 23.8326 1.30695L27.7286 5.71309C27.8146 5.81029 27.8829 5.92572 27.9295 6.05277C27.976 6.17983 28 6.31602 28 6.45356C28 6.59109 27.976 6.72728 27.9295 6.85434C27.8829 6.98139 27.8146 7.09682 27.7286 7.19402L20.9778 14.8289" stroke="#7E7979" stroke-linecap="round" stroke-linejoin="round"/>
<path d="M6.52719 16.5077C6.29088 15.6236 6.17084 14.705 6.17091 13.7814C6.17101 13.4493 6.18645 13.1174 6.21718 12.7871" stroke="#7E7979" stroke-linecap="round" stroke-linejoin="round"/>
<path d="M10.3071 5.64185C11.3315 4.96562 12.4723 4.54624 13.6525 4.41211" stroke="#7E7979" stroke-linecap="round" stroke-linejoin="round"/>
</svg>
