<svg width="29" height="29" viewBox="0 0 29 29" fill="none" xmlns="http://www.w3.org/2000/svg">
<path d="M6.39884 9.42773H0.128906V28.8077H6.39884V9.42773Z" fill="#1B80E4"/>
<path d="M23.4769 9.65501C23.4104 9.6341 23.3473 9.61124 23.2774 9.59151C23.1929 9.57224 23.1091 9.55616 23.0231 9.54243C22.6905 9.47533 22.3254 9.42779 21.8981 9.42779C18.243 9.42779 15.9242 12.1007 15.1606 13.1329V9.42773H8.89062V28.8077H15.1606V18.2369C15.1606 18.2369 19.8986 11.6018 21.8981 16.4748V28.8077H28.1664V15.7299C28.1664 12.8015 26.1702 10.3615 23.4769 9.65501Z" fill="#1B80E4"/>
<path d="M6.26224 3.70127C6.26224 5.40433 4.889 6.7845 3.1956 6.7845C1.50209 6.7845 0.128906 5.40427 0.128906 3.70127C0.128906 1.99857 1.50209 0.618164 3.1956 0.618164C4.889 0.618164 6.26224 1.99857 6.26224 3.70127Z" fill="#1B80E4"/>
</svg>
