<svg width="19" height="25" viewBox="0 0 19 25" fill="none" xmlns="http://www.w3.org/2000/svg">
<path d="M17.8667 9.43333C17.8667 7.19667 16.9782 5.05162 15.3966 3.47007C13.815 1.88851 11.67 1 9.43333 1C7.19667 1 5.05162 1.88851 3.47007 3.47007C1.88851 5.05162 1 7.19667 1 9.43333C1 17.1 9.43333 24 9.43333 24C9.43333 24 17.8667 17.1 17.8667 9.43333Z" stroke="#7E7979" stroke-width="2" stroke-linecap="round" stroke-linejoin="round"/>
<path d="M9.43334 13.2663C11.5504 13.2663 13.2667 11.55 13.2667 9.43294C13.2667 7.31585 11.5504 5.59961 9.43334 5.59961C7.31625 5.59961 5.60001 7.31585 5.60001 9.43294C5.60001 11.55 7.31625 13.2663 9.43334 13.2663Z" stroke="#7E7979" stroke-width="2" stroke-linecap="round" stroke-linejoin="round"/>
</svg>
