<svg width="25" height="24" viewBox="0 0 25 24" fill="none" xmlns="http://www.w3.org/2000/svg">
<path d="M20.5322 9.10938H4.46777C2.55257 9.10938 1 10.5165 1 12.2522V19.8579C1 21.5937 2.55257 23.0008 4.46777 23.0008H20.5322C22.4474 23.0008 24 21.5937 24 19.8579V12.2522C24 10.5165 22.4474 9.10938 20.5322 9.10938Z" stroke="#7E7979" stroke-width="2" stroke-linecap="round" stroke-linejoin="round"/>
<path d="M12.496 1C14.2756 1 15.9824 1.64072 17.2408 2.78121C18.4991 3.9217 19.2061 5.46853 19.2061 7.08143V9.10857H5.78583V7.08143C5.78583 5.46853 6.49279 3.9217 7.75118 2.78121C9.00958 1.64072 10.7163 1 12.496 1V1Z" stroke="#7E7979" stroke-width="2" stroke-linecap="round" stroke-linejoin="round"/>
<path d="M14.0533 14.3179C14.0533 14.9554 13.4509 15.6357 12.4958 15.6357C11.5408 15.6357 10.9384 14.9554 10.9384 14.3179C10.9384 13.6803 11.5408 13 12.4958 13C13.4509 13 14.0533 13.6803 14.0533 14.3179Z" fill="#7E7979" stroke="#7E7979" stroke-width="2"/>
<path d="M12.4961 17.79V13.1543" stroke="#7E7979" stroke-width="2" stroke-linecap="round" stroke-linejoin="round"/>
</svg>
