<svg width="20" height="23" viewBox="0 0 20 23" fill="none" xmlns="http://www.w3.org/2000/svg">
<path d="M17.7778 0H2.22222C1.63285 0 1.06762 0.173086 0.650874 0.481182C0.234127 0.789277 0 1.20714 0 1.64286V21.3571C0 21.7929 0.234127 22.2107 0.650874 22.5188C1.06762 22.8269 1.63285 23 2.22222 23H17.7778C18.3671 23 18.9324 22.8269 19.3491 22.5188C19.7659 22.2107 20 21.7929 20 21.3571V1.64286C20 1.20714 19.7659 0.789277 19.3491 0.481182C18.9324 0.173086 18.3671 0 17.7778 0ZM2.22222 1.64286H17.7778V16.4286H2.22222V1.64286ZM2.22222 21.3571V18.0714H17.7778V21.3571H2.22222Z" fill="#7E7979" fill-opacity="0.88"/>
</svg>
