<svg width="13" height="29" viewBox="0 0 13 29" fill="none" xmlns="http://www.w3.org/2000/svg">
<mask id="path-1-inside-1_367_1314" fill="white">
<path d="M8.47544 27.1181C7.63803 27.9556 6.55637 28.4092 5.37003 28.4092C4.1837 28.4092 3.10204 27.9556 2.26463 27.1181C1.42721 26.2807 0.973608 25.1991 0.973608 24.0127L0.97361 6.28747C0.973609 3.07738 3.62542 0.425576 6.8355 0.425576C8.37076 0.425575 9.87113 1.01874 10.9877 2.13529C12.1042 3.25185 12.6974 4.68244 12.6974 6.28748V19.5465L11.3017 19.5465L11.3017 6.28748C11.3017 3.84502 9.27796 1.82127 6.8355 1.82127C4.39305 1.82127 2.3693 3.84501 2.3693 6.28747L2.3693 24.0127C2.33441 24.8152 2.68333 25.5829 3.24161 26.1412C3.79988 26.6994 4.56751 27.0484 5.37003 27.0135C7.04486 27.0135 8.37076 25.6876 8.37076 24.0127L8.37076 10.7537C8.37076 9.91626 7.67292 9.21842 6.83551 9.21842C5.99809 9.21842 5.30025 9.91627 5.30025 10.7537L5.30025 19.6163L3.90456 19.6163L3.90456 10.7537C3.90456 9.14864 5.19557 7.85762 6.80062 7.85762C8.40566 7.85762 9.69667 9.14863 9.69667 10.7537L9.69667 24.0127C9.76645 25.1991 9.31286 26.2807 8.47544 27.1181Z"/>
</mask>
<path d="M0.973608 24.0127L-0.526393 24.0127L-0.526393 24.0127L0.973608 24.0127ZM0.97361 6.28747L2.47361 6.28747L0.97361 6.28747ZM12.6974 6.28748L11.1974 6.28748L12.6974 6.28748ZM12.6974 19.5465L12.6974 21.0465L14.1974 21.0465L14.1974 19.5465L12.6974 19.5465ZM11.3017 19.5465L9.80172 19.5465L9.80172 21.0465L11.3017 21.0465L11.3017 19.5465ZM2.3693 6.28747L3.8693 6.28747L3.8693 6.28747L2.3693 6.28747ZM2.3693 24.0127L3.86788 24.0779L3.8693 24.0453L3.8693 24.0127L2.3693 24.0127ZM5.37003 27.0135L5.37003 25.5135L5.33744 25.5135L5.30488 25.5149L5.37003 27.0135ZM8.37076 24.0127L9.87076 24.0127L8.37076 24.0127ZM8.37076 10.7537H6.87076H8.37076ZM5.30025 10.7537L3.80025 10.7537L3.80025 10.7537L5.30025 10.7537ZM5.30025 19.6163L5.30025 21.1163L6.80026 21.1163L6.80025 19.6163L5.30025 19.6163ZM3.90456 19.6163L2.40456 19.6163L2.40457 21.1163H3.90456V19.6163ZM3.90456 10.7537H2.40456L2.40456 10.7537L3.90456 10.7537ZM9.69667 10.7537L8.19667 10.7537L9.69667 10.7537ZM9.69667 24.0127L8.19667 24.0127L8.19667 24.0568L8.19926 24.1008L9.69667 24.0127ZM7.41478 26.0575C6.85547 26.6168 6.15403 26.9092 5.37003 26.9092L5.37003 29.9092C6.95871 29.9092 8.42059 29.2943 9.5361 28.1788L7.41478 26.0575ZM5.37003 26.9092C4.58604 26.9092 3.88461 26.6168 3.32529 26.0575L1.20397 28.1788C2.31948 29.2943 3.78136 29.9092 5.37003 29.9092L5.37003 26.9092ZM3.32529 26.0575C2.76597 25.4982 2.47361 24.7967 2.47361 24.0127L-0.526393 24.0127C-0.526392 25.6014 0.0884625 27.0633 1.20397 28.1788L3.32529 26.0575ZM2.47361 24.0127L2.47361 6.28747L-0.52639 6.28747L-0.526393 24.0127L2.47361 24.0127ZM2.47361 6.28747C2.47361 3.90581 4.45385 1.92558 6.8355 1.92558L6.8355 -1.07442C2.79699 -1.07442 -0.526391 2.24896 -0.52639 6.28747L2.47361 6.28747ZM6.8355 1.92558C7.98563 1.92558 9.10062 2.36956 9.92702 3.19595L12.0483 1.07463C10.6416 -0.332075 8.75589 -1.07442 6.8355 -1.07442L6.8355 1.92558ZM9.92702 3.19595C10.76 4.02897 11.1974 5.07709 11.1974 6.28748H14.1974C14.1974 4.28778 13.4484 2.47472 12.0483 1.07463L9.92702 3.19595ZM11.1974 6.28748L11.1974 19.5465H14.1974L14.1974 6.28748H11.1974ZM12.6974 18.0465H11.3017L11.3017 21.0465L12.6974 21.0465V18.0465ZM12.8017 19.5465L12.8017 6.28748H9.80172V19.5465L12.8017 19.5465ZM12.8017 6.28748C12.8017 3.0166 10.1064 0.321266 6.8355 0.321265L6.8355 3.32127C8.44953 3.32127 9.80172 4.67345 9.80172 6.28748H12.8017ZM6.8355 0.321265C3.56462 0.321265 0.869299 3.01659 0.869299 6.28747L3.8693 6.28747C3.8693 4.67344 5.22147 3.32127 6.8355 3.32127L6.8355 0.321265ZM0.869299 6.28747L0.869298 24.0127L3.8693 24.0127L3.8693 6.28747L0.869299 6.28747ZM0.870713 23.9476C0.814977 25.2295 1.37014 26.391 2.18095 27.2018L4.30227 25.0805C3.99653 24.7748 3.85383 24.401 3.86788 24.0779L0.870713 23.9476ZM2.18095 27.2018C2.99176 28.0126 4.15326 28.5678 5.43519 28.512L5.30488 25.5149C4.98176 25.5289 4.60801 25.3862 4.30227 25.0805L2.18095 27.2018ZM5.37003 28.5135C7.87329 28.5135 9.87077 26.516 9.87076 24.0127L6.87076 24.0127C6.87076 24.8591 6.21643 25.5135 5.37003 25.5135L5.37003 28.5135ZM9.87076 24.0127L9.87076 10.7537H6.87076V24.0127L9.87076 24.0127ZM9.87076 10.7537C9.87076 9.08784 8.50135 7.71842 6.83551 7.71842L6.83551 10.7184C6.83575 10.7184 6.83554 10.7184 6.83533 10.7184C6.83524 10.7184 6.83605 10.7185 6.8378 10.7193C6.8418 10.721 6.84893 10.7251 6.85651 10.7327C6.86408 10.7403 6.86821 10.7474 6.86992 10.7514C6.87067 10.7531 6.87083 10.754 6.87081 10.7539C6.87076 10.7537 6.87076 10.7534 6.87076 10.7537H9.87076ZM6.83551 7.71842C5.16967 7.71842 3.80025 9.08784 3.80025 10.7537L6.80025 10.7537C6.80025 10.7534 6.80025 10.7537 6.80021 10.7539C6.80019 10.754 6.80034 10.7531 6.80109 10.7514C6.8028 10.7474 6.80693 10.7403 6.81451 10.7327C6.82208 10.7251 6.82922 10.721 6.83322 10.7193C6.83497 10.7185 6.83578 10.7184 6.83569 10.7184C6.83548 10.7184 6.83526 10.7184 6.83551 10.7184L6.83551 7.71842ZM3.80025 10.7537L3.80025 19.6163L6.80025 19.6163L6.80025 10.7537L3.80025 10.7537ZM5.30025 18.1163H3.90456L3.90456 21.1163L5.30025 21.1163L5.30025 18.1163ZM5.40456 19.6163L5.40456 10.7537L2.40456 10.7537L2.40456 19.6163L5.40456 19.6163ZM5.40456 10.7537C5.40456 9.97707 6.024 9.35762 6.80062 9.35762L6.80062 6.35762C4.36715 6.35762 2.40456 8.32021 2.40456 10.7537L5.40456 10.7537ZM6.80062 9.35762C7.57723 9.35762 8.19667 9.97706 8.19667 10.7537H11.1967C11.1967 8.32021 9.23409 6.35762 6.80062 6.35762L6.80062 9.35762ZM8.19667 10.7537V24.0127L11.1967 24.0127L11.1967 10.7537H8.19667ZM8.19926 24.1008C8.24171 24.8225 7.97638 25.4959 7.41478 26.0575L9.5361 28.1788C10.6493 27.0656 11.2912 25.5756 11.1941 23.9246L8.19926 24.1008Z" fill="#7E7979" mask="url(#path-1-inside-1_367_1314)"/>
</svg>
