<svg width="28" height="24" viewBox="0 0 28 24" fill="none" xmlns="http://www.w3.org/2000/svg">
<path d="M26.949 3.94338C26.8158 3.22497 26.4985 2.55341 26.0281 1.99431C25.5577 1.43522 24.9503 1.00772 24.2652 0.753586C20.7874 0.208573 17.2698 -0.0416339 13.7499 0.00563449C10.2157 -0.0320376 6.68423 0.218106 3.19059 0.753586C2.52261 1.02782 1.93238 1.46225 1.472 2.01854C1.01162 2.57484 0.69524 3.23589 0.550767 3.94338C0.18092 6.47099 -0.00289536 9.02235 0.000802776 11.5769C-0.0137707 14.1391 0.1701 16.6986 0.550767 19.2324C0.683137 19.9596 1.0021 20.6399 1.47642 21.2068C1.95074 21.7736 2.56415 22.2076 3.25659 22.4662C6.74472 22.9789 10.2688 23.2069 13.7939 23.1481C17.3263 23.2076 20.8578 22.9796 24.3532 22.4662C25.0157 22.1841 25.5988 21.7437 26.0514 21.1838C26.504 20.6238 26.8122 19.9613 26.949 19.2544C27.3181 16.7267 27.5019 14.1754 27.499 11.6209C27.5255 9.05099 27.3415 6.48325 26.949 3.94338ZM25.8051 19.0564C25.6927 19.5526 25.459 20.0133 25.125 20.3972C24.791 20.781 24.3671 21.0762 23.8912 21.2562C20.5181 21.7338 17.112 21.9397 13.7059 21.8722C10.3144 21.9398 6.92296 21.7339 3.56457 21.2562C3.08351 21.0771 2.65359 20.783 2.31231 20.3996C1.97104 20.0161 1.72879 19.555 1.6067 19.0564C1.23681 16.5805 1.05298 14.0803 1.05673 11.5769C1.06675 9.08693 1.2653 6.60132 1.65069 4.14136C1.74732 3.62023 1.97316 3.13167 2.30753 2.72044C2.6419 2.3092 3.07411 1.98843 3.56457 1.78752C6.93773 1.31001 10.3438 1.10403 13.7499 1.17156C17.1423 1.09964 20.5346 1.31304 23.8912 1.80952C24.3753 1.98351 24.8082 2.27599 25.1502 2.66027C25.4922 3.04454 25.7325 3.50835 25.8491 4.00937C26.2408 6.48283 26.4248 8.98474 26.3991 11.4889C26.41 14.0218 26.2261 16.5517 25.8491 19.0564H25.8051Z" fill="#7E7979"/>
<path d="M22.2635 7.35084H5.23664C5.14142 7.33324 5.0435 7.3368 4.94981 7.36128C4.85613 7.38576 4.76898 7.43056 4.69454 7.49249C4.62011 7.55442 4.56021 7.63198 4.51911 7.71965C4.478 7.80733 4.4567 7.90297 4.4567 7.9998C4.4567 8.09663 4.478 8.19228 4.51911 8.27995C4.56021 8.36762 4.62011 8.44518 4.69454 8.50711C4.76898 8.56905 4.85613 8.61384 4.94981 8.63832C5.0435 8.6628 5.14142 8.66636 5.23664 8.64876H22.2635C22.3587 8.66636 22.4567 8.6628 22.5504 8.63832C22.644 8.61384 22.7312 8.56905 22.8056 8.50711C22.8801 8.44518 22.94 8.36762 22.9811 8.27995C23.0222 8.19228 23.0435 8.09663 23.0435 7.9998C23.0435 7.90297 23.0222 7.80733 22.9811 7.71965C22.94 7.63198 22.8801 7.55442 22.8056 7.49249C22.7312 7.43056 22.644 7.38576 22.5504 7.36128C22.4567 7.3368 22.3587 7.33324 22.2635 7.35084Z" fill="#7E7979"/>
<path d="M10.4283 14.5879H5.43461C5.26133 14.5934 5.09665 14.6647 4.97405 14.7873C4.85146 14.9099 4.78016 15.0746 4.77466 15.2478C4.77466 15.3345 4.79173 15.4203 4.82489 15.5004C4.85806 15.5805 4.90667 15.6532 4.96795 15.7145C5.02924 15.7758 5.10199 15.8244 5.18206 15.8576C5.26213 15.8907 5.34795 15.9078 5.43461 15.9078H10.4283C10.5158 15.9109 10.603 15.8959 10.6844 15.8638C10.7659 15.8318 10.8399 15.7832 10.9018 15.7213C10.9637 15.6594 11.0122 15.5855 11.0443 15.504C11.0763 15.4225 11.0913 15.3353 11.0882 15.2478C11.0882 15.1612 11.0712 15.0754 11.038 14.9953C11.0048 14.9152 10.9562 14.8425 10.8949 14.7812C10.8337 14.7199 10.7609 14.6713 10.6808 14.6381C10.6008 14.605 10.515 14.5879 10.4283 14.5879Z" fill="#7E7979"/>
<path d="M20.3495 12.72C19.9823 12.7245 19.6206 12.8095 19.2899 12.9692C18.9592 13.1289 18.6675 13.3592 18.4356 13.6439C18.162 13.3184 17.8106 13.0671 17.4141 12.9132C17.0176 12.7594 16.5887 12.708 16.1671 12.7639C15.7454 12.8197 15.3447 12.9809 15.0019 13.2326C14.6591 13.4843 14.3852 13.8184 14.2057 14.204C14.0262 14.5895 13.9468 15.0141 13.9748 15.4385C14.0028 15.8629 14.1374 16.2734 14.3661 16.632C14.5947 16.9906 14.9101 17.2857 15.283 17.4902C15.656 17.6946 16.0745 17.8018 16.4998 17.8017C16.873 17.8009 17.2412 17.7154 17.5766 17.5515C17.9119 17.3876 18.2057 17.1497 18.4356 16.8557C18.6633 17.1468 18.9535 17.383 19.2848 17.5467C19.6161 17.7105 19.98 17.7976 20.3495 17.8017C20.703 17.8346 21.0596 17.7934 21.3963 17.6807C21.733 17.5679 22.0424 17.3862 22.3049 17.1471C22.5673 16.9079 22.777 16.6166 22.9205 16.2918C23.0639 15.967 23.138 15.6159 23.138 15.2608C23.138 14.9058 23.0639 14.5546 22.9205 14.2298C22.777 13.905 22.5673 13.6137 22.3049 13.3746C22.0424 13.1354 21.733 12.9537 21.3963 12.841C21.0596 12.7283 20.703 12.6871 20.3495 12.72ZM16.4558 16.5917C16.1037 16.586 15.768 16.442 15.5211 16.191C15.2742 15.94 15.1358 15.6019 15.1358 15.2498C15.1358 14.8998 15.2749 14.564 15.5224 14.3165C15.77 14.069 16.1057 13.9299 16.4558 13.9299C16.8058 13.9299 17.1416 14.069 17.3891 14.3165C17.6366 14.564 17.7757 14.8998 17.7757 15.2498C17.7757 15.6019 17.6374 15.94 17.3904 16.191C17.1435 16.442 16.8078 16.586 16.4558 16.5917ZM20.3055 16.5917C19.9609 16.5863 19.6317 16.4484 19.3859 16.2068C19.1402 15.9652 18.9969 15.6383 18.9856 15.2938C19.0273 14.9703 19.1854 14.673 19.4303 14.4576C19.6753 14.2422 19.9903 14.1234 20.3165 14.1234C20.6427 14.1234 20.9577 14.2422 21.2027 14.4576C21.4476 14.673 21.6057 14.9703 21.6474 15.2938C21.6364 15.6346 21.4961 15.9583 21.2551 16.1994C21.014 16.4405 20.6902 16.5807 20.3495 16.5917H20.3055Z" fill="#7E7979"/>
</svg>
