<svg width="19" height="22" viewBox="0 0 19 22" fill="none" xmlns="http://www.w3.org/2000/svg">
<path fill-rule="evenodd" clip-rule="evenodd" d="M17.3478 21.233H1.65217C0.739761 21.233 0 20.2365 0 19.0075V2.31631C0 1.08728 0.739761 0.0908203 1.65217 0.0908203H17.3478C18.2602 0.0908203 19 1.08728 19 2.31631V19.0075C19 20.2365 18.2602 21.233 17.3478 21.233ZM18.1739 2.31631C18.1739 1.70207 17.8038 1.20356 17.3478 1.20356H1.65217C1.19617 1.20356 0.826087 1.70207 0.826087 2.31631V5.65454H18.1739V2.31631ZM18.1739 6.76729H0.826087V19.0075C0.826087 19.6217 1.19617 20.1202 1.65217 20.1202H17.3478C17.8038 20.1202 18.1739 19.6217 18.1739 19.0075V6.76729ZM16.5217 14.5565H15.6957C15.4677 14.5565 15.2826 14.3078 15.2826 14.0001V12.8874C15.2826 12.5803 15.4677 12.331 15.6957 12.331H16.5217C16.7502 12.331 16.9348 12.5803 16.9348 12.8874V14.0001C16.9348 14.3078 16.7502 14.5565 16.5217 14.5565ZM16.5217 10.6619H15.6957C15.4677 10.6619 15.2826 10.4132 15.2826 10.1055V8.99278C15.2826 8.6851 15.4677 8.4364 15.6957 8.4364H16.5217C16.7502 8.4364 16.9348 8.6851 16.9348 8.99278V10.1055C16.9348 10.4132 16.7502 10.6619 16.5217 10.6619ZM13.2174 14.5565H12.3913C12.1633 14.5565 11.9783 14.3078 11.9783 14.0001V12.8874C11.9783 12.5803 12.1633 12.331 12.3913 12.331H13.2174C13.4458 12.331 13.6304 12.5803 13.6304 12.8874V14.0001C13.6304 14.3078 13.4458 14.5565 13.2174 14.5565ZM13.2174 10.6619H12.3913C12.1633 10.6619 11.9783 10.4132 11.9783 10.1055V8.99278C11.9783 8.6851 12.1633 8.4364 12.3913 8.4364H13.2174C13.4458 8.4364 13.6304 8.6851 13.6304 8.99278V10.1055C13.6304 10.4132 13.4458 10.6619 13.2174 10.6619ZM9.91304 14.5565H9.08696C8.85854 14.5565 8.67391 14.3078 8.67391 14.0001V12.8874C8.67391 12.5803 8.85854 12.331 9.08696 12.331H9.91304C10.1415 12.331 10.3261 12.5803 10.3261 12.8874V14.0001C10.3261 14.3078 10.1415 14.5565 9.91304 14.5565ZM9.91304 10.6619H9.08696C8.85854 10.6619 8.67391 10.4132 8.67391 10.1055V8.99278C8.67391 8.6851 8.85854 8.4364 9.08696 8.4364H9.91304C10.1415 8.4364 10.3261 8.6851 10.3261 8.99278V10.1055C10.3261 10.4132 10.1415 10.6619 9.91304 10.6619ZM6.6087 18.4511H5.78261C5.5542 18.4511 5.36957 18.2024 5.36957 17.8947V16.782C5.36957 16.4743 5.5542 16.2256 5.78261 16.2256H6.6087C6.83711 16.2256 7.02174 16.4743 7.02174 16.782V17.8947C7.02174 18.2024 6.83711 18.4511 6.6087 18.4511ZM6.6087 14.5565H5.78261C5.5542 14.5565 5.36957 14.3078 5.36957 14.0001V12.8874C5.36957 12.5803 5.5542 12.331 5.78261 12.331H6.6087C6.83711 12.331 7.02174 12.5803 7.02174 12.8874V14.0001C7.02174 14.3078 6.83711 14.5565 6.6087 14.5565ZM6.6087 10.6619H5.78261C5.5542 10.6619 5.36957 10.4132 5.36957 10.1055V8.99278C5.36957 8.6851 5.5542 8.4364 5.78261 8.4364H6.6087C6.83711 8.4364 7.02174 8.6851 7.02174 8.99278V10.1055C7.02174 10.4132 6.83711 10.6619 6.6087 10.6619ZM3.30435 18.4511H2.47826C2.24985 18.4511 2.06522 18.2024 2.06522 17.8947V16.782C2.06522 16.4743 2.24985 16.2256 2.47826 16.2256H3.30435C3.53276 16.2256 3.71739 16.4743 3.71739 16.782V17.8947C3.71739 18.2024 3.53276 18.4511 3.30435 18.4511ZM3.30435 14.5565H2.47826C2.24985 14.5565 2.06522 14.3078 2.06522 14.0001V12.8874C2.06522 12.5803 2.24985 12.331 2.47826 12.331H3.30435C3.53276 12.331 3.71739 12.5803 3.71739 12.8874V14.0001C3.71739 14.3078 3.53276 14.5565 3.30435 14.5565ZM9.08696 16.2256H9.91304C10.1415 16.2256 10.3261 16.4743 10.3261 16.782V17.8947C10.3261 18.2024 10.1415 18.4511 9.91304 18.4511H9.08696C8.85854 18.4511 8.67391 18.2024 8.67391 17.8947V16.782C8.67391 16.4743 8.85854 16.2256 9.08696 16.2256Z" fill="#3F3D56"/>
</svg>
