<svg width="19" height="24" viewBox="0 0 19 24" fill="none" xmlns="http://www.w3.org/2000/svg">
<path d="M15.1995 9.06057C17.2984 9.06057 18.9999 11.2757 18.9999 14.0079C18.9999 15.2633 18.6407 16.4094 18.049 17.2816L18.0489 22.9714C18.0489 23.6772 17.4747 24.1083 17.0134 23.7986L16.9284 23.7317L15.1992 22.1583L13.4706 23.7317C13.0262 24.1359 12.4258 23.7701 12.3567 23.1003L12.3502 22.9714L12.3492 17.2804C11.758 16.4083 11.3992 15.2627 11.3992 14.0079C11.3992 11.2757 13.1006 9.06057 15.1995 9.06057ZM16.6233 18.5966C16.1835 18.8279 15.703 18.9554 15.1995 18.9554C14.6954 18.9554 14.2141 18.8276 13.7739 18.5956L13.7743 21.1912L14.7915 20.2673C15.0059 20.0723 15.2823 20.0479 15.5122 20.1942L15.6076 20.2673L16.6232 21.1912L16.6233 18.5966ZM16.3864 0.40918C17.7756 0.40918 18.9117 1.82107 18.9939 3.60281L18.9987 3.80999L19 10.2974C18.6159 9.63178 18.1311 9.07034 17.575 8.65145L17.5738 3.80999C17.5738 3.00961 17.1065 2.3513 16.5078 2.27214L16.3864 2.26417H2.61232C1.99751 2.26417 1.49184 2.87244 1.43103 3.65193L1.4249 3.80999V15.5582C1.4249 16.3586 1.89214 17.0169 2.49091 17.0961L2.61232 17.104L11.0872 17.1055L11.2049 17.3559L11.3319 17.5992L11.3992 17.7147L11.3983 18.959H2.61232C1.22301 18.959 0.0870138 17.5471 0.00476857 15.7654L0 15.5582V3.80999C0 2.00133 1.08454 0.522445 2.45318 0.415375L2.61232 0.40918H16.3864ZM15.1995 10.9156C13.8876 10.9156 12.8241 12.3001 12.8241 14.0079C12.8241 15.7159 13.8876 17.1005 15.1995 17.1005C16.5115 17.1005 17.575 15.7159 17.575 14.0079C17.575 12.3001 16.5115 10.9156 15.1995 10.9156ZM8.78689 12.1522C9.18035 12.1522 9.49934 12.5675 9.49934 13.0797C9.49934 13.5493 9.23126 13.9373 8.88359 13.9988L8.78689 14.0072H4.51218C4.11871 14.0072 3.79973 13.5919 3.79973 13.0797C3.79973 12.6101 4.06776 12.2221 4.41551 12.1606L4.51218 12.1522H8.78689ZM14.4865 5.3506C14.8799 5.3506 15.1989 5.76586 15.1989 6.27809C15.1989 6.74765 14.9309 7.1357 14.5832 7.19713L14.4865 7.20559H4.51218C4.11871 7.20559 3.79973 6.79034 3.79973 6.27809C3.79973 5.80855 4.06776 5.42048 4.41551 5.35907L4.51218 5.3506H14.4865Z" fill="#3F3D56"/>
</svg>
