<svg width="19" height="21" viewBox="0 0 19 21" fill="none" xmlns="http://www.w3.org/2000/svg">
<path d="M18.6789 4.25947H18.6619C18.336 4.26229 18.2855 3.87893 18.2798 3.70094V0.917145C18.2798 0.619959 18.102 0.37915 17.8832 0.37915H12.0061C10.5315 0.37915 9.98141 1.1193 9.84492 1.35165L9.80746 1.42212L9.80716 1.42333L9.6909 1.63917C9.6906 1.63917 9.6906 1.63917 9.6906 1.63917C9.53449 1.92951 9.3986 1.80588 9.33319 1.71085L9.11077 1.33514L9.00075 1.15554C8.8158 0.892581 8.3338 0.37915 7.37842 0.37915H1.11714C0.897696 0.37915 0.719882 0.619959 0.719882 0.917145V3.66551C0.719882 4.14672 0.526902 4.24337 0.408557 4.25947H0.320542C0.224201 4.26753 0 4.34323 0 4.90177V18.0009C0 18.3222 0.192385 18.5824 0.429669 18.5824H6.14412C7.96717 18.5824 8.76168 19.5134 8.99986 19.8706L9.13575 20.0985H9.13604C9.13604 20.0985 9.50059 20.657 9.88477 20.0985L9.96446 19.972V19.9725L9.96565 19.9712L10.0673 19.8102C10.0703 19.8053 10.0947 19.7683 10.1301 19.7192C10.4343 19.3185 11.1946 18.5824 12.6813 18.5824H18.5703C18.8079 18.5824 19 18.3222 19 18.0009V4.77492C19 4.30135 18.747 4.26189 18.6789 4.25947ZM17.3949 15.9455C17.3949 16.2037 17.2358 16.4119 17.0378 16.4119H12.1925C10.4682 16.4119 9.84225 17.4669 9.84225 17.4669L9.76286 17.6111L9.72569 17.6807C9.72539 17.6807 9.72539 17.6807 9.72539 17.6807C9.56096 17.9832 9.31921 17.6832 9.31802 17.6815L9.20652 17.4927C9.12385 17.3582 8.4905 16.4115 6.95767 16.4115H1.96221C1.76506 16.4115 1.60568 16.2029 1.60568 15.9451V1.98709C1.60568 1.72937 1.76506 1.52078 1.96221 1.52078H5.84053C8.72541 1.52078 8.99867 3.74 9.0174 4.38471V14.092C9.0174 14.7975 9.26569 14.93 9.40574 14.9493H9.61418C9.75691 14.93 9.98379 14.8152 9.98379 14.2647V4.25947H9.98141C10.0028 3.45208 10.2353 1.52037 11.9704 1.52037H17.0378C17.2358 1.52037 17.3949 1.72897 17.3949 1.98669V15.9455Z" fill="#3F3D56"/>
</svg>
