<svg width="20" height="23" viewBox="0 0 20 23" fill="none" xmlns="http://www.w3.org/2000/svg">
<path d="M4.33392 18.8511C4.44157 18.8428 4.54922 18.8326 4.65686 18.8225C4.88016 18.8016 5.11095 18.7799 5.33655 18.7777C5.8526 18.7722 6.37786 18.7818 6.88576 18.7908L7.27679 18.7975C7.31041 18.7999 7.34369 18.8063 7.37604 18.8168C7.20609 19.4654 6.93457 20.0745 6.57423 20.6158C6.39679 20.8883 6.22584 20.9848 5.98321 20.9491C5.81978 20.9282 5.6544 20.9386 5.49399 20.9794C5.39952 20.9996 5.31349 21.0539 5.24899 21.1341C5.18451 21.2144 5.14511 21.3161 5.13679 21.4239C5.12223 21.5623 5.15637 21.7554 5.40197 21.888C5.51003 21.95 5.62635 21.9918 5.74635 22.0117C5.83893 22.0245 5.93152 22.038 6.02412 22.0515C6.37309 22.1025 6.73392 22.1551 7.09194 22.17C7.61531 22.1918 8.14732 22.1979 8.6618 22.2037C8.96938 22.2071 9.27686 22.2107 9.58427 22.2173C9.6609 22.2222 9.73695 22.2353 9.81136 22.2561C9.84988 22.2654 9.8884 22.2746 9.92657 22.2823C9.93136 22.2832 9.93613 22.2837 9.94098 22.2837H11.9691C11.9766 22.2837 11.984 22.2826 11.9912 22.2803C12.0168 22.2725 12.0424 22.263 12.0678 22.2534C12.1106 22.2345 12.1555 22.222 12.2011 22.2165C12.3178 22.2111 12.4376 22.2107 12.5534 22.2101C12.7618 22.2134 12.9702 22.2037 13.1775 22.181C13.4374 22.1535 13.6911 22.0746 13.9265 21.9477C13.9989 21.9139 14.0618 21.8583 14.1083 21.7871C14.1546 21.7159 14.1828 21.6317 14.1899 21.5437C14.1871 21.4539 14.1626 21.3665 14.119 21.2911C14.0752 21.2156 14.0141 21.1552 13.9421 21.1161C13.7979 21.0289 13.6404 20.9729 13.4779 20.951C13.3678 20.9358 13.2565 20.9324 13.1458 20.9406C13.1182 20.9417 13.0903 20.9427 13.0626 20.9434C12.9845 20.7112 12.896 20.4863 12.8101 20.2683C12.6383 19.832 12.4754 19.4182 12.3887 18.9494H12.7447C13.1233 18.9494 13.4835 18.9486 13.8439 18.9516C13.9363 18.9524 14.0317 18.9617 14.1237 18.9702C14.1832 18.9759 14.2427 18.9816 14.3023 18.9853C14.3836 18.9904 14.465 18.9976 14.5464 19.0047C14.7473 19.0272 14.9492 19.035 15.1511 19.0279C15.5965 19.0008 16.0407 18.9415 16.4544 18.8813C16.8785 18.8197 17.3652 18.7308 17.7741 18.4545C19.239 17.4636 19.9623 16.0488 19.9226 14.2491C19.8984 13.1483 19.895 12.0281 19.8917 10.9447L19.8901 10.4169C19.8885 9.97539 19.8928 9.52609 19.8969 9.09144C19.9052 8.24006 19.9135 7.35977 19.8785 6.49443C19.8306 5.48507 19.7245 4.48031 19.5606 3.48649C19.3865 2.37389 18.9823 1.56243 18.3251 1.00562C17.5002 0.29008 16.4688 -0.0559602 15.4303 0.0343599C14.4993 0.106589 13.6469 0.154724 12.8242 0.181671C11.9798 0.209451 11.1205 0.205765 10.2892 0.202153C9.07218 0.197152 7.81374 0.191767 6.57522 0.283811C6.06123 0.322055 5.53621 0.335107 5.02847 0.347701C4.56823 0.359276 4.09235 0.371039 3.62445 0.401596C2.72511 0.460212 1.95103 0.783223 1.32361 1.36151C0.999526 1.64789 0.729065 2.00366 0.527849 2.40828C0.32663 2.81291 0.198636 3.25836 0.151269 3.71894C0.0932337 4.36298 0.0666097 5.01012 0.071516 5.65744L0.0710236 5.71152C0.0687198 5.97617 0.0846894 6.24338 0.100079 6.50192C0.112425 6.70769 0.124772 6.92049 0.128311 7.12875C0.156459 8.97611 0.181562 10.9305 0.20724 13.2792C0.206441 13.3859 0.199872 13.4925 0.187569 13.5984C0.17472 13.7104 0.167772 13.8231 0.166751 13.9361C0.168232 14.1101 0.176873 14.2858 0.185268 14.4558C0.195144 14.6565 0.205427 14.8641 0.203453 15.0669C0.196292 15.8082 0.415221 16.5222 0.854235 17.1891C1.65588 18.405 2.82675 18.9654 4.33392 18.8511ZM18.8218 10.6679L18.8223 11.6367C18.8231 12.602 18.824 13.5999 18.8178 14.5815C18.8144 14.7921 18.7847 15.0012 18.7301 15.2028C18.5982 15.7064 18.3793 16.1758 18.0861 16.5842C17.6404 17.2032 17.0297 17.5729 16.2188 17.7145C15.7675 17.7932 15.2913 17.8522 14.7626 17.8947C14.6209 17.9008 14.479 17.8929 14.3387 17.8711C14.247 17.8602 14.1522 17.8488 14.0579 17.8447C13.6995 17.8291 13.3409 17.8174 12.9825 17.8057C12.2983 17.7834 11.5909 17.7604 10.8974 17.7095C9.89004 17.6355 8.87176 17.6168 7.86493 17.6168C7.36114 17.6168 6.86008 17.6217 6.36476 17.6261C5.62107 17.633 4.85209 17.6399 4.0963 17.6312C3.53992 17.6248 3.0958 17.5257 2.69852 17.319C2.40602 17.1725 2.14307 16.9606 1.92568 16.696C1.7083 16.4315 1.541 16.12 1.43399 15.7805C1.21604 15.1179 1.1423 14.5118 1.20856 13.9274C1.22443 13.7559 1.22976 13.5835 1.22452 13.4111C1.22403 13.3584 1.22345 13.3057 1.22354 13.2532C1.22431 12.8237 1.2254 12.3942 1.22684 11.9646C1.2303 10.819 1.23383 9.63434 1.22633 8.46896C1.22337 8.013 1.20922 7.55028 1.19556 7.10265C1.17909 6.57482 1.16263 6.02933 1.16436 5.49363C1.16126 4.70424 1.31662 3.92425 1.61884 3.21185C1.93835 2.46808 2.51597 2.00324 3.33686 1.83045C3.81942 1.72859 4.29909 1.67395 4.7047 1.63366C6.4726 1.45855 8.2767 1.4417 10.0209 1.42539C10.4118 1.42175 10.8026 1.41751 11.1934 1.41269C11.7481 1.4051 12.3029 1.39828 12.8575 1.39217C13.7373 1.38189 14.6469 1.37132 15.5417 1.35622C16.1666 1.34363 16.7794 1.56549 17.472 2.04774C17.8692 2.32426 18.1469 2.78105 18.2974 3.40528C18.4178 3.90532 18.505 4.42564 18.5892 4.9293L18.6339 5.19552C18.6899 5.52611 18.7379 5.89004 18.7804 6.3084C18.8064 6.57128 18.8192 6.83554 18.8188 7.10003C18.8218 7.96905 18.8225 8.83822 18.8209 9.70749V10.6513C18.8208 10.6567 18.8211 10.6622 18.8218 10.6677V10.6679ZM7.92732 20.7241C8.03937 20.4721 8.13705 20.2122 8.21975 19.9463C8.29094 19.6806 8.34626 19.4101 8.38551 19.1364C8.40123 19.04 8.41719 18.9428 8.43489 18.8448L11.2854 18.9004C11.3328 19.6513 11.5399 20.315 11.7684 20.9228H7.84428C7.87145 20.8567 7.89942 20.7904 7.92732 20.7241Z" fill="#177FB0"/>
</svg>
