<svg width="19" height="23" viewBox="0 0 19 23" fill="none" xmlns="http://www.w3.org/2000/svg">
<path d="M2.375 17.0327C1.90527 17.0327 1.44609 17.1963 1.05552 17.5028C0.664955 17.8094 0.360545 18.245 0.180787 18.7548C0.00102905 19.2645 -0.0460039 19.8254 0.045636 20.3665C0.137276 20.9077 0.363473 21.4047 0.695623 21.7948C1.02777 22.185 1.45096 22.4507 1.91166 22.5583C2.37237 22.6659 2.8499 22.6107 3.28387 22.3995C3.71785 22.1884 4.08877 21.8309 4.34974 21.3721C4.61071 20.9134 4.75 20.374 4.75 19.8223C4.74938 19.0827 4.49896 18.3736 4.05369 17.8506C3.60843 17.3276 3.0047 17.0334 2.375 17.0327Z" fill="#3F3D56"/>
<path d="M2.375 8.66406C2.06006 8.66406 1.75801 8.81101 1.53531 9.07259C1.31261 9.33416 1.1875 9.68893 1.1875 10.0589C1.1875 10.4288 1.31261 10.7836 1.53531 11.0451C1.75801 11.3067 2.06006 11.4537 2.375 11.4537C4.26404 11.4561 6.07511 12.3386 7.41086 13.9075C8.74661 15.4764 9.49794 17.6036 9.5 19.8224C9.5 20.1923 9.62511 20.5471 9.84781 20.8087C10.0705 21.0703 10.3726 21.2172 10.6875 21.2172C11.0024 21.2172 11.3045 21.0703 11.5272 20.8087C11.7499 20.5471 11.875 20.1923 11.875 19.8224C11.8723 16.864 10.8706 14.0277 9.08955 11.9357C7.30854 9.84383 4.89373 8.66721 2.375 8.66406Z" fill="#3F3D56"/>
<path d="M2.375 0.29541C2.06006 0.29541 1.75801 0.442361 1.53531 0.703936C1.31261 0.965511 1.1875 1.32028 1.1875 1.6902C1.1875 2.06013 1.31261 2.4149 1.53531 2.67647C1.75801 2.93805 2.06006 3.085 2.375 3.085C6.15307 3.08985 9.77521 4.85482 12.4467 7.99266C15.1182 11.1305 16.6209 15.385 16.625 19.8225C16.625 20.1925 16.7501 20.5472 16.9728 20.8088C17.1955 21.0704 17.4976 21.2173 17.8125 21.2173C18.1274 21.2173 18.4295 21.0704 18.6522 20.8088C18.8749 20.5472 19 20.1925 19 19.8225C18.9949 14.6455 17.2417 9.68218 14.125 6.02144C11.0083 2.3607 6.78265 0.301446 2.375 0.29541V0.29541Z" fill="#3F3D56"/>
</svg>
