<svg width="20" height="24" viewBox="0 0 20 24" fill="none" xmlns="http://www.w3.org/2000/svg">
<path d="M20 11.8291C20 10.1772 18.9779 8.7996 17.6379 8.52357L17.39 7.82303C18.1721 6.51423 18.065 4.69282 17.0707 3.52413C16.1093 2.39487 14.5 2.24805 13.41 3.14827L12.8136 2.85798C12.5786 1.28407 11.4064 0.0834961 10 0.0834961C8.59357 0.0834961 7.42071 1.28407 7.18571 2.85798L6.58929 3.14827C5.47643 2.23127 3.92429 2.35544 2.92929 3.52413C2.38929 4.15755 2.09214 5.00072 2.09214 5.89759C2.09214 6.59645 2.27286 7.26344 2.60929 7.82387L2.36214 8.52357C1.02143 8.7996 0 10.1772 0 11.8291C0 13.4819 1.02214 14.8587 2.36214 15.1347L2.60929 15.8344C1.82786 17.144 1.93429 18.9654 2.92929 20.1341C3.88929 21.2626 5.50143 21.4102 6.59 20.51L7.18643 20.8003C7.42143 22.3742 8.59429 23.5748 10.0007 23.5748C11.4079 23.5748 12.58 22.3742 12.8143 20.8003L13.4107 20.5092C14.5243 21.4278 16.075 21.3037 17.0714 20.1341C17.6114 19.4999 17.9086 18.6575 17.9086 17.7607C17.9086 17.0618 17.7271 16.3948 17.3914 15.8344L17.6386 15.1347C18.9779 14.8595 20 13.4827 20 11.8291C20 11.83 20 11.83 20 11.8291ZM17.1429 13.5088C16.8543 13.5088 16.5936 13.7126 16.4829 14.0264L15.9057 15.6607C15.795 15.9745 15.8564 16.3353 16.0607 16.5752C16.3307 16.8923 16.4793 17.3135 16.4793 17.7615C16.4793 18.2104 16.3307 18.6315 16.0607 18.9487C15.5036 19.6031 14.5957 19.6014 14.04 18.9487C13.8357 18.7087 13.5286 18.6366 13.2614 18.7666L11.8693 19.4445C11.6021 19.5745 11.4286 19.8808 11.4286 20.2197C11.4286 21.1451 10.7879 21.8977 10 21.8977C9.21214 21.8977 8.57143 21.1451 8.57143 20.2197C8.57143 19.8808 8.39714 19.5737 8.13071 19.4445L6.73786 18.7666C6.47 18.6366 6.16429 18.7087 5.95929 18.9487C5.41929 19.5829 4.47929 19.5829 3.93929 18.9487C3.38214 18.2943 3.38214 17.2296 3.93929 16.5752C4.14357 16.3353 4.205 15.9745 4.09429 15.6607L3.51714 14.0264C3.40643 13.7126 3.14571 13.5088 2.85714 13.5088C2.06929 13.5088 1.42857 12.7562 1.42857 11.83C1.42857 10.9046 2.06929 10.152 2.85714 10.152C3.14571 10.152 3.40643 9.94731 3.51714 9.63438L4.09429 7.99838C4.205 7.6846 4.14357 7.32384 3.93929 7.0839C3.66929 6.76676 3.52071 6.3456 3.52071 5.89759C3.52071 5.44957 3.66929 5.02757 3.93929 4.71044C4.49643 4.05604 5.40286 4.05604 5.96 4.71044C6.16429 4.95038 6.47143 5.02086 6.73857 4.8925L8.13071 4.2146C8.39714 4.08456 8.57143 3.77834 8.57143 3.43939C8.57143 2.514 9.21214 1.76144 10 1.76144C10.7879 1.76144 11.4286 2.514 11.4286 3.43939C11.4286 3.77834 11.6029 4.08456 11.8693 4.2146L13.2621 4.8925C13.5293 5.0217 13.8364 4.95122 14.0407 4.71044C14.5807 4.07617 15.5207 4.07617 16.0607 4.71044C16.6171 5.36484 16.6171 6.4295 16.0607 7.0839C15.8564 7.32384 15.795 7.6846 15.9057 7.99838L16.4829 9.63438C16.5929 9.94647 16.8543 10.1512 17.1429 10.1512C17.9307 10.1512 18.5714 10.9037 18.5714 11.8291C18.5714 12.7554 17.9307 13.5088 17.1429 13.5088Z" fill="#3F3D56"/>
</svg>
