<svg width="21" height="21" viewBox="0 0 21 21" fill="none" xmlns="http://www.w3.org/2000/svg">
<path fill-rule="evenodd" clip-rule="evenodd" d="M20.25 8.04074C20.664 8.04074 21 7.59347 21 7.04236V3.04885C21 1.39453 19.9928 0.0537109 18.75 0.0537109H2.25C1.00725 0.0537109 0 1.39453 0 3.04885V7.04236C0 7.59347 0.336 8.04074 0.75 8.04074C1.578 8.04074 2.25 8.93529 2.25 10.0375C2.25 11.1397 1.578 12.0343 0.75 12.0343C0.336 12.0343 0 12.4815 0 13.0326V17.0262C0 18.6805 1.00725 20.0213 2.25 20.0213H18.75C19.9928 20.0213 21 18.6805 21 17.0262V13.0326C20.9925 12.4456 20.721 12.1371 20.25 12.0343C19.422 12.0343 18.75 11.1397 18.75 10.0375C18.75 8.93529 19.422 8.04074 20.25 8.04074ZM15 2.05047V4.04723C15 4.59833 14.664 5.04561 14.25 5.04561C13.836 5.04561 13.5 4.59833 13.5 4.04723V2.05047H2.25C1.836 2.05047 1.5 2.49774 1.5 3.04885V6.16979C2.793 6.61407 3.75 8.17752 3.75 10.0375C3.75 11.8975 2.793 13.4609 1.5 13.9052V17.0262C1.5 17.5773 1.836 18.0245 2.25 18.0245H13.5V16.0278C13.5 15.4767 13.836 15.0294 14.25 15.0294C14.664 15.0294 15 15.4767 15 16.0278V18.0245H18.75C19.164 18.0245 19.5 17.5773 19.5 17.0262V13.9052C18.207 13.4609 17.25 11.8965 17.25 10.0375C17.25 8.17752 18.207 6.61407 19.5 6.16979V3.04885C19.5 2.49774 19.164 2.05047 18.75 2.05047H15ZM13.5 8.04074V12.0343C13.5 12.5854 13.836 13.0326 14.25 13.0326C14.664 13.0326 15 12.5854 15 12.0343V8.04074C15 7.48964 14.664 7.04236 14.25 7.04236C13.836 7.04236 13.5 7.48964 13.5 8.04074Z" fill="#3F3D56"/>
</svg>
