<svg width="29" height="26" viewBox="0 0 29 26" fill="none" xmlns="http://www.w3.org/2000/svg">
<path d="M9.87332 2.74572L9.87333 2.74572L9.87392 2.74397C9.90932 2.63909 9.97239 2.57904 10.0589 2.54094C10.1523 2.49978 10.2765 2.48333 10.427 2.48333H18.573C18.8636 2.48333 19.0568 2.57652 19.126 2.78244L19.1266 2.78428L20.2574 6.01083C20.2575 6.01108 20.2576 6.01134 20.2577 6.01159C20.322 6.20071 20.4476 6.32335 20.6036 6.39486C20.7538 6.4637 20.9276 6.48333 21.0948 6.48333H24.7587C25.3123 6.48333 25.7425 6.73869 26.0386 7.13642C26.3374 7.53763 26.5 8.08566 26.5 8.65733V21.684C26.5 22.2551 26.3383 22.7107 26.049 23.0223C25.7612 23.3322 25.3312 23.5167 24.7587 23.5167H4.24135C3.66883 23.5167 3.23883 23.3322 2.95098 23.0223C2.66168 22.7107 2.5 22.2551 2.5 21.684V8.65733C2.5 8.08566 2.66263 7.53763 2.96137 7.13642C3.25753 6.73869 3.68765 6.48333 4.24135 6.48333H7.90525C8.25438 6.48333 8.6131 6.3447 8.74228 5.96497C8.74238 5.9647 8.74247 5.96443 8.74256 5.96416L9.87332 2.74572ZM24.7587 4.85H21.7281L20.8008 2.26537C20.8007 2.26493 20.8005 2.26448 20.8004 2.26404C20.4733 1.2971 19.5621 0.85 18.573 0.85H10.427C9.43794 0.85 8.5267 1.29708 8.19965 2.26397L7.27185 4.85H4.24135C3.18667 4.85 2.33445 5.2857 1.74841 5.98426C1.16444 6.68035 0.85 7.63046 0.85 8.65733V21.684C0.85 22.7119 1.16526 23.581 1.75525 24.194C2.34595 24.8078 3.19782 25.15 4.24135 25.15H24.7573C25.8015 25.15 26.6537 24.8078 27.2446 24.194C27.8347 23.581 28.15 22.7119 28.15 21.684V8.65733C28.15 7.63046 27.8356 6.68035 27.2516 5.98426C26.6655 5.2857 25.8133 4.85 24.7587 4.85Z" fill="#7E7979" stroke="#7E7979" stroke-width="0.3"/>
<path d="M14.328 6.85098C10.261 6.85098 6.94375 10.0505 6.94375 13.9941C6.94375 17.9377 10.261 21.1358 14.328 21.1358C18.3949 21.1358 21.7122 17.9363 21.7122 13.9928C21.7122 10.0491 18.3949 6.85098 14.328 6.85098ZM14.328 19.438C11.2153 19.438 8.69113 16.9907 8.69113 13.9941C8.69113 10.9973 11.2154 8.54882 14.328 8.54882C17.4406 8.54882 19.9648 10.9961 19.9648 13.9928C19.9648 16.9895 17.4405 19.438 14.328 19.438Z" fill="#7E7979" stroke="#7E7979" stroke-width="0.3"/>
</svg>
