<svg width="68" height="46" viewBox="0 0 68 46" fill="none" xmlns="http://www.w3.org/2000/svg">
<path fill-rule="evenodd" clip-rule="evenodd" d="M62.087 46H5.91304C2.64757 46 0 43.5769 0 40.5882V5.41176C0 2.42312 2.64757 0 5.91304 0H62.087C65.3524 0 68 2.42312 68 5.41176V40.5882C68 43.5769 65.3524 46 62.087 46ZM65.0435 5.41176C65.0435 3.91812 63.719 2.70588 62.087 2.70588H5.91304C4.28104 2.70588 2.95652 3.91812 2.95652 5.41176V40.5882C2.95652 42.0819 4.28104 43.2941 5.91304 43.2941H62.087C63.719 43.2941 65.0435 42.0819 65.0435 40.5882V5.41176ZM59.6242 37.4968L50.2609 28.9272L44.911 33.8235L49.8396 38.3342C50.4028 38.8497 50.4028 39.6858 49.8396 40.2026C49.2749 40.7181 48.3613 40.7181 47.7981 40.2026L26.6087 20.8096L8.37583 37.4968C7.81261 38.0122 6.89904 38.0122 6.33435 37.4968C5.77113 36.9799 5.77113 36.1438 6.33435 35.6284L25.4113 18.1686C25.4586 18.1037 25.4897 18.032 25.5517 17.9738C25.843 17.7073 26.2273 17.5855 26.6087 17.5936C26.9901 17.5855 27.3744 17.7073 27.6657 17.9738C27.7277 18.032 27.7573 18.1037 27.8061 18.1686L42.8696 31.9551L49.0635 26.2863C49.1123 26.2227 49.1418 26.1496 49.2039 26.0915C49.4951 25.8263 49.8795 25.7032 50.2609 25.7113C50.6423 25.7032 51.0266 25.8263 51.3178 26.0915C51.3799 26.1496 51.4095 26.2227 51.4583 26.2863L61.6657 35.6284C62.2289 36.1438 62.2289 36.9799 61.6657 37.4968C61.101 38.0122 60.1874 38.0122 59.6242 37.4968ZM41.3913 16.2353C38.1258 16.2353 35.4783 13.8122 35.4783 10.8235C35.4783 7.83488 38.1258 5.41176 41.3913 5.41176C44.6568 5.41176 47.3043 7.83488 47.3043 10.8235C47.3043 13.8122 44.6568 16.2353 41.3913 16.2353ZM41.3913 8.11765C39.7593 8.11765 38.4348 9.32988 38.4348 10.8235C38.4348 12.3172 39.7593 13.5294 41.3913 13.5294C43.0233 13.5294 44.3478 12.3172 44.3478 10.8235C44.3478 9.32988 43.0233 8.11765 41.3913 8.11765Z" fill="#7E7979"/>
</svg>
