<svg width="44" height="46" viewBox="0 0 44 46" fill="none" xmlns="http://www.w3.org/2000/svg">
<path d="M32.684 0.613005C31.6883 0.131569 30.5718 -0.0728132 29.4611 0.0230515C28.3503 0.118916 27.2898 0.511189 26.4 1.15536L9.334 13.4206H6C4.4087 13.4206 2.88258 14.0263 1.75736 15.1045C0.632141 16.1827 0 17.6451 0 19.1699V26.8356C0 28.3604 0.632141 29.8228 1.75736 30.901C2.88258 31.9792 4.4087 32.5849 6 32.5849H9.334L26.4 44.8501C27.2914 45.4908 28.3514 45.8809 29.4612 45.9768C30.5709 46.0727 31.6866 45.8705 32.6833 45.393C33.6799 44.9155 34.5181 44.1815 35.1039 43.2733C35.6897 42.365 36 41.3184 36 40.2507V30.6685C38.1217 30.6685 40.1566 29.8609 41.6569 28.4233C43.1571 26.9856 44 25.0358 44 23.0027C44 20.9697 43.1571 19.0198 41.6569 17.5822C40.1566 16.1446 38.1217 15.337 36 15.337V5.75481C36.0037 4.68651 35.695 3.63859 35.1089 2.72981C34.5228 1.82102 33.6828 1.08772 32.684 0.613005ZM4 26.8356V19.1699C4 18.6616 4.21071 18.1741 4.58579 17.8147C4.96086 17.4553 5.46957 17.2534 6 17.2534H8V28.7521H6C5.46957 28.7521 4.96086 28.5501 4.58579 28.1907C4.21071 27.8313 4 27.3439 4 26.8356ZM32 40.2507C32 40.6066 31.8966 40.9555 31.7013 41.2582C31.506 41.561 31.2266 41.8056 30.8944 41.9648C30.5622 42.124 30.1903 42.1913 29.8204 42.1594C29.4505 42.1274 29.0971 41.9974 28.8 41.7838L12 29.7103V16.2952L28.8 4.22166C29.0971 4.00811 29.4505 3.87808 29.8204 3.84611C30.1903 3.81415 30.5622 3.88153 30.8944 4.04069C31.2266 4.19986 31.506 4.44453 31.7013 4.74728C31.8966 5.05003 32 5.3989 32 5.75481V40.2507ZM40 23.0027C40 24.0193 39.5786 24.9942 38.8284 25.713C38.0783 26.4318 37.0609 26.8356 36 26.8356V19.1699C37.0609 19.1699 38.0783 19.5737 38.8284 20.2925C39.5786 21.0113 40 21.9862 40 23.0027Z" fill="#7E7979"/>
</svg>
