<svg width="19" height="26" viewBox="0 0 19 26" fill="none" xmlns="http://www.w3.org/2000/svg">
<path d="M3.74618 6.61855C3.74618 6.61855 2.80815 11.3296 3.2431 12.6292C3.2431 12.6292 3.81954 5.50235 9.35858 0C9.35858 0 9.18041 4.60626 12.0574 6.94345C14.9343 9.28064 15.5841 12.9174 15.5841 12.9174C15.5841 12.9174 15.909 10.4335 14.9343 6.4561C14.9343 6.4561 21.0498 12.8074 18.2462 19.8976C18.2462 19.8976 14.8662 27.7057 5.18727 24.289C-4.49163 20.8723 2.01686 7.84478 3.74618 6.61855Z" fill="#C94B04"/>
<path d="M14.0752 12.6398C14.1643 14.6364 13.2629 15.1604 12.5345 15.2652C12.0682 15.3333 11.5965 15.2128 11.1878 14.9875C7.17892 12.8127 9.23837 7.49902 9.23837 7.49902C6.61296 10.0091 7.98069 15.2233 7.98069 15.2233C7.98069 15.2233 8.79294 18.1788 7.13175 18.4356C6.29854 18.5666 5.91075 18.2312 5.73258 17.8696C5.57013 17.5343 5.57013 17.1412 5.71162 16.7954C6.83829 13.997 5.87407 12.4145 5.87407 12.4145C5.33432 14.018 4.76312 15.0766 4.34913 15.7106C3.76222 16.612 3.39015 17.6391 3.33775 18.7133C3.1491 22.717 6.50291 24.3153 6.50291 24.3153C12.0105 27.1241 14.4839 21.9886 14.4839 21.9886C17.3294 16.5176 14.0752 12.6398 14.0752 12.6398Z" fill="#FFCA1D"/>
</svg>
