<svg width="28" height="28" viewBox="0 0 28 28" fill="none" xmlns="http://www.w3.org/2000/svg">
<path d="M1.75 5.25015H3.52581C3.63302 6.21261 4.0913 7.10176 4.81298 7.74752C5.53467 8.39327 6.46909 8.7503 7.4375 8.7503C8.40591 8.7503 9.34033 8.39327 10.062 7.74752C10.7837 7.10176 11.242 6.21261 11.3492 5.25015H26.25C26.366 5.25015 26.4773 5.20406 26.5594 5.12201C26.6414 5.03996 26.6875 4.92868 26.6875 4.81265C26.6875 4.69662 26.6414 4.58534 26.5594 4.50329C26.4773 4.42124 26.366 4.37515 26.25 4.37515H11.3492C11.242 3.41269 10.7837 2.52354 10.062 1.87778C9.34033 1.23203 8.40591 0.875 7.4375 0.875C6.46909 0.875 5.53467 1.23203 4.81298 1.87778C4.0913 2.52354 3.63302 3.41269 3.52581 4.37515H1.75C1.63397 4.37515 1.52269 4.42124 1.44064 4.50329C1.35859 4.58534 1.3125 4.69662 1.3125 4.81265C1.3125 4.92868 1.35859 5.03996 1.44064 5.12201C1.52269 5.20406 1.63397 5.25015 1.75 5.25015ZM7.4375 1.75015C8.04321 1.75015 8.63531 1.92976 9.13893 2.26627C9.64256 2.60279 10.0351 3.08108 10.2669 3.64068C10.4987 4.20028 10.5593 4.81605 10.4412 5.41011C10.323 6.00418 10.0313 6.54987 9.60301 6.97816C9.17472 7.40646 8.62903 7.69814 8.03496 7.8163C7.4409 7.93447 6.82513 7.87382 6.26553 7.64203C5.70593 7.41024 5.22764 7.01771 4.89112 6.51408C4.55461 6.01046 4.375 5.41835 4.375 4.81265C4.37598 4.00073 4.69896 3.22234 5.27307 2.64822C5.84719 2.07411 6.62558 1.75113 7.4375 1.75015Z" fill="#177FB0"/>
<path d="M26.25 13.5626H24.4742C24.367 12.6002 23.9087 11.711 23.187 11.0653C22.4653 10.4195 21.5309 10.0625 20.5625 10.0625C19.5941 10.0625 18.6597 10.4195 17.938 11.0653C17.2163 11.711 16.758 12.6002 16.6508 13.5626H1.75C1.63397 13.5626 1.52269 13.6087 1.44064 13.6908C1.35859 13.7728 1.3125 13.8841 1.3125 14.0001C1.3125 14.1162 1.35859 14.2275 1.44064 14.3095C1.52269 14.3916 1.63397 14.4376 1.75 14.4376H16.6508C16.758 15.4001 17.2163 16.2893 17.938 16.935C18.6597 17.5808 19.5941 17.9378 20.5625 17.9378C21.5309 17.9378 22.4653 17.5808 23.187 16.935C23.9087 16.2893 24.367 15.4001 24.4742 14.4376H26.25C26.366 14.4376 26.4773 14.3916 26.5594 14.3095C26.6414 14.2275 26.6875 14.1162 26.6875 14.0001C26.6875 13.8841 26.6414 13.7728 26.5594 13.6908C26.4773 13.6087 26.366 13.5626 26.25 13.5626ZM20.5625 17.0626C19.9568 17.0626 19.3647 16.883 18.8611 16.5465C18.3574 16.21 17.9649 15.7317 17.7331 15.1721C17.5013 14.6125 17.4407 13.9968 17.5588 13.4027C17.677 12.8086 17.9687 12.2629 18.397 11.8346C18.8253 11.4063 19.371 11.1147 19.965 10.9965C20.5591 10.8783 21.1749 10.939 21.7345 11.1708C22.2941 11.4026 22.7724 11.7951 23.1089 12.2987C23.4454 12.8023 23.625 13.3944 23.625 14.0001C23.624 14.8121 23.301 15.5905 22.7269 16.1646C22.1528 16.7387 21.3744 17.0617 20.5625 17.0626Z" fill="#177FB0"/>
<path d="M26.25 22.7502H14.8492C14.742 21.7877 14.2837 20.8985 13.562 20.2528C12.8403 19.607 11.9059 19.25 10.9375 19.25C9.96909 19.25 9.03466 19.607 8.31298 20.2528C7.5913 20.8985 7.13302 21.7877 7.02581 22.7502H1.75C1.63397 22.7502 1.52269 22.7962 1.44064 22.8783C1.35859 22.9603 1.3125 23.0716 1.3125 23.1877C1.3125 23.3037 1.35859 23.415 1.44064 23.497C1.52269 23.5791 1.63397 23.6252 1.75 23.6252H7.02581C7.13302 24.5876 7.5913 25.4768 8.31298 26.1225C9.03466 26.7683 9.96909 27.1253 10.9375 27.1253C11.9059 27.1253 12.8403 26.7683 13.562 26.1225C14.2837 25.4768 14.742 24.5876 14.8492 23.6252H26.25C26.366 23.6252 26.4773 23.5791 26.5594 23.497C26.6414 23.415 26.6875 23.3037 26.6875 23.1877C26.6875 23.0716 26.6414 22.9603 26.5594 22.8783C26.4773 22.7962 26.366 22.7502 26.25 22.7502ZM10.9375 26.2502C10.3318 26.2502 9.73969 26.0705 9.23607 25.734C8.73244 25.3975 8.33991 24.9192 8.10812 24.3596C7.87633 23.8 7.81568 23.1843 7.93384 22.5902C8.05201 21.9961 8.34369 21.4504 8.77199 21.0221C9.20028 20.5938 9.74597 20.3022 10.34 20.184C10.9341 20.0658 11.5499 20.1265 12.1095 20.3583C12.6691 20.5901 13.1474 20.9826 13.4839 21.4862C13.8204 21.9898 14 22.5819 14 23.1877C13.999 23.9996 13.676 24.778 13.1019 25.3521C12.5278 25.9262 11.7494 26.2492 10.9375 26.2502Z" fill="#177FB0"/>
</svg>
