<svg width="38" height="38" viewBox="0 0 38 38" fill="none" xmlns="http://www.w3.org/2000/svg">
<path fill-rule="evenodd" clip-rule="evenodd" d="M19 35.625C9.81825 35.625 2.375 28.1818 2.375 19C2.375 9.81825 9.81825 2.375 19 2.375C28.1818 2.375 35.625 9.81825 35.625 19C35.625 28.1818 28.1818 35.625 19 35.625ZM28.2095 30.875C28.0852 30.6921 27.9284 30.4649 27.8025 30.2876C27.5833 29.9757 27.364 29.6638 27.1676 29.355C27.1581 29.3408 26.0735 27.8857 22.1667 27.7083C20.8074 27.7083 19.8194 26.6887 19.817 25.2811L19.7917 24.5417C19.7917 24.4348 19.779 24.6588 19.7917 24.5417V23.75L20.5833 22.9583C21.162 22.69 21.8975 22.2387 22.4794 21.7993L22.5863 21.7257C23.0462 21.4336 23.689 20.8185 23.75 20.5833L23.7785 20.2817C24.0738 18.7593 24.5417 15.9901 24.5417 15.0417C24.5417 11.3129 22.7288 9.5 19 9.5C15.2198 9.5 13.4583 11.2607 13.4583 15.0417C13.4583 16.0154 13.9262 18.7712 14.2207 20.2793L14.2484 20.558C14.2983 20.8058 14.881 21.3924 15.3955 21.7154L15.4731 21.7645C16.097 22.2007 16.8427 22.6868 17.4167 22.9583L18.2083 23.75V24.5417C18.2194 24.6509 18.2083 24.4261 18.2083 24.5417L18.1822 25.2811C18.1822 26.6863 17.1958 27.7068 15.8998 27.7068C15.899 27.7068 15.8982 27.7068 15.8975 27.7068C11.974 27.8659 10.8363 29.351 10.8348 29.351C10.6353 29.6645 10.4167 29.9757 10.1959 30.2884C10.0716 30.4657 9.91483 30.6921 9.78975 30.875C12.3365 32.8526 15.5254 34.0417 18.9992 34.0417C22.473 34.0417 25.6627 32.8526 28.2095 30.875ZM19 3.95833C10.693 3.95833 3.95833 10.693 3.95833 19C3.95833 23.2639 5.73958 27.1043 8.58958 29.8411C8.892 29.3938 9.215 28.9473 9.5 28.5C9.5 28.5 10.8221 26.3285 15.8333 26.125C16.344 26.125 16.5989 25.7909 16.5989 25.2811H16.5997C16.5989 24.8686 16.5989 24.5417 16.5989 24.5417C16.5989 24.4388 16.5823 24.3461 16.5775 24.2464C16.0043 23.9756 15.3393 23.602 14.5675 23.0636C14.5675 23.0636 12.6675 21.8951 12.6675 20.5833C12.6675 20.5833 11.8758 16.5332 11.8758 15.0417C11.8758 11.3652 13.448 7.91667 19.0008 7.91667C24.4791 7.91667 26.1258 11.3652 26.1258 15.0417C26.1258 16.4968 25.3341 20.5833 25.3341 20.5833C25.3341 21.8587 23.4341 23.0636 23.4341 23.0636C22.6781 23.6344 22.0083 24.0152 21.4209 24.2875C21.417 24.3738 21.4027 24.453 21.4027 24.5417C21.4027 24.5417 21.4019 24.8686 21.4019 25.2811H21.4027C21.4011 25.7909 21.656 26.125 22.1667 26.125C27.2523 26.353 28.5 28.5 28.5 28.5C28.785 28.9473 29.1072 29.3938 29.4096 29.8411C32.2596 27.1043 34.0417 23.2639 34.0417 19C34.0417 10.693 27.307 3.95833 19 3.95833Z" fill="#177FB0"/>
</svg>
