<svg width="22" height="31" viewBox="0 0 22 31" fill="none" xmlns="http://www.w3.org/2000/svg">
<path d="M18.4844 0H3.51565C1.59473 0 0 1.55848 0 3.47941V27.4728C0 29.3937 1.55848 30.9522 3.51565 30.9522H18.4844C20.4053 30.9522 22 29.3937 22 27.4728V3.47941C22 1.55848 20.4415 0 18.4844 0ZM20.9127 27.4728C20.9127 28.8138 19.8254 29.8649 18.4844 29.8649H3.51565C2.17463 29.8649 1.08731 28.7776 1.08731 27.4728V3.47941C1.08731 2.13839 2.17463 1.08731 3.51565 1.08731H18.4844C19.8254 1.08731 20.9127 2.17463 20.9127 3.47941V27.4728Z" fill="#177FB0"/>
<path d="M15.4392 3.44336H6.48702C6.19707 3.44336 5.94336 3.69707 5.94336 3.98702C5.94336 4.27697 6.19707 4.53067 6.48702 4.53067H15.4392C15.7292 4.53067 15.9829 4.27697 15.9829 3.98702C15.9829 3.69707 15.7292 3.44336 15.4392 3.44336Z" fill="#177FB0"/>
<path d="M10.9821 24.2109C9.96729 24.2109 9.16992 25.0445 9.16992 26.0231C9.16992 26.4943 9.35114 26.9655 9.71358 27.2917C10.0398 27.6179 10.5109 27.7991 10.9821 27.7991C11.9969 27.7991 12.7943 26.9655 12.7943 25.9869C12.7943 25.0083 11.9969 24.2109 10.9821 24.2109ZM11.0184 26.748C10.8371 26.748 10.6559 26.6755 10.5109 26.5305C10.366 26.3856 10.2935 26.2043 10.2935 26.0231C10.2935 25.6244 10.6197 25.2983 11.0184 25.2983C11.417 25.2983 11.7432 25.6244 11.7432 26.0231C11.7432 26.4218 11.417 26.748 11.0184 26.748Z" fill="#177FB0"/>
</svg>
