<svg width="33" height="33" viewBox="0 0 33 33" fill="none" xmlns="http://www.w3.org/2000/svg">
<path d="M16.502 32.9997H16.5007C7.4026 32.9997 0.000658302 25.5981 0 16.5C0 7.40162 7.40161 0 16.5 0C25.5984 0 33 7.40194 33 16.5C33 25.5977 25.599 32.9997 16.502 32.9997ZM16.5 1.31627C8.12772 1.31627 1.3166 8.12739 1.3166 16.4997C1.31726 24.872 8.12871 31.6831 16.5007 31.6831H16.502C24.8733 31.6831 31.6834 24.872 31.6834 16.4997C31.6834 8.12739 24.8723 1.31627 16.5 1.31627Z" fill="#177FB0"/>
<path d="M16.6575 25.9061C13.712 25.9061 11.3154 23.6514 11.3154 20.8806C11.3154 20.5172 11.6103 20.2223 11.9737 20.2223C12.3371 20.2223 12.632 20.5172 12.632 20.8806C12.632 22.9256 14.4378 24.5895 16.6575 24.5895C18.877 24.5895 20.6827 22.9256 20.6827 20.8806C20.6827 18.8356 18.8773 17.1717 16.6575 17.1717C13.712 17.1717 11.3154 14.9174 11.3154 12.1462C11.3154 9.37545 13.712 7.12109 16.6575 7.12109C18.2411 7.12109 19.7325 7.77544 20.7502 8.91661C20.9921 9.18816 20.9684 9.60421 20.6972 9.84613C20.426 10.0881 20.0093 10.064 19.768 9.79314C18.9998 8.93175 17.8662 8.4377 16.6579 8.4377C14.4381 8.4377 12.6324 10.1012 12.6324 12.1462C12.6324 14.1913 14.4381 15.8551 16.6579 15.8551C19.6031 15.8551 21.9997 18.1098 21.9997 20.8806C21.9997 23.6514 19.6028 25.9061 16.6575 25.9061Z" fill="#177FB0"/>
<path d="M16.5108 28.2954C16.1475 28.2954 15.8525 28.0004 15.8525 27.6371V5.38975C15.8525 5.02636 16.1475 4.73145 16.5108 4.73145C16.8742 4.73145 17.1691 5.02636 17.1691 5.38975V27.6371C17.1691 28.0004 16.8746 28.2954 16.5108 28.2954Z" fill="#177FB0"/>
</svg>
