<svg width="24" height="21" viewBox="0 0 24 21" fill="none" xmlns="http://www.w3.org/2000/svg">
<mask id="path-1-outside-1_484_573" maskUnits="userSpaceOnUse" x="0" y="0" width="24" height="21" fill="black">
<rect fill="white" width="24" height="21"/>
<path d="M16.4036 4.39872C16.8395 4.40556 17.2698 4.51259 17.6687 4.71344C18.0677 4.91429 18.4271 5.20484 18.7257 5.56777C18.7257 5.56777 19.9929 5.28356 20.6928 4.72083C20.6928 4.72083 20.517 5.83493 19.351 6.68755H19.361C19.4505 6.68755 20.104 6.66861 21.1324 6.11913C21.1324 6.11913 20.935 6.76145 19.5898 7.98355C19.6711 10.8749 18.4188 16.2199 13.7846 18.1222C12.7668 18.5475 11.6921 18.7674 10.6083 18.7721C8.87202 18.7812 7.17127 18.2102 5.71535 17.1294C5.96414 17.1578 6.18806 17.1578 6.41197 17.1578C9.15204 17.1578 10.479 15.5511 10.406 15.5511H10.3048C7.9827 15.5511 7.41711 13.0121 7.41711 13.0121C7.60309 13.1406 7.81885 13.2014 8.03578 13.1865C8.31617 13.1798 8.59474 13.1333 8.8651 13.0481C6.24445 12.3395 6.34231 9.46712 6.34231 9.46712C6.69646 9.73711 7.11084 9.88569 7.53653 9.89532C7.60655 9.89622 7.6765 9.88988 7.74552 9.87638C5.35211 7.7126 6.79346 5.13009 6.79346 5.13009C9.4904 8.70544 12.806 8.83238 13.2621 8.83238H13.3169C13.0714 7.15366 13.6768 5.54124 15.3072 4.66399C15.6474 4.48556 16.0177 4.39499 16.392 4.39872M22.2188 2L20.0742 3.72041C19.7466 3.9447 19.3924 4.11381 19.0226 4.22251C18.2719 3.55293 17.3493 3.18408 16.397 3.17284C15.8646 3.16721 15.3377 3.29663 14.8544 3.55178C13.3318 4.36841 12.4063 5.77808 12.2222 7.47007C10.4196 7.04539 8.79541 5.93776 7.61283 4.32672L6.6674 3.07431L5.88784 4.46314C5.38528 5.40888 5.18594 6.52469 5.32391 7.61976L5.26254 9.42543C5.24876 10.5717 5.58217 11.6882 6.2063 12.5858L6.37217 13.3248C6.61006 14.279 7.09309 15.1298 7.75879 15.7671C7.31589 15.8778 6.86368 15.9324 6.41032 15.93C6.21294 15.93 6.00892 15.9206 5.80325 15.9016L2 15.5397L5.07677 18.1222C6.7187 19.3563 8.6429 20.0094 10.6083 19.9999C11.818 19.9962 13.0178 19.7526 14.1545 19.2799C16.4347 18.3503 18.3164 16.4578 19.4124 13.9917C20.1705 12.3077 20.5989 10.4554 20.668 8.56333C21.7676 7.48144 22.0695 6.79176 22.1508 6.5284L23 3.76778L21.839 4.38546L22.2188 2Z"/>
</mask>
<path d="M16.4036 4.39872C16.8395 4.40556 17.2698 4.51259 17.6687 4.71344C18.0677 4.91429 18.4271 5.20484 18.7257 5.56777C18.7257 5.56777 19.9929 5.28356 20.6928 4.72083C20.6928 4.72083 20.517 5.83493 19.351 6.68755H19.361C19.4505 6.68755 20.104 6.66861 21.1324 6.11913C21.1324 6.11913 20.935 6.76145 19.5898 7.98355C19.6711 10.8749 18.4188 16.2199 13.7846 18.1222C12.7668 18.5475 11.6921 18.7674 10.6083 18.7721C8.87202 18.7812 7.17127 18.2102 5.71535 17.1294C5.96414 17.1578 6.18806 17.1578 6.41197 17.1578C9.15204 17.1578 10.479 15.5511 10.406 15.5511H10.3048C7.9827 15.5511 7.41711 13.0121 7.41711 13.0121C7.60309 13.1406 7.81885 13.2014 8.03578 13.1865C8.31617 13.1798 8.59474 13.1333 8.8651 13.0481C6.24445 12.3395 6.34231 9.46712 6.34231 9.46712C6.69646 9.73711 7.11084 9.88569 7.53653 9.89532C7.60655 9.89622 7.6765 9.88988 7.74552 9.87638C5.35211 7.7126 6.79346 5.13009 6.79346 5.13009C9.4904 8.70544 12.806 8.83238 13.2621 8.83238H13.3169C13.0714 7.15366 13.6768 5.54124 15.3072 4.66399C15.6474 4.48556 16.0177 4.39499 16.392 4.39872M22.2188 2L20.0742 3.72041C19.7466 3.9447 19.3924 4.11381 19.0226 4.22251C18.2719 3.55293 17.3493 3.18408 16.397 3.17284C15.8646 3.16721 15.3377 3.29663 14.8544 3.55178C13.3318 4.36841 12.4063 5.77808 12.2222 7.47007C10.4196 7.04539 8.79541 5.93776 7.61283 4.32672L6.6674 3.07431L5.88784 4.46314C5.38528 5.40888 5.18594 6.52469 5.32391 7.61976L5.26254 9.42543C5.24876 10.5717 5.58217 11.6882 6.2063 12.5858L6.37217 13.3248C6.61006 14.279 7.09309 15.1298 7.75879 15.7671C7.31589 15.8778 6.86368 15.9324 6.41032 15.93C6.21294 15.93 6.00892 15.9206 5.80325 15.9016L2 15.5397L5.07677 18.1222C6.7187 19.3563 8.6429 20.0094 10.6083 19.9999C11.818 19.9962 13.0178 19.7526 14.1545 19.2799C16.4347 18.3503 18.3164 16.4578 19.4124 13.9917C20.1705 12.3077 20.5989 10.4554 20.668 8.56333C21.7676 7.48144 22.0695 6.79176 22.1508 6.5284L23 3.76778L21.839 4.38546L22.2188 2Z" fill="#DEDCFF"/>
<path d="M18.7257 5.56777L18.3396 5.88541L18.4247 5.98889L18.5501 6.03593L18.7257 5.56777ZM20.6928 4.72083L21.1867 4.79877L21.3885 3.51995L20.3795 4.33115L20.6928 4.72083ZM19.351 6.68755L19.0559 6.28395L17.8201 7.18755H19.351V6.68755ZM21.1324 6.11913L21.6103 6.266L21.9666 5.10648L20.8967 5.67814L21.1324 6.11913ZM19.5898 7.98355L19.2536 7.61347L19.0836 7.76795L19.09 7.99759L19.5898 7.98355ZM13.7846 18.1222L13.5947 17.6597L13.5918 17.6609L13.7846 18.1222ZM10.6083 18.7721L10.6062 18.2721L10.6057 18.2721L10.6083 18.7721ZM5.71535 17.1294L5.77209 16.6326L3.9227 16.4214L5.41732 17.5309L5.71535 17.1294ZM7.41711 13.0121L7.70123 12.6007L6.65175 11.876L6.92907 13.1209L7.41711 13.0121ZM8.03578 13.1865L8.0239 12.6866L8.01268 12.6869L8.00149 12.6876L8.03578 13.1865ZM8.8651 13.0481L9.01536 13.525L10.6451 13.0115L8.99561 12.5655L8.8651 13.0481ZM6.34231 9.46712L6.64545 9.06949L5.87556 8.48254L5.8426 9.45009L6.34231 9.46712ZM7.53653 9.89532L7.52522 10.3952L7.53013 10.3953L7.53653 9.89532ZM7.74552 9.87638L7.84151 10.3671L8.82175 10.1753L8.08083 9.50548L7.74552 9.87638ZM6.79346 5.13009L7.19263 4.82899L6.7307 4.2166L6.35686 4.88641L6.79346 5.13009ZM13.3169 8.83238V9.33238H13.8953L13.8116 8.76004L13.3169 8.83238ZM15.3072 4.66399L15.075 4.22119L15.0703 4.22367L15.3072 4.66399ZM22.2188 2L22.7126 2.07862L22.9162 0.799507L21.9059 1.60998L22.2188 2ZM20.0742 3.72041L20.3567 4.13297L20.3723 4.12227L20.387 4.11043L20.0742 3.72041ZM19.0226 4.22251L18.6898 4.59564L18.8971 4.78056L19.1636 4.70222L19.0226 4.22251ZM14.8544 3.55178L14.621 3.10961L14.6181 3.11115L14.8544 3.55178ZM12.2222 7.47007L12.1075 7.95675L12.6581 8.08646L12.7192 7.52416L12.2222 7.47007ZM7.61283 4.32672L8.01593 4.03083L8.01189 4.02548L7.61283 4.32672ZM6.6674 3.07431L7.06647 2.77306L6.60571 2.1627L6.23139 2.82958L6.6674 3.07431ZM5.88784 4.46314L5.45172 4.21834L5.44631 4.22851L5.88784 4.46314ZM5.32391 7.61976L5.82362 7.63674L5.82498 7.59685L5.81999 7.55725L5.32391 7.61976ZM5.26254 9.42543L4.76271 9.40844L4.76257 9.41942L5.26254 9.42543ZM6.2063 12.5858L6.69416 12.4763L6.67272 12.3808L6.61683 12.3004L6.2063 12.5858ZM6.37217 13.3248L5.88417 13.4343L5.88702 13.4457L6.37217 13.3248ZM7.75879 15.7671L7.88001 16.2522L8.75906 16.0325L8.10455 15.4059L7.75879 15.7671ZM6.41032 15.93L6.41294 15.43H6.41032V15.93ZM5.80325 15.9016L5.75589 16.3994L5.75739 16.3995L5.80325 15.9016ZM2 15.5397L2.04736 15.042L0.447946 14.8898L1.67855 15.9227L2 15.5397ZM5.07677 18.1222L4.75532 18.5052L4.76562 18.5138L4.77636 18.5219L5.07677 18.1222ZM10.6083 19.9999L10.6068 19.4999L10.6059 19.4999L10.6083 19.9999ZM14.1545 19.2799L13.9657 18.8169L13.9625 18.8182L14.1545 19.2799ZM19.4124 13.9917L18.9564 13.7865L18.9555 13.7887L19.4124 13.9917ZM20.668 8.56333L20.3173 8.20691L20.1755 8.34637L20.1683 8.5451L20.668 8.56333ZM22.1508 6.5284L22.6285 6.67583L22.6287 6.67541L22.1508 6.5284ZM23 3.76778L23.4779 3.91479L23.8338 2.75784L22.7652 3.32636L23 3.76778ZM21.839 4.38546L21.3452 4.30684L21.1873 5.29851L22.0738 4.82688L21.839 4.38546ZM16.3958 4.89866C16.7544 4.90429 17.1106 4.99225 17.4439 5.16003L17.8936 4.26684C17.429 4.03293 16.9247 3.90683 16.4114 3.89878L16.3958 4.89866ZM17.4439 5.16003C17.7775 5.32797 18.0829 5.57336 18.3396 5.88541L19.1118 5.25013C18.7714 4.83631 18.3579 4.5006 17.8936 4.26684L17.4439 5.16003ZM18.7257 5.56777C18.8351 6.05565 18.8352 6.05563 18.8353 6.05561C18.8353 6.05561 18.8354 6.05559 18.8355 6.05557C18.8356 6.05554 18.8358 6.05551 18.8359 6.05547C18.8363 6.05539 18.8367 6.05529 18.8372 6.05518C18.8382 6.05495 18.8395 6.05465 18.8411 6.05428C18.8444 6.05354 18.8488 6.05251 18.8544 6.05121C18.8655 6.04859 18.8812 6.04484 18.9011 6.03995C18.9408 6.03018 18.9971 6.01583 19.0664 5.9969C19.2046 5.95913 19.3964 5.90265 19.6118 5.82729C20.0303 5.68095 20.5879 5.44672 21.0061 5.11051L20.3795 4.33115C20.0978 4.55766 19.6719 4.74691 19.2817 4.88335C19.0929 4.94939 18.9241 4.99913 18.8029 5.03224C18.7424 5.04875 18.6943 5.061 18.6619 5.06897C18.6458 5.07295 18.6336 5.07585 18.6258 5.07767C18.6219 5.07859 18.6192 5.07923 18.6176 5.0796C18.6167 5.07978 18.6162 5.0799 18.616 5.07995C18.6159 5.07997 18.6159 5.07998 18.6159 5.07997C18.6159 5.07996 18.616 5.07996 18.616 5.07994C18.6161 5.07994 18.6161 5.07992 18.6161 5.07992C18.6162 5.0799 18.6163 5.07989 18.7257 5.56777ZM20.6928 4.72083C20.1989 4.64289 20.199 4.64267 20.199 4.64246C20.199 4.6424 20.1991 4.64219 20.1991 4.64206C20.1991 4.64181 20.1992 4.64156 20.1992 4.64134C20.1993 4.64089 20.1993 4.6405 20.1994 4.64018C20.1995 4.63954 20.1996 4.63916 20.1996 4.63902C20.1996 4.63876 20.1995 4.6395 20.1992 4.64121C20.1985 4.64463 20.1971 4.6519 20.1947 4.66269C20.19 4.68431 20.1814 4.71989 20.1675 4.7669C20.1398 4.86111 20.0912 4.9999 20.0106 5.1635C19.8499 5.48984 19.5625 5.91346 19.0559 6.28395L19.6461 7.09116C20.3055 6.60902 20.6891 6.04927 20.9077 5.60541C21.0168 5.38391 21.0851 5.19088 21.1268 5.04955C21.1476 4.97879 21.1619 4.92068 21.1713 4.87803C21.176 4.8567 21.1795 4.8392 21.182 4.82588C21.1832 4.81922 21.1842 4.8136 21.185 4.80907C21.1854 4.80681 21.1857 4.80481 21.186 4.80309C21.1862 4.80223 21.1863 4.80144 21.1864 4.80072C21.1865 4.80036 21.1865 4.80002 21.1866 4.79969C21.1866 4.79953 21.1866 4.7993 21.1867 4.79922C21.1867 4.79899 21.1867 4.79877 20.6928 4.72083ZM19.351 7.18755H19.361V6.18755H19.351V7.18755ZM19.361 7.18755C19.5273 7.18755 20.2625 7.1508 21.368 6.56013L20.8967 5.67814C19.9455 6.18641 19.3737 6.18755 19.361 6.18755V7.18755ZM21.1324 6.11913C20.6544 5.97227 20.6545 5.97195 20.6546 5.97163C20.6547 5.97153 20.6548 5.97121 20.6548 5.97101C20.6549 5.9706 20.6551 5.9702 20.6552 5.96981C20.6554 5.96904 20.6557 5.9683 20.6559 5.96761C20.6563 5.96622 20.6567 5.965 20.6571 5.96393C20.6578 5.96181 20.6583 5.96035 20.6586 5.95954C20.6592 5.95792 20.6588 5.95892 20.6574 5.96254C20.6545 5.96977 20.647 5.98749 20.633 6.01559C20.605 6.07179 20.5508 6.16959 20.4548 6.30795C20.2625 6.58501 19.9034 7.02316 19.2536 7.61347L19.9261 8.35362C20.6215 7.72183 21.0336 7.22778 21.2763 6.87815C21.3977 6.70318 21.477 6.56402 21.528 6.46159C21.5536 6.41038 21.572 6.36837 21.5851 6.3357C21.5917 6.31937 21.597 6.30538 21.6011 6.29376C21.6031 6.28794 21.6049 6.28272 21.6065 6.27809C21.6072 6.27578 21.6079 6.27362 21.6086 6.2716C21.6089 6.27059 21.6092 6.26962 21.6095 6.26869C21.6096 6.26822 21.6098 6.26777 21.6099 6.26732C21.61 6.26709 21.6101 6.26677 21.6101 6.26665C21.6102 6.26633 21.6103 6.266 21.1324 6.11913ZM19.09 7.99759C19.1288 9.37524 18.8479 11.3575 18.0006 13.2164C17.1559 15.0695 15.7643 16.7691 13.5947 17.6597L13.9745 18.5848C16.4392 17.573 17.9908 15.649 18.9105 13.6312C19.8276 11.6191 20.1322 9.4832 20.0896 7.9695L19.09 7.99759ZM13.5918 17.6609C12.6333 18.0614 11.6233 18.2677 10.6062 18.2721L10.6105 19.2721C11.7609 19.2672 12.9003 19.0337 13.9774 18.5836L13.5918 17.6609ZM10.6057 18.2721C8.98267 18.2806 7.38651 17.7472 6.01337 16.7279L5.41732 17.5309C6.95603 18.6731 8.76137 19.2817 10.6109 19.2721L10.6057 18.2721ZM5.6586 17.6262C5.93954 17.6582 6.19042 17.6578 6.41197 17.6578V16.6578C6.18569 16.6578 5.98874 16.6574 5.77209 16.6326L5.6586 17.6262ZM6.41197 17.6578C7.88407 17.6578 8.98918 17.2252 9.72235 16.7824C10.0875 16.5619 10.3615 16.3383 10.5442 16.1629C10.6346 16.0761 10.7078 15.9963 10.7603 15.9297C10.7835 15.9003 10.8161 15.8567 10.8428 15.8074C10.8497 15.7947 10.889 15.7248 10.9032 15.6295C10.9094 15.5882 10.9268 15.4466 10.8387 15.2977C10.7244 15.1044 10.5313 15.0511 10.406 15.0511V16.0511C10.2829 16.0511 10.0914 15.9985 9.978 15.8068C9.89086 15.6594 9.90847 15.5202 9.91419 15.4818C9.92752 15.3926 9.96314 15.3318 9.96367 15.3309C9.97765 15.3051 9.98651 15.296 9.9751 15.3105C9.95825 15.3319 9.91837 15.3775 9.8518 15.4414C9.72066 15.5673 9.50529 15.7453 9.20538 15.9264C8.60833 16.287 7.67995 16.6578 6.41197 16.6578V17.6578ZM10.406 15.0511H10.3048V16.0511H10.406V15.0511ZM10.3048 15.0511C9.36072 15.0511 8.77541 14.5471 8.40362 14.0004C8.21602 13.7246 8.08946 13.4453 8.0099 13.2332C7.97041 13.128 7.94326 13.0413 7.9264 12.9828C7.91799 12.9536 7.91219 12.9316 7.90872 12.9179C7.90699 12.9111 7.90585 12.9064 7.90527 12.9039C7.90497 12.9027 7.90482 12.902 7.9048 12.9019C7.90479 12.9019 7.90482 12.902 7.90487 12.9022C7.9049 12.9023 7.90494 12.9025 7.90498 12.9027C7.90501 12.9028 7.90505 12.903 7.90506 12.903C7.9051 12.9032 7.90514 12.9034 7.41711 13.0121C6.92907 13.1209 6.92912 13.1211 6.92917 13.1213C6.92919 13.1214 6.92924 13.1216 6.92928 13.1218C6.92936 13.1222 6.92945 13.1226 6.92955 13.123C6.92975 13.1239 6.92998 13.1249 6.93025 13.1261C6.93079 13.1284 6.93149 13.1314 6.93233 13.135C6.93403 13.1421 6.93635 13.1516 6.93933 13.1634C6.94529 13.1869 6.9539 13.2194 6.96549 13.2597C6.98863 13.34 7.02381 13.4517 7.07363 13.5845C7.17269 13.8485 7.33265 14.2039 7.57672 14.5628C8.06825 15.2856 8.92678 16.0511 10.3048 16.0511V15.0511ZM7.13299 13.4236C7.40817 13.6136 7.73545 13.7083 8.07007 13.6853L8.00149 12.6876C7.90226 12.6945 7.798 12.6675 7.70123 12.6007L7.13299 13.4236ZM8.04766 13.6863C8.37554 13.6785 8.70068 13.6242 9.01536 13.525L8.71483 12.5713C8.48881 12.6425 8.2568 12.6811 8.0239 12.6866L8.04766 13.6863ZM8.99561 12.5655C7.88196 12.2643 7.3525 11.5173 7.08901 10.816C6.95559 10.4609 6.89327 10.122 6.86479 9.8707C6.85063 9.7458 6.84507 9.64464 6.84299 9.57665C6.84195 9.54271 6.84179 9.51722 6.84185 9.50136C6.84188 9.49344 6.84196 9.48794 6.84202 9.48501C6.84205 9.48355 6.84207 9.48274 6.84207 9.48258C6.84207 9.48251 6.84207 9.4826 6.84206 9.48286C6.84206 9.48298 6.84205 9.48316 6.84205 9.48337C6.84204 9.48348 6.84204 9.48367 6.84204 9.48372C6.84203 9.48393 6.84202 9.48414 6.34231 9.46712C5.8426 9.45009 5.84259 9.45033 5.84258 9.45057C5.84258 9.45067 5.84257 9.45093 5.84257 9.45112C5.84255 9.45151 5.84254 9.45194 5.84253 9.45242C5.8425 9.45338 5.84246 9.45451 5.84243 9.45582C5.84236 9.45843 5.84228 9.46175 5.8422 9.46574C5.84205 9.47373 5.8419 9.48445 5.84186 9.49773C5.84176 9.5243 5.84205 9.56121 5.84346 9.6072C5.84627 9.69906 5.85353 9.82784 5.87115 9.98331C5.90621 10.2927 5.98322 10.7162 6.15291 11.1678C6.49565 12.0799 7.22759 13.1233 8.73458 13.5308L8.99561 12.5655ZM6.03917 9.86474C6.47324 10.1957 6.98884 10.3831 7.52522 10.3952L7.54784 9.39545C7.23284 9.38833 6.91968 9.27855 6.64545 9.06949L6.03917 9.86474ZM7.53013 10.3953C7.63466 10.3966 7.73891 10.3871 7.84151 10.3671L7.64952 9.38568C7.61408 9.39261 7.57844 9.39582 7.54293 9.39536L7.53013 10.3953ZM8.08083 9.50548C7.01427 8.54125 6.81828 7.51245 6.87085 6.72512C6.89768 6.32318 6.99051 5.9784 7.07695 5.73435C7.11997 5.61291 7.16078 5.51815 7.18973 5.45578C7.20418 5.42465 7.2156 5.40175 7.22275 5.38781C7.22633 5.38084 7.22883 5.37612 7.2301 5.37375C7.23073 5.37256 7.23106 5.37196 7.23106 5.37196C7.23106 5.37196 7.23098 5.37211 7.23082 5.37241C7.23073 5.37256 7.23063 5.37275 7.2305 5.37297C7.23044 5.37309 7.23033 5.37328 7.2303 5.37334C7.23018 5.37355 7.23006 5.37376 6.79346 5.13009C6.35686 4.88641 6.35673 4.88665 6.35659 4.88689C6.35653 4.88699 6.35639 4.88725 6.35629 4.88744C6.35607 4.88782 6.35584 4.88825 6.35558 4.88871C6.35507 4.88964 6.35447 4.89073 6.35379 4.89198C6.35242 4.89447 6.35072 4.89761 6.3487 4.90138C6.34466 4.90891 6.33936 4.91896 6.33296 4.93143C6.32017 4.95637 6.30296 4.99107 6.28267 5.03478C6.24215 5.12209 6.18905 5.246 6.13434 5.40048C6.02532 5.70826 5.9074 6.14435 5.87307 6.65851C5.80331 7.70338 6.08335 9.04772 7.41021 10.2473L8.08083 9.50548ZM6.39429 5.43119C9.2221 9.18003 12.7214 9.33238 13.2621 9.33238V8.33238C12.8906 8.33238 9.7587 8.23084 7.19263 4.82899L6.39429 5.43119ZM13.2621 9.33238H13.3169V8.33238H13.2621V9.33238ZM13.8116 8.76004C13.5912 7.25292 14.1294 5.86549 15.5442 5.1043L15.0703 4.22367C13.2242 5.21699 12.5516 7.05439 12.8221 8.90473L13.8116 8.76004ZM15.5395 5.10676C15.8085 4.96566 16.0976 4.89581 16.387 4.8987L16.397 3.89875C15.9379 3.89417 15.4862 4.00546 15.075 4.22121L15.5395 5.10676ZM21.9059 1.60998L19.7613 3.3304L20.387 4.11043L22.5317 2.39002L21.9059 1.60998ZM19.7917 3.30786C19.5062 3.50336 19.1995 3.64935 18.8816 3.74281L19.1636 4.70222C19.5853 4.57826 19.9871 4.38603 20.3567 4.13297L19.7917 3.30786ZM19.3554 3.84939C18.5202 3.10436 17.4831 2.68562 16.4029 2.67287L16.3911 3.6728C17.2155 3.68253 18.0237 4.00151 18.6898 4.59564L19.3554 3.84939ZM16.4023 2.67286C15.7845 2.66633 15.1758 2.81672 14.621 3.10962L15.0879 3.99395C15.4997 3.77655 15.9447 3.66808 16.3917 3.67281L16.4023 2.67286ZM14.6181 3.11115C12.947 4.0074 11.9267 5.56356 11.7251 7.41599L12.7192 7.52416C12.8859 5.9926 13.7166 4.72942 15.0908 3.99241L14.6181 3.11115ZM12.3368 6.9834C10.6596 6.58823 9.13411 5.5542 8.01589 4.03085L7.20976 4.62259C8.45672 6.32133 10.1797 7.50254 12.1075 7.95675L12.3368 6.9834ZM8.01189 4.02548L7.06647 2.77306L6.26834 3.37555L7.21376 4.62797L8.01189 4.02548ZM6.23139 2.82958L5.45183 4.21841L6.32385 4.70788L7.10341 3.31904L6.23139 2.82958ZM5.44631 4.22851C4.89381 5.26823 4.67739 6.48823 4.82783 7.68226L5.81999 7.55725C5.69448 6.56115 5.87675 5.54954 6.32937 4.69777L5.44631 4.22851ZM4.8242 7.60277L4.76283 9.40845L5.76225 9.44241L5.82362 7.63674L4.8242 7.60277ZM4.76257 9.41942C4.74761 10.6644 5.10923 11.8838 5.79578 12.8713L6.61683 12.3004C6.05511 11.4925 5.74991 10.479 5.7625 9.43144L4.76257 9.41942ZM5.71844 12.6953L5.88431 13.4343L6.86003 13.2153L6.69416 12.4763L5.71844 12.6953ZM5.88702 13.4457C6.14615 14.4852 6.67448 15.4212 7.41302 16.1283L8.10455 15.4059C7.5117 14.8384 7.07397 14.0729 6.85732 13.2038L5.88702 13.4457ZM7.63756 15.282C7.23488 15.3826 6.82427 15.4322 6.41294 15.43L6.40769 16.43C6.90309 16.4326 7.3969 16.3729 7.88001 16.2522L7.63756 15.282ZM6.41032 15.43C6.22875 15.43 6.04005 15.4213 5.84912 15.4037L5.75739 16.3995C5.9778 16.4198 6.19713 16.43 6.41032 16.43V15.43ZM5.85062 15.4039L2.04736 15.042L1.95264 16.0375L5.75589 16.3994L5.85062 15.4039ZM1.67855 15.9227L4.75532 18.5052L5.39822 17.7392L2.32145 15.1567L1.67855 15.9227ZM4.77636 18.5219C6.50137 19.8184 8.53098 20.51 10.6108 20.4999L10.6059 19.4999C8.75482 19.5089 6.93604 18.8941 5.37718 17.7225L4.77636 18.5219ZM10.6099 20.4999C11.886 20.496 13.1505 20.2389 14.3465 19.7416L13.9625 18.8182C12.8851 19.2662 11.7499 19.4964 10.6068 19.4999L10.6099 20.4999ZM14.3432 19.7429C16.7551 18.7597 18.7263 16.7665 19.8693 14.1948L18.9555 13.7887C17.9064 16.1491 16.1144 17.941 13.9657 18.8169L14.3432 19.7429ZM19.8683 14.197C20.6536 12.4525 21.0963 10.5365 21.1676 8.58156L20.1683 8.5451C20.1016 10.3742 19.6874 12.1628 18.9564 13.7865L19.8683 14.197ZM21.0186 8.91975C22.1598 7.797 22.5165 7.03883 22.6285 6.67583L21.673 6.38096C21.6225 6.54469 21.3754 7.16588 20.3173 8.20691L21.0186 8.91975ZM22.6287 6.67541L23.4779 3.91479L22.5221 3.62077L21.6729 6.38138L22.6287 6.67541ZM22.7652 3.32636L21.6041 3.94404L22.0738 4.82688L23.2348 4.2092L22.7652 3.32636ZM22.3327 4.46408L22.7126 2.07862L21.725 1.92138L21.3452 4.30684L22.3327 4.46408Z" fill="#C5C1FF" mask="url(#path-1-outside-1_484_573)"/>
</svg>
