<svg width="17" height="18" viewBox="0 0 17 18" fill="none" xmlns="http://www.w3.org/2000/svg">
<path fill-rule="evenodd" clip-rule="evenodd" d="M8.48164 0.000244141C3.80022 0.000244141 0 3.8031 0 8.48778C0 10.1412 0.458964 11.7211 1.35853 13.099L0.0734344 15.9465C-0.0367168 16.2037 0 16.516 0.183585 16.7365C0.330454 16.9018 0.532397 16.9937 0.7527 16.9937C0.826134 16.9937 0.88121 16.9937 0.954644 16.9753L4.5162 16.0016C5.74622 16.663 7.12311 17.0121 8.51836 17.0121C13.1998 17.0121 17 13.2092 17 8.52452C16.9633 3.8031 13.1631 0.000244141 8.48164 0.000244141ZM8.48164 15.5056C7.23326 15.5056 6.0216 15.1749 4.9568 14.5503C4.84665 14.4768 4.71814 14.4401 4.58963 14.4401C4.5162 14.4401 4.46112 14.4401 4.38769 14.4584L2.05616 15.1014L2.86393 13.3194C2.97408 13.0806 2.93736 12.7867 2.7905 12.5846C1.92765 11.3904 1.46868 9.97585 1.46868 8.48778C1.46868 4.62981 4.62635 1.46995 8.48164 1.46995C12.3369 1.46995 15.4946 4.61144 15.4946 8.48778C15.4946 12.3458 12.3553 15.5056 8.48164 15.5056Z" fill="#DEDCFF"/>
<path fill-rule="evenodd" clip-rule="evenodd" d="M11.7494 9.7549C11.4006 9.53445 10.9233 9.29562 10.5194 9.47933C10.2073 9.60793 9.98699 10.1223 9.78505 10.3795C9.67489 10.5081 9.54638 10.5265 9.38116 10.4714C8.16949 9.99373 7.25157 9.18539 6.59066 8.08311C6.48051 7.91777 6.49887 7.7708 6.62738 7.60546C6.82932 7.36663 7.08634 7.09106 7.14142 6.77875C7.19649 6.46644 7.04962 6.08064 6.92111 5.80507C6.75589 5.43765 6.5723 4.92325 6.20513 4.72117C5.87468 4.53745 5.43407 4.62931 5.14034 4.88651C4.6263 5.30905 4.36928 5.97042 4.38764 6.61341C4.38764 6.79712 4.406 6.98084 4.46107 7.16455C4.57122 7.58709 4.75481 7.99126 4.99347 8.37705C5.1587 8.67099 5.34228 8.94656 5.54422 9.20376C6.18677 10.0856 6.99455 10.8388 7.91248 11.4083C8.37144 11.6839 8.88548 11.9411 9.39952 12.1064C9.98699 12.2901 10.501 12.4922 11.1252 12.382C11.7861 12.2534 12.4287 11.8492 12.6857 11.2246C12.7591 11.0409 12.7958 10.8204 12.7591 10.6367C12.6306 10.1958 12.0799 9.95698 11.7494 9.7549Z" fill="#DEDCFF"/>
</svg>
