<svg width="27" height="35" viewBox="0 0 27 35" fill="none" xmlns="http://www.w3.org/2000/svg">
<path d="M8.571 31.0855C9.40736 31.0855 10.0854 30.1256 10.0854 28.9417C10.0854 27.7577 9.40736 26.7979 8.571 26.7979C7.73464 26.7979 7.05664 27.7577 7.05664 28.9417C7.05664 30.1256 7.73464 31.0855 8.571 31.0855Z" fill="#5DBF23"/>
<path d="M18.4147 31.0855C19.2511 31.0855 19.9291 30.1256 19.9291 28.9417C19.9291 27.7577 19.2511 26.7979 18.4147 26.7979C17.5784 26.7979 16.9004 27.7577 16.9004 28.9417C16.9004 30.1256 17.5784 31.0855 18.4147 31.0855Z" fill="#5DBF23"/>
<path d="M5.52528 9.92908H25.2304L22.3306 22.0755C22.2272 22.5163 22.0056 22.9043 21.7 23.1797C21.3944 23.4552 21.0217 23.603 20.6391 23.6003H10.1165C9.73396 23.603 9.36123 23.4552 9.05564 23.1797C8.75004 22.9043 8.52849 22.5163 8.42503 22.0755L4.44886 5.43333C4.39632 5.21348 4.28533 5.02012 4.13272 4.88254C3.9801 4.74496 3.79417 4.67066 3.6031 4.6709H1.75781" stroke="#5DBF23" stroke-width="3" stroke-linecap="round" stroke-linejoin="round"/>
</svg>
