<svg width="24" height="29" viewBox="0 0 24 29" fill="none" xmlns="http://www.w3.org/2000/svg">
<path d="M11.4785 26.3079V28.5002C13.9223 28.5002 15.8632 27.5651 17.346 26.3079H11.4785Z" fill="#3F3D56"/>
<path d="M1.04297 15.3457V17.538C1.04297 20.2784 3.12992 20.8265 3.12992 20.8265C3.12992 20.8265 5.21688 27.4034 11.4777 27.4034" stroke="#3F3D56" stroke-width="2" stroke-miterlimit="10" stroke-linecap="round"/>
<path d="M22.9565 16.4423H19.8261C19.8261 9.6023 16.6956 6.57692 16.6956 6.57692C13.5652 14.25 3.13043 8.76923 3.13043 16.4423H0C0 16.4423 0 16.313 0 12.0577C0 4.38461 6.26086 0 11.4782 0C15.6522 0 16.6956 2.19231 16.6956 2.19231C20.8695 2.19231 22.9565 7.67307 22.9565 12.0577V16.4423Z" fill="#3F3D56"/>
<path d="M11.9993 20.8271C11.8157 20.8271 11.1395 20.8271 10.9558 20.8271C10.0918 20.8271 9.39062 21.5638 9.39062 22.4714C9.39062 23.379 10.0918 24.1156 10.9558 24.1156C11.1395 24.1156 11.8157 24.1156 11.9993 24.1156C12.8633 24.1156 13.5645 23.379 13.5645 22.4714C13.5645 21.5638 12.8633 20.8271 11.9993 20.8271Z" fill="#3F3D56"/>
<path d="M12.5215 23.0188H17.7389C20.0439 23.0188 21.9128 21.0556 21.9128 18.6342V15.3457" stroke="#3F3D56" stroke-width="2" stroke-miterlimit="10" stroke-linecap="round"/>
<path d="M21.9131 19.7308H19.8262V14.25H21.9131C23.0662 14.25 24.0001 15.2311 24.0001 16.4423V17.5385C24.0001 18.7497 23.0662 19.7308 21.9131 19.7308Z" fill="#3F3D56"/>
</svg>
